<?xml version="1.0" encoding="UTF-8"?>
<svg width="720px" height="840px" viewBox="0 0 720 840" version="1.1" xmlns="http://www.w3.org/2000/svg" xmlns:xlink="http://www.w3.org/1999/xlink">
    <!-- Generator: Sketch 56.3 (81716) - https://sketch.com -->
    <title>Fair-Illustration</title>
    <desc>Created with Sketch.</desc>
    <g id="Fair-Illustration" stroke="none" stroke-width="1" fill="none" fill-rule="evenodd">
        <path d="M104.122476,402.493127 L605.977644,402.493127" id="Path-10" stroke="#979797" stroke-width="11"></path>
        <path d="M104,577 L104,397" id="Path-10-Copy" stroke="#979797" stroke-width="11"></path>
        <path d="M606,577 L606,397" id="Path-10-Copy-2" stroke="#979797" stroke-width="11"></path>
        <path d="M355.05006,283 C355.05006,292.6919 352.975526,293.183462 349.925466,302.875362 C346.875406,312.567262 333.439209,311.088502 320.960201,311.088502 C308.481193,311.088502 261.310486,309.931442 280.471258,273.785172 C299.4536,225.546034 313.896467,204.142841 323.799859,209.575592 L312.038917,215.08151 C283.233649,251.16373 266.355426,273.803226 261.404248,283 C253.977481,296.79516 295.576007,338.063816 323.799859,325.031965 C342.61576,316.344064 341.669207,340.333409 320.960201,397 L401.657626,397 C397.452176,380.415245 395.349451,368.249871 395.349451,360.503875 C395.349451,352.75788 397.118842,344.699751 400.657626,336.32949 L415.114893,382.339146 L395.349451,389.553325 L392,397 L430.631495,397 L430.631495,372.874131 C417.278222,336.333621 409.767526,317.236014 408.099408,315.581311 C407.445185,314.93235 383.047646,309.531795 374.43491,302.3838 C365.340633,294.836158 363.142985,288.744786 363.142985,283" id="Path-12" stroke="#979797" fill="#D8D8D8"></path>
        <rect id="Rectangle" stroke="#979797" fill="#E9F5FF" x="104.5" y="400.5" width="501" height="176"></rect>
        <path d="M360,295.442885 C377.949254,295.442885 392,268.449254 392,250.5 C392,232.550746 377.449254,218 359.5,218 C341.550746,218 327,232.550746 327,250.5 C327,268.449254 342.050746,295.442885 360,295.442885 Z" id="Oval" stroke="#979797" fill="#D8D8D8"></path>
        <path d="M308.408744,327.106565 L314.148413,310.804967 L345.581325,308.805233 C353.67891,315.705863 360.410651,319.156178 365.776548,319.156178 C371.142446,319.156178 378.30577,315.705863 387.266523,308.805233 L408.099408,315.581311 L430.631495,372.874131 L430.631495,397 L408.099408,397 L408.099408,384.173859 L415.114893,382.339146 L400.657626,336.32949 L400.657626,397 L320.960201,397 L336.729714,328.493365 C334.689135,326.644298 330.847061,326.182031 325.203492,327.106565 C319.559923,328.031098 313.961674,328.031098 308.408744,327.106565 Z" id="Path-11" stroke="#979797" fill="#64E249"></path>
        <path d="M359.5,218 C350.230729,219.353163 343.508605,221.74753 339.333629,225.183099 C335.158652,228.618669 331.047442,234.429953 327,242.616951 L345.581325,242.616951 L345.581325,233.666536 L376.634009,233.666536 L376.634009,242.616951 L392,242.616951 C388.141212,233.751895 384.391546,227.940611 380.751001,225.183099 C377.110455,222.425588 370.026788,220.031221 359.5,218 Z" id="Path-13" stroke="#979797" fill-opacity="0.85" fill="#000000"></path>
    </g>
</svg>