<?xml version="1.0" encoding="UTF-8"?>
<svg width="1138px" height="759px" viewBox="0 0 1138 759" version="1.1" xmlns="http://www.w3.org/2000/svg" xmlns:xlink="http://www.w3.org/1999/xlink">
    <!-- Generator: Sketch 56.3 (81716) - https://sketch.com -->
    <title>Fair-Illustration</title>
    <desc>Created with Sketch.</desc>
    <defs>
        <linearGradient x1="50%" y1="0%" x2="50%" y2="54.572571%" id="linearGradient-1">
            <stop stop-color="#786450" offset="0%"></stop>
            <stop stop-color="#000000" offset="100%"></stop>
        </linearGradient>
        <radialGradient cx="50%" cy="0%" fx="50%" fy="0%" r="86.797963%" gradientTransform="translate(0.500000,0.000000),scale(1.000000,0.822222),rotate(3.136197),translate(-0.500000,-0.000000)" id="radialGradient-2">
            <stop stop-color="#7C411B" offset="0%"></stop>
            <stop stop-color="#A17356" offset="0%"></stop>
            <stop stop-color="#AC7F61" stop-opacity="0" offset="5.8018003%"></stop>
            <stop stop-color="#AC7E60" offset="48.1930111%"></stop>
            <stop stop-color="#C39577" offset="100%"></stop>
        </radialGradient>
        <linearGradient x1="7.91294402%" y1="50.3621378%" x2="121.16193%" y2="49.3976716%" id="linearGradient-3">
            <stop stop-color="#A07756" offset="0%"></stop>
            <stop stop-color="#000000" offset="100%"></stop>
        </linearGradient>
        <linearGradient x1="50%" y1="0%" x2="50%" y2="100%" id="linearGradient-4">
            <stop stop-color="#965932" offset="0%"></stop>
            <stop stop-color="#C39577" offset="100%"></stop>
        </linearGradient>
        <linearGradient x1="117.339947%" y1="45.919238%" x2="20.5046039%" y2="34.8140701%" id="linearGradient-5">
            <stop stop-color="#191515" stop-opacity="0.740056818" offset="0%"></stop>
            <stop stop-color="#C39577" offset="100%"></stop>
        </linearGradient>
        <linearGradient x1="58%" y1="50%" x2="29.446669%" y2="53.6387355%" id="linearGradient-6">
            <stop stop-color="#A57F66" offset="0%"></stop>
            <stop stop-color="#D1B69F" stop-opacity="0.252649694" offset="100%"></stop>
        </linearGradient>
        <linearGradient x1="50%" y1="100%" x2="50%" y2="0.963365709%" id="linearGradient-7">
            <stop stop-color="#95725C" offset="0%"></stop>
            <stop stop-color="#C39577" offset="100%"></stop>
        </linearGradient>
        <linearGradient x1="50%" y1="0%" x2="50%" y2="100%" id="linearGradient-8">
            <stop stop-color="#A46C47" offset="0%"></stop>
            <stop stop-color="#E3C7AF" offset="100%"></stop>
        </linearGradient>
        <radialGradient cx="50%" cy="50%" fx="50%" fy="50%" r="131.97187%" gradientTransform="translate(0.500000,0.500000),scale(0.509091,1.000000),rotate(90.000000),scale(1.000000,2.763611),translate(-0.500000,-0.500000)" id="radialGradient-9">
            <stop stop-color="#FFFFFF" offset="0%"></stop>
            <stop stop-color="#000000" offset="100%"></stop>
        </radialGradient>
        <radialGradient cx="50%" cy="0%" fx="50%" fy="0%" r="100%" gradientTransform="translate(0.500000,0.000000),scale(0.035149,1.000000),rotate(90.000000),scale(1.000000,11.753182),translate(-0.500000,-0.000000)" id="radialGradient-10">
            <stop stop-color="#A27238" offset="0%"></stop>
            <stop stop-color="#321E0E" offset="100%"></stop>
        </radialGradient>
    </defs>
    <g id="Fair-Illustration" stroke="none" stroke-width="1" fill="none" fill-rule="evenodd">
        <g id="Lady" transform="translate(910.000000, 369.000000)">
            <path d="M10.0723828,69.1543122 C12.6897961,65.6198319 14.3062902,62.6577124 14.9218652,60.267954 C15.9638736,56.2227138 14.6006676,54.1203705 13.1144549,51.269551 C13.7228775,49.2576456 14.4157807,47.2827056 15.1890129,45.3489035 C19.9961681,41.8497931 23.13913,38.7875425 24.6178983,36.1621517 C26.518124,32.7885097 25.9880023,30.4916585 25.3413397,27.6697125 C27.6783888,24.6695325 30.2449499,21.8586421 33.0144673,19.2637318 C32.9246542,19.3554156 32.8344766,19.4474965 32.7439344,19.5399744 C39.0957764,17.6999307 43.4769052,15.7087779 45.8873207,13.566516 C48.0412385,11.6522171 48.7244521,9.86175358 49.0580805,7.88136802 C51.3218382,6.70103156 53.6555554,5.6374543 56.0513371,4.69857142 C58.1345644,5.7547862 60.1064698,6.43261235 63.2809145,5.60657455 C65.7525972,4.96340586 68.8396695,3.23310003 72.5421313,0.415657066 C73.8076564,0.243904873 75.0835696,0.105057509 76.3689906,-8.11278822e-12 C77.7603663,1.33190164 79.3469873,2.31494945 82.109998,2.58161193 C84.8137895,2.84255908 88.5907782,2.1867127 93.4409641,0.614072784 C95.3370831,0.908528352 97.2088784,1.27702147 99.0533345,1.71652114 C99.9164688,3.52231952 101.064919,5.0499663 103.654418,6.29053283 C106.34514,7.57959332 110.626028,8.27545675 116.49708,8.37812312 C117.321234,8.82339135 118.135807,9.28425743 118.940406,9.76032838 C119.274067,10.7313833 119.824352,11.7301378 120.71228,12.8121767 C122.759591,15.307053 126.776872,17.9625358 132.764122,20.7786248 C132.454749,20.3433255 132.150446,19.9156677 131.851215,19.4956513 C132.251016,19.873746 132.64653,20.2563614 133.037681,20.643419 C132.89648,23.9580491 132.473275,26.4788266 135.174211,29.7702178 C137.001547,31.9970301 140.398265,34.35179 145.364365,36.8344974 C145.872965,37.7425337 146.36271,38.6626634 146.833066,39.5943501 C145.618401,42.5045649 144.492838,44.7113901 145.862867,48.5966537 C146.853338,51.40553 149.369299,54.9175914 153.410748,59.1328379 C153.638698,60.3714446 153.8354,61.6210677 154,62.8808504 C151.827676,65.2514626 149.966065,66.9267693 149.930846,71.1091841 C149.905041,74.1736405 151.142119,78.4914363 153.642082,84.0625713 C153.524034,84.7368367 153.395586,85.4042091 153.256899,86.0646838 C150.173674,87.7161309 147.661523,88.5177333 146.118409,92.6692967 C145.093902,95.42561 144.770204,99.6678301 145.147315,105.395957 C144.152936,106.859739 143.088252,108.26577 141.95713,109.613939 C141.961558,109.552185 141.927073,109.527811 141.853674,109.540819 C137.885928,110.243997 135.027178,109.762875 131.89363,113.45241 C130.409546,115.199815 129.018688,117.945397 127.721053,121.689155 C115.308404,129.210724 99.5103985,133 82.3096528,133 C42.3741343,133 10,112.574142 10,72.4355674 C10,71.3359409 10.0242977,70.2420182 10.0723828,69.1543122 Z" id="Combined-Shape" fill="url(#linearGradient-1)"></path>
            <path d="M82.9654479,170.960704 C84.9338696,170.964 100.160564,172.19384 107.716254,160.631871 C115.271943,149.069902 126,111.801147 126,94.3256458 C126,76.8501444 100.164522,71 83.5703818,71 C66.9762416,71 41,76.8501444 41,94.3256458 C41,111.801147 50.9870352,149.100766 58.5071678,160.631871 C66.0273005,172.162976 80.9970263,170.957408 82.9654479,170.960704 Z" id="Oval-Copy-5" fill="#C39577"></path>
            <path d="M63.0159473,100.031864 C63.8417169,100.031864 66.4057847,102.946334 69.63318,102.159582 C72.211971,101.530943 76.4300142,104.205523 76.9662751,105.882831 C78.2882321,110.017626 80.9116133,114.14408 80.1390906,119.008578 C79.5597867,122.656397 78.9751012,131.454442 75.2595433,136.172086 C72.7825047,139.317183 72.7825047,142.259821 75.2595433,145 L82.5273174,145 L89.9725171,145 C92.4970624,141.712648 92.4970624,138.77001 89.9725171,136.172086 C86.1856993,132.275201 85.4531524,122.595781 84.8791855,119.005486 C82.6719433,105.19868 98.8824408,104.368629 99.8627618,101.770505 C101.310521,97.9335382 91.0165213,105.130766 82.5273174,102.340036 C74.0381135,99.5493049 62.5124428,100.031864 63.0159473,100.031864 Z" id="Path-26" fill="url(#radialGradient-2)"></path>
            <g id="Group-4" transform="translate(85.000000, 100.000000)">
                <g id="Group-4-Copy" transform="translate(16.575472, 14.636364) scale(-1, 1) translate(-16.575472, -14.636364) translate(1.075472, 7.636364)">
                    <path d="M30.9142422,12.515525 L23.0748724,13.2166584 L25.0052269,11.9262683 L19.5742428,13.3636364 L20.552565,12.1299001 L14.7826863,13.2166584 L16.1473618,12.1299001 L9.57246606,12.2786983 L11.7696156,11.1715937 C9.59133487,10.6041259 7.95335748,10.09609 6.8556834,9.64748578 C5.2091723,8.97457949 2.30205213,6.50272704 2.69884956,6.80833489 C3.88100501,7.42759473 5.57004229,7.86231568 7.76596142,8.11249775 C2.28403076,2.5620811 -0.124362298,0.0902478275 0.540782253,0.696997934 C3.40578192,2.55457923 5.38207498,3.18940387 6.46966144,2.60147186 L5.60401062,0.696997934 C6.53160414,1.40941102 7.22729928,1.8558294 7.69109604,2.03625306 C8.15489279,2.21667672 8.85058793,2.31152932 9.77818145,2.32081088 L9.77818145,-4.54747351e-13 C10.4882012,0.932272361 11.0216485,1.51326935 11.3785234,1.74299097 C12.4420613,2.42759413 13.4537197,2.32081088 14.0382484,2.32081088 C14.9169888,2.32081088 15.0949592,1.70245572 14.5721595,0.46574541 C14.143439,-0.00322671227 15.6860363,0.708682106 19.1999516,2.60147186 C21.21258,3.68558523 25.6986822,6.60190118 27.7249753,8.47869949 C28.7326285,9.41201053 29.7957175,10.757619 30.9142422,12.515525 Z" id="Combined-Shape" fill="#000000"></path>
                    <g id="Group-2" transform="translate(8.053179, 3.818182)">
                        <path d="M21.9085192,7.63636364 L16.6014158,7.05295169 C13.7482342,7.46926646 10.4988868,7.46926646 6.85337362,7.05295169 C3.20786038,6.63663693 0.923402511,4.37987289 0,0.282659586 C5.51696218,-0.288037029 9.99995058,0.00545417005 13.4489652,1.16313318 C16.8979798,2.32081219 19.7178311,4.47855568 21.9085192,7.63636364 Z" id="Path-21" fill="#FFFFFF"></path>
                        <g id="Group-3" transform="translate(5.288263, 0.000000)">
                            <path d="M3.83068346,5.72727273 C6.19743676,5.72727273 8.1057592,4.81232535 8.1057592,2.91731988 C8.1057592,0.595636847 6.65578178,0.595636847 4.21290382,0.275565206 C1.77002585,-0.0445064351 1.49177515,-0.0629437327 0.423859013,1.90909091 C0.0940664922,3.21701266 1.46393017,5.72727273 3.83068346,5.72727273 Z" id="Oval" fill="#714E21"></path>
                            <path d="M4.51433204,3.81818182 C5.75583144,3.81818182 7.03422424,3.47371203 6.76226555,1.90909091 C6.49030686,0.344469784 5.75583144,0 4.51433204,0 C3.27283265,0 2.26639853,0.854729114 2.26639853,1.90909091 C2.26639853,2.9634527 3.27283265,3.81818182 4.51433204,3.81818182 Z" id="Oval-Copy-6" fill="#1F1201"></path>
                        </g>
                    </g>
                </g>
                <path d="M32.6507228,5.46941316 C22.4610733,7.91457522 15.9565339,9.29715774 13.1371048,9.61716071 C10.3176757,9.93716368 6.90579233,9.43322609 2.90145482,8.10534793 C2.07926858,7.62063655 1.5468188,7.23892139 1.30410548,6.96020243 C0.515972144,6.25002599 1.05583613,5.792187 2.26577578,5.1147132 C9.36454309,8.28168241 19.6551333,7.85437484 33.1375464,3.83279047 L32.6507228,5.46941316 Z" id="Path-27-Copy" fill="url(#linearGradient-3)" transform="translate(17.035712, 6.771582) scale(1, -1) rotate(12.000000) translate(-17.035712, -6.771582) "></path>
            </g>
            <g id="Group-4-Copy-2" transform="translate(63.000000, 111.000000) scale(-1, 1) translate(-63.000000, -111.000000) translate(46.000000, 100.000000)">
                <g id="Group-4-Copy" transform="translate(17.858491, 14.636364) scale(-1, 1) translate(-17.858491, -14.636364) translate(2.358491, 7.636364)">
                    <path d="M30.9142422,12.515525 L23.0748724,13.2166584 L25.0052269,11.9262683 L19.5742428,13.3636364 L20.552565,12.1299001 L14.7826863,13.2166584 L16.1473618,12.1299001 L9.57246606,12.2786983 L11.7696156,11.1715937 C9.59133487,10.6041259 7.95335748,10.09609 6.8556834,9.64748578 C5.2091723,8.97457949 2.30205213,6.50272704 2.69884956,6.80833489 C3.88100501,7.42759473 5.57004229,7.86231568 7.76596142,8.11249775 C2.28403076,2.5620811 -0.124362298,0.0902478275 0.540782253,0.696997934 C3.40578192,2.55457923 5.38207498,3.18940387 6.46966144,2.60147186 L5.60401062,0.696997934 C6.53160414,1.40941102 7.22729928,1.8558294 7.69109604,2.03625306 C8.15489279,2.21667672 8.85058793,2.31152932 9.77818145,2.32081088 L9.77818145,-4.54747351e-13 C10.4882012,0.932272361 11.0216485,1.51326935 11.3785234,1.74299097 C12.4420613,2.42759413 13.4537197,2.32081088 14.0382484,2.32081088 C14.9169888,2.32081088 15.0949592,1.70245572 14.5721595,0.46574541 C14.143439,-0.00322671227 15.6860363,0.708682106 19.1999516,2.60147186 C21.21258,3.68558523 25.6986822,6.60190118 27.7249753,8.47869949 C28.7326285,9.41201053 29.7957175,10.757619 30.9142422,12.515525 Z" id="Combined-Shape" fill="#000000"></path>
                    <g id="Group-2" transform="translate(8.053179, 3.818182)">
                        <path d="M21.9085192,7.63636364 L16.6014158,7.05295169 C13.7482342,7.46926646 10.4988868,7.46926646 6.85337362,7.05295169 C3.20786038,6.63663693 0.923402511,4.37987289 0,0.282659586 C5.51696218,-0.288037029 9.99995058,0.00545417005 13.4489652,1.16313318 C16.8979798,2.32081219 19.7178311,4.47855568 21.9085192,7.63636364 Z" id="Path-21" fill="#FFFFFF"></path>
                        <g id="Group-3" transform="translate(5.288263, 0.000000)">
                            <path d="M3.83068346,5.72727273 C6.19743676,5.72727273 8.1057592,4.81232535 8.1057592,2.91731988 C8.1057592,0.595636847 6.65578178,0.595636847 4.21290382,0.275565206 C1.77002585,-0.0445064351 1.49177515,-0.0629437327 0.423859013,1.90909091 C0.0940664922,3.21701266 1.46393017,5.72727273 3.83068346,5.72727273 Z" id="Oval" fill="#714E21"></path>
                            <path d="M4.51433204,3.81818182 C5.75583144,3.81818182 7.03422424,3.47371203 6.76226555,1.90909091 C6.49030686,0.344469784 5.75583144,0 4.51433204,0 C3.27283265,0 2.26639853,0.854729114 2.26639853,1.90909091 C2.26639853,2.9634527 3.27283265,3.81818182 4.51433204,3.81818182 Z" id="Oval-Copy-6" fill="#1F1201"></path>
                        </g>
                    </g>
                </g>
                <path d="M32.6507228,5.46941316 C22.4610733,7.91457522 15.9565339,9.29715774 13.1371048,9.61716071 C10.3176757,9.93716368 6.90579233,9.43322609 2.90145482,8.10534793 C2.07926858,7.62063655 1.5468188,7.23892139 1.30410548,6.96020243 C0.515972144,6.25002599 1.05583613,5.792187 2.26577578,5.1147132 C9.36454309,8.28168241 19.6551333,7.85437484 33.1375464,3.83279047 L32.6507228,5.46941316 Z" id="Path-27-Copy" fill="url(#linearGradient-3)" transform="translate(17.035712, 6.771582) scale(1, -1) rotate(12.000000) translate(-17.035712, -6.771582) "></path>
            </g>
            <path d="M76,144 C76.4132322,142.666667 77.2465656,142 78.5,142 C79.7534344,142 80.5867678,142.666667 81,144" id="Path-24-Copy-3" fill="url(#linearGradient-4)"></path>
            <path d="M84,144 C84.4132322,142.666667 85.2465656,142 86.5,142 C87.7534344,142 88.5867678,142.666667 89,144" id="Path-24-Copy-4" fill="url(#linearGradient-4)"></path>
            <path d="M73.2286719,114.659669 C75.9708541,117.451107 77.5918614,119.246076 78.0916938,120.044578 C80.1005382,123.253783 64.1026961,124.019214 63.0293366,125.575271 L60.6557896,133.844286 C60.0756128,135.280472 57.3525157,146.777535 69.7737429,143.932696 C72.107663,143.398158 76.6544266,144.48585 81.6755925,144.960002 C84.1633742,145.194925 84.7750417,144.299389 86.6964346,144.739189 C88.3259022,145.112168 89.6059335,144.299389 90,144.091778 C89.4518943,143.337395 81.8140501,144.310866 77.5251527,143.932696 C74.1968472,143.639226 73.534527,141.172774 73.4681624,140.864768 C73.3165383,140.161064 73.3906838,139.079019 73.690599,137.618634 C75.8311309,134.688119 77.511977,131.175054 78.7331374,127.079437 C79.1752095,124.300778 79.7259789,120.616292 80.3854457,116.025978 L81.1448847,109 C80.1595111,112.445173 77.5207736,114.331729 73.2286719,114.659669 Z" id="Path-25" fill="url(#linearGradient-5)" opacity="0.377557664"></path>
            <path d="M75.9882661,141.807246 C75.7868833,142.54904 74.3140158,140.984694 74.0526148,139.915952 C73.7912137,138.84721 74.5461505,136.350205 75.3818648,137.158175 C75.7284979,137.4933 74.5288509,138.787688 74.8520761,139.774819 C75.3081299,141.167608 76.1061205,141.373129 75.9882661,141.807246 Z" id="Path-27" fill="url(#linearGradient-6)"></path>
            <path d="M71,156 C73.739405,153.142436 75.7970295,151.815977 77.1728737,152.020624 C79.9122786,152.42809 81.9699032,153.142276 83.3457473,154.16318 C84.7599919,153.141692 86.869034,152.427507 89.6728737,152.020624 C91.0871182,151.815394 93.1961603,153.141853 96,156 L71,156 Z" id="Path-24" fill="#EF4646"></path>
            <path d="M71,156 C75.0368306,160.666667 79.1444807,163 83.3229503,163 C87.5014199,163 91.7271031,160.666667 96,156" id="Path-29" fill="#EF4646"></path>
            <path d="M82.0073075,157 C85.2922594,156.994072 87.653891,156.909386 89.0922023,156.745941 C90.4731736,156.589012 90.2294231,156.101361 88.6946626,156.028275 C87.671489,155.97955 85.9932804,156.111218 83.6600369,156.423278 C81.0189248,156.06816 79.2921802,155.936493 78.4798031,156.028275 C77.6674261,156.120056 77.8866541,156.359279 79.1374873,156.745941 L82.0073075,157 Z" id="Path-28" fill="#9A6F53"></path>
            <path d="M95.241587,127.69328 C99.7247611,125.537943 98.1403728,127.399365 100.830949,125.981975 C102.624667,125.037049 106.347684,124.774079 112,125.193065 C106.269447,125.957378 101.76418,126.889318 98.4841976,127.988887 C95.2042155,129.088456 94.1233454,132.09216 95.241587,137 C92.2528043,132.232412 92.2528043,129.130172 95.241587,127.69328 Z" id="Path-30" fill="url(#linearGradient-7)" opacity="0.482933408"></path>
            <path d="" id="Path-31" stroke="#FF443B"></path>
            <path d="M41,88.4545455 C44.4353566,73.4848485 59.4608624,66 86.0765174,66 C112.692172,66 126,73.4848485 126,88.4545455 C122.45835,90.030303 118.9167,90.8181818 115.37505,90.8181818 C111.8334,90.8181818 108.29175,90.030303 104.7501,88.4545455 C101.20845,90.030303 97.6667997,90.8181818 94.1251496,90.8181818 C90.5834996,90.8181818 87.0418496,90.030303 83.5001995,88.4545455 C79.9585495,90.8181818 76.4168994,92 72.8752494,92 C69.3335994,92 65.7919493,90.8181818 62.2502993,88.4545455 C58.7086492,90.8181818 55.1669992,92 51.6253492,92 C48.0836991,92 44.5419161,90.8181818 41,88.4545455 Z" id="Path-32" fill="#000000"></path>
            <path d="M59,161 C66.7609161,166.967861 74.6413741,169.951792 82.6413741,169.951792 C90.6413741,169.951792 98.7609161,166.967861 107,161 C102.921056,166.129902 100.881584,172.823293 100.881584,181.080172 C100.881584,189.337051 102.921056,197.64366 107,206 L59,206 C63.0789442,198.5 65.1184163,191 65.1184163,183.5 C65.1184163,176 63.0789442,168.5 59,161 Z" id="Path-34" fill="url(#linearGradient-8)"></path>
            <path d="M10,223.367016 C11.1706221,213.182426 18.8361032,205.899515 32.9964434,201.518283 C47.1567836,197.137051 63.9651958,196.8477 83.42168,200.65023 C106.166239,197.941411 123.151997,198.230762 134.378953,201.518283 C145.60591,204.805804 154.479592,212.088715 161,223.367016 L161,350 L11.0268639,350 L10,223.367016 Z" id="Path-35" fill="#005191"></path>
            <polyline id="Path-36" fill="#FFFFFF" points="62 189 83.2720354 253 105 189 82.2123338 195.782169"></polyline>
            <ellipse id="Oval" stroke="#979797" stroke-width="0.2" fill="#D8D8D8" cx="85" cy="198.5" rx="1" ry="2.5"></ellipse>
            <path d="M62,189 C63.130926,199.666667 66.6762653,210.333333 72.6360177,221 C78.5957702,231.666667 82.1411094,242.333333 83.2720354,253 C84.4789497,242.333333 88.1002771,231.666667 94.1360177,221 C100.171758,210.333333 103.793086,199.666667 105,189" id="Path-36-Copy" stroke="#87A3B9" stroke-width="4"></path>
            <rect id="Rectangle" fill="url(#radialGradient-9)" x="0" y="266" width="165" height="84" rx="19"></rect>
            <g id="Apple_logo_grey" transform="translate(72.000000, 295.000000)" fill-rule="nonzero">
                <g id="g186" transform="translate(10.500000, 16.000000) scale(-1, 1) rotate(-180.000000) translate(-10.500000, -16.000000) translate(0.000000, 6.000000)" fill="#615E5E" fill-opacity="0.85">
                    <path d="M17.534878,12.058 C17.5059024,15.2813684 20.174878,16.8288421 20.2956098,16.9042895 C18.7937073,19.0954737 16.4563415,19.3956579 15.6224878,19.4309737 C13.634439,19.6316316 11.7413659,18.2639474 10.7336585,18.2639474 C9.72595122,18.2639474 8.16770732,19.4020789 6.51931707,19.3699737 C4.34936585,19.3378684 2.35165854,18.1130526 1.2344878,16.1771053 C-1.01756098,12.2811316 0.659804878,6.507 2.85229268,3.34463158 C3.926,1.79876316 5.20414634,0.0570526316 6.88473171,0.121263158 C8.50414634,0.185473684 9.11585366,1.16468421 11.0700976,1.16468421 C13.0243415,1.16468421 13.574878,0.121263158 15.2860488,0.151763158 C17.0261951,0.185473684 18.1304878,1.73134211 19.1961463,3.28202632 C20.426,5.07671053 20.9346829,6.81360526 20.9636585,6.90510526 C20.9250244,6.92115789 17.5702927,8.20376316 17.534878,12.058" id="path188"></path>
                </g>
                <path d="M14.5758307,4.04670192 C15.452988,2.97512965 16.0451503,1.48512933 15.8820507,0 C14.6184523,0.051158547 13.089038,0.849608632 12.1817583,1.9211809 C11.369528,2.86822981 10.657032,4.38531321 10.8501096,5.84020627 C12.2593317,5.95039906 13.698529,5.11669904 14.5758307,4.04670192" id="path190" fill="#767474"></path>
            </g>
        </g>
        <g id="Message-2" transform="translate(93.000000, 527.000000)">
            <path d="M0,0 L418,0 L418,28 C418,62.7939392 389.793939,91 355,91 L0,91 L0,0 Z" id="Rectangle" fill="#FFB351"></path>
            <text id="Please-scroll-down." font-family="Avenir-Black, Avenir" font-size="35" font-weight="700" fill="#005191">
                <tspan x="40" y="55">Please scroll down.</tspan>
            </text>
        </g>
        <rect id="Rectangle" fill="url(#radialGradient-10)" x="0" y="719" width="1138" height="40"></rect>
        <g id="Message" transform="translate(93.000000, 103.000000)">
            <path d="M2,2 L2,355 L405,355 C459.123905,355 503,311.123905 503,257 L503,2 L2,2 Z" id="Rectangle" stroke="#005191" stroke-width="4"></path>
            <text id="Welcome-to-United-Wa" font-family="Avenir-Black, Avenir" font-size="35" font-weight="700" fill="#005191">
                <tspan x="24" y="70">Welcome to United-Way </tspan>
                <tspan x="24" y="118">Fairs! Here, you can </tspan>
                <tspan x="24" y="166">register for a fair, learn </tspan>
                <tspan x="24" y="214">about the Find Your Future </tspan>
                <tspan x="24" y="262">(FYF) App, or get links to </tspan>
                <tspan x="24" y="310">other useful resources.</tspan>
            </text>
        </g>
    </g>
</svg>