<?xml version="1.0" encoding="UTF-8"?>
<svg width="720px" height="840px" viewBox="0 0 720 840" version="1.1" xmlns="http://www.w3.org/2000/svg" xmlns:xlink="http://www.w3.org/1999/xlink">
    <!-- Generator: Sketch 56.3 (81716) - https://sketch.com -->
    <title>Fair-Illustration</title>
    <desc>Created with Sketch.</desc>
    <g id="Fair-Illustration" stroke="none" stroke-width="1" fill="none" fill-rule="evenodd">
        <path d="M104.122476,402.493127 L605.977644,402.493127" id="Path-10" stroke="#979797" stroke-width="11"></path>
        <path d="M104,577 L104,397" id="Path-10-Copy" stroke="#979797" stroke-width="11"></path>
        <path d="M606,577 L606,397" id="Path-10-Copy-2" stroke="#979797" stroke-width="11"></path>
        <circle id="Oval" stroke="#979797" fill="#D8D8D8" cx="359.5" cy="250.5" r="32.5"></circle>
        <polygon id="Path-11" stroke="#979797" points="359.5 283 352 302.3838 368 302.3838 360 283"></polygon>
        <path d="M352,302.3838 L327,315.581311 L293.234071,315.581311 L276.423551,277.182929 L270.052893,214.551573 L283.161297,194.728854 L244.882674,194.728854 L244.882674,222.742048 L261.310486,222.742048 L261.310486,262.856108 L261.310486,292.6919 L283.161297,327.533781 C301.791098,330.01492 314.517306,336.661001 321.33992,347.472024 C328.162534,358.283047 330.049228,374.792372 327,397 L401.657626,397 C397.452176,380.415245 395.349451,368.249871 395.349451,360.503875 C395.349451,352.75788 397.452176,346.551266 401.657626,341.884034 L415.114893,382.339146 L395.349451,389.553325 L392,397 L430.631495,397 L439.813887,374.323103 L435.88527,341.884034 L401.657626,315.581311 L363.73828,298.859309" id="Path-12" stroke="#979797"></path>
        <rect id="Rectangle" stroke="#979797" fill="#005191" x="104.5" y="400.5" width="501" height="176"></rect>
    </g>
</svg>