<?xml version="1.0" encoding="UTF-8"?>
<svg width="720px" height="840px" viewBox="0 0 720 840" version="1.1" xmlns="http://www.w3.org/2000/svg" xmlns:xlink="http://www.w3.org/1999/xlink">
    <!-- Generator: Sketch 56.3 (81716) - https://sketch.com -->
    <title>Fair-Illustration</title>
    <desc>Created with Sketch.</desc>
    <g id="Fair-Illustration" stroke="none" stroke-width="1" fill="none" fill-rule="evenodd">
        <path d="M104.122476,402.493127 L605.977644,402.493127" id="Path-10" stroke="#979797" stroke-width="11"></path>
        <path d="M104,577 L104,397" id="Path-10-Copy" stroke="#979797" stroke-width="11"></path>
        <path d="M606,577 L606,397" id="Path-10-Copy-2" stroke="#979797" stroke-width="11"></path>
        <circle id="Oval" stroke="#979797" fill="#D8D8D8" cx="359.5" cy="250.5" r="32.5"></circle>
        <path d="M355.05006,283 C355.05006,292.6919 355.05006,292.6919 352,302.3838 C348.94994,312.0757 338.556559,302.3838 330.482681,309.931442 C328.50444,311.780746 321.33145,319.532882 317.45307,320.531623 C310.778787,322.250352 261.310486,309.931442 280.471258,273.785172 C299.4536,225.546034 313.896467,204.142841 323.799859,209.575592 L302.092419,200.838729 C277.268347,243.247477 263.932472,270.634567 262.084795,283 C260.237118,295.365433 267.262619,310.210026 283.161297,327.533781 C301.791098,330.01492 314.517306,336.661001 321.33992,347.472024 C328.162534,358.283047 330.049228,374.792372 327,397 L401.657626,397 C397.452176,380.415245 395.349451,368.249871 395.349451,360.503875 C395.349451,352.75788 397.118842,344.699751 400.657626,336.32949 L415.114893,382.339146 L395.349451,389.553325 L392,397 L430.631495,397 L439.813887,374.323103 C426.907901,343.332666 416.336408,323.752068 408.099408,315.581311 C395.743907,303.325176 380.203634,303.740905 374.43491,302.3838 C368.666187,301.026695 363.142985,288.744786 363.142985,283" id="Path-12" stroke="#979797" fill="#D8D8D8"></path>
        <rect id="Rectangle" stroke="#979797" fill="#005191" x="104.5" y="400.5" width="501" height="176"></rect>
    </g>
</svg>