<?xml version="1.0" encoding="UTF-8"?>
<svg width="1138px" height="759px" viewBox="0 0 1138 759" version="1.1" xmlns="http://www.w3.org/2000/svg" xmlns:xlink="http://www.w3.org/1999/xlink">
    <!-- Generator: Sketch 56.3 (81716) - https://sketch.com -->
    <title>FYF-App-Illustration</title>
    <desc>Created with Sketch.</desc>
    <defs>
        <radialGradient cx="50%" cy="0%" fx="50%" fy="0%" r="100%" gradientTransform="translate(0.500000,0.000000),scale(0.126761,1.000000),rotate(90.000000),scale(1.000000,8.083752),translate(-0.500000,-0.000000)" id="radialGradient-1">
            <stop stop-color="#000000" offset="0%"></stop>
            <stop stop-color="#FFFFFF" offset="100%"></stop>
        </radialGradient>
    </defs>
    <g id="FYF-App-Illustration" stroke="none" stroke-width="1" fill="none" fill-rule="evenodd">
        <rect id="Rectangle" fill="#005191" x="0" y="0" width="1138" height="759"></rect>
        <rect id="Rectangle" x="0" y="0" width="1138" height="759"></rect>
        <rect id="Rectangle" stroke="#979797" stroke-width="3" fill="#000000" x="421.5" y="64.5" width="294" height="526" rx="18"></rect>
        <rect id="Rectangle" x="420" y="523" width="99" height="59"></rect>
        <rect id="Rectangle-Copy" x="519" y="523" width="99" height="59"></rect>
        <rect id="Rectangle-Copy-2" x="618" y="523" width="99" height="59"></rect>
        <g id="Group" transform="translate(463.000000, 544.000000)" stroke="#979797" stroke-linecap="square" stroke-width="3">
            <path d="M0.5,0 L0.5,18.6041667" id="Line"></path>
            <path d="M6.5,0 L6.5,18.6041667" id="Line-Copy"></path>
            <path d="M12.5,0 L12.5,18.6041667" id="Line-Copy-2"></path>
        </g>
        <rect id="Rectangle" stroke="#979797" stroke-width="2" x="559" y="540" width="20" height="26" rx="9"></rect>
        <g id="Group-2" transform="translate(662.000000, 546.000000)" stroke="#979797" stroke-linecap="square" stroke-width="3">
            <path d="M0.227272727,5.75 L9.77272727,0" id="Line-2"></path>
            <path d="M0.227272727,13.75 L9.58333333,6.75" id="Line-2-Copy" transform="translate(5.000000, 10.000000) scale(-1, 1) translate(-5.000000, -10.000000) "></path>
        </g>
        <g id="Group-5" transform="translate(455.000000, 207.000000)" fill="#D8D8D8" stroke="#979797">
            <rect id="Rectangle" x="0.5" y="0.5" width="49" height="61"></rect>
            <rect id="Rectangle-Copy-3" x="177.5" y="0.5" width="49" height="61"></rect>
            <rect id="Rectangle-Copy-4" x="88.5" y="0.5" width="49" height="61"></rect>
        </g>
        <g id="Group-4" transform="translate(455.000000, 296.000000)" fill="#D8D8D8" stroke="#979797">
            <rect id="Rectangle-Copy-5" x="0.5" y="0.5" width="49" height="61"></rect>
            <rect id="Rectangle-Copy-6" x="177.5" y="0.5" width="49" height="61"></rect>
            <rect id="Rectangle-Copy-7" x="88.5" y="0.5" width="49" height="61"></rect>
        </g>
        <g id="Group-3" transform="translate(455.000000, 385.000000)" fill="#D8D8D8" stroke="#979797">
            <rect id="Rectangle-Copy-8" x="0.5" y="0.5" width="49" height="61"></rect>
            <rect id="Rectangle-Copy-9" x="177.5" y="0.5" width="49" height="61"></rect>
            <rect id="Rectangle-Copy-10" x="88.5" y="0.5" width="49" height="61"></rect>
        </g>
        <ellipse id="Oval" fill="url(#radialGradient-1)" cx="569" cy="678" rx="142" ry="18"></ellipse>
    </g>
</svg>