<?xml version="1.0" encoding="UTF-8"?>
<svg width="152px" height="172px" viewBox="0 0 152 172" version="1.1" xmlns="http://www.w3.org/2000/svg" xmlns:xlink="http://www.w3.org/1999/xlink">
    <!-- Generator: Sketch 56.3 (81716) - https://sketch.com -->
    <title>my-events-icon</title>
    <desc>Created with Sketch.</desc>
    <defs>
        <circle id="path-1" cx="108.5" cy="117.5" r="38.5"></circle>
        <filter x="-16.2%" y="-17.5%" width="132.5%" height="132.5%" filterUnits="objectBoundingBox" id="filter-2">
            <feMorphology radius="4.5" operator="dilate" in="SourceAlpha" result="shadowSpreadOuter1"></feMorphology>
            <feOffset dx="0" dy="-1" in="shadowSpreadOuter1" result="shadowOffsetOuter1"></feOffset>
            <feGaussianBlur stdDeviation="2.5" in="shadowOffsetOuter1" result="shadowBlurOuter1"></feGaussianBlur>
            <feComposite in="shadowBlurOuter1" in2="SourceAlpha" operator="out" result="shadowBlurOuter1"></feComposite>
            <feColorMatrix values="0 0 0 0 0   0 0 0 0 0   0 0 0 0 0  0 0 0 0.5 0" type="matrix" in="shadowBlurOuter1"></feColorMatrix>
        </filter>
    </defs>
    <g id="my-events-icon" stroke="none" stroke-width="1" fill="none" fill-rule="evenodd">
        <g id="Group" transform="translate(6.000000, 16.000000)" fill="#005191">
            <path d="M26,4.94117647 C27.0812155,1.64705882 29.2478822,0 32.5,0 C35.7521178,0 37.9187845,1.64705882 39,4.94117647 L39,14 L26,14 L26,4.94117647 Z" id="Rectangle-Copy"></path>
            <path d="M86,4.94117647 C87.0812155,1.64705882 89.2478822,0 92.5,0 C95.7521178,0 97.9187845,1.64705882 99,4.94117647 L99,14 L86,14 L86,4.94117647 Z" id="Rectangle-Copy-2"></path>
            <path d="M10.457945,14 L115.034231,14 C119.255896,14.8153 121.99721,16.484821 123.258174,19.0085632 C124.519137,21.5323054 125.095462,24.7559258 124.987148,28.6794245 L124.987148,113.57359 C124.669545,116.863719 123.824242,119.507981 122.451239,121.506376 C121.078236,123.504771 118.6059,125.002646 115.034231,126 L10.0904638,126 C6.93634824,125.320225 4.50534127,123.568011 2.79744287,120.743359 C1.08954448,117.918706 0.164662038,115.416776 0.0227955571,113.237569 L0.0227955571,29.0740014 C-0.160752,25.7027514 0.764130439,22.3476053 2.79744287,19.0085632 C4.83075531,15.6695211 7.38425601,14 10.457945,14 Z M20.1981369,29.7401194 C16.8844284,29.7401194 14.1981369,32.4264109 14.1981369,35.7401194 L14.1981369,104.097571 C14.1981369,107.41128 16.8844284,110.097571 20.1981369,110.097571 L105.079542,110.097571 C108.39325,110.097571 111.079542,107.41128 111.079542,104.097571 L111.079542,35.7401194 C111.079542,32.4264109 108.39325,29.7401194 105.079542,29.7401194 L20.1981369,29.7401194 Z" id="Combined-Shape"></path>
        </g>
        <g id="Oval">
            <use fill="black" fill-opacity="1" filter="url(#filter-2)" xlink:href="#path-1"></use>
            <use stroke="#005191" stroke-width="9" fill="#C5E2ED" fill-rule="evenodd" xlink:href="#path-1"></use>
        </g>
        <path d="M103.5,104 L103.5,124" id="Line-2" stroke="#005191" stroke-width="6" stroke-linecap="square"></path>
        <path d="M113.5,114 L113.5,134" id="Line-2-Copy" stroke="#005191" stroke-width="6" stroke-linecap="square" transform="translate(113.500000, 124.000000) scale(1, -1) rotate(90.000000) translate(-113.500000, -124.000000) "></path>
    </g>
</svg>