<?xml version="1.0" encoding="UTF-8"?>
<svg width="1138px" height="759px" viewBox="0 0 1138 759" version="1.1" xmlns="http://www.w3.org/2000/svg" xmlns:xlink="http://www.w3.org/1999/xlink">
    <!-- Generator: Sketch 56.3 (81716) - https://sketch.com -->
    <title>Resources-Illustration-2</title>
    <desc>Created with Sketch.</desc>
    <defs>
        <linearGradient x1="50%" y1="0%" x2="50%" y2="100%" id="linearGradient-1">
            <stop stop-color="#6EACF2" offset="0%"></stop>
            <stop stop-color="#CEF4FF" stop-opacity="0.328015734" offset="100%"></stop>
        </linearGradient>
        <linearGradient x1="50%" y1="0%" x2="50%" y2="100%" id="linearGradient-2">
            <stop stop-color="#130513" offset="0%"></stop>
            <stop stop-color="#171418" offset="100%"></stop>
        </linearGradient>
        <linearGradient x1="50%" y1="0%" x2="50%" y2="100%" id="linearGradient-3">
            <stop stop-color="#C8C8C8" offset="0%"></stop>
            <stop stop-color="#979797" offset="100%"></stop>
        </linearGradient>
        <linearGradient x1="93.1962075%" y1="50%" x2="-1.11022302e-14%" y2="50%" id="linearGradient-4">
            <stop stop-color="#201F1F" stop-opacity="0" offset="0%"></stop>
            <stop stop-color="#0C0A0A" stop-opacity="0.164171766" offset="100%"></stop>
        </linearGradient>
        <linearGradient x1="93.1962075%" y1="50%" x2="-1.11022302e-14%" y2="50%" id="linearGradient-5">
            <stop stop-color="#201F1F" stop-opacity="0" offset="0%"></stop>
            <stop stop-color="#0C0A0A" stop-opacity="0.164171766" offset="100%"></stop>
        </linearGradient>
        <linearGradient x1="50%" y1="0%" x2="50%" y2="100%" id="linearGradient-6">
            <stop stop-color="#005191" offset="0%"></stop>
            <stop stop-color="#282E47" offset="100%"></stop>
        </linearGradient>
        <linearGradient x1="50%" y1="100%" x2="50%" y2="3.061617e-15%" id="linearGradient-7">
            <stop stop-color="#FF9000" offset="0%"></stop>
            <stop stop-color="#FFB351" offset="100%"></stop>
        </linearGradient>
    </defs>
    <g id="Resources-Illustration-2" stroke="none" stroke-width="1" fill="none" fill-rule="evenodd">
        <rect id="Resources-Background-Day" fill="url(#linearGradient-1)" x="0" y="0" width="1138" height="759"></rect>
        <rect id="Resources-Background-Night" fill="url(#linearGradient-2)" x="0" y="0" width="1138" height="759"></rect>
        <path d="M732,421 L732,427.869053 C732,428.421338 732.447715,428.869053 733,428.869053 L740.565144,428.869053 C741.117429,428.869053 741.565144,428.421338 741.565144,427.869053 L741.565144,421 C741.565144,420.447715 741.117429,420 740.565144,420 L733,420 C732.447715,420 732,420.447715 732,421 Z" id="GN-Logo-Backgroubd" stroke="url(#linearGradient-3)" fill="#D8D8D8"></path>
        <path d="M732,426 L732,432.869053 C732,433.421338 732.447715,433.869053 733,433.869053 L740.565144,433.869053 C741.117429,433.869053 741.565144,433.421338 741.565144,432.869053 L741.565144,426 C741.565144,425.447715 741.117429,425 740.565144,425 L733,425 C732.447715,425 732,425.447715 732,426 Z" id="GM-Logo" stroke="url(#linearGradient-3)" fill="#D8D8D8"></path>
        <path d="M601,519 C613.754824,517.429829 622.70548,516.644743 627.851968,516.644743 C632.998456,516.644743 641.580076,516.644743 653.596828,516.644743 L653.596828,648.632737 L601,648.851693 L601,519 Z" id="Shadow-1" fill="url(#linearGradient-4)"></path>
        <path d="M759,508.547534 C764.820042,506.849178 768.904238,506 771.252587,506 C773.600936,506 777.51674,506 783,506 L783,648.763169 L759,649 L759,508.547534 Z" id="Shadow-2" fill="url(#linearGradient-5)"></path>
        <path d="M685,428.008358 C687.182516,425.336119 688.714089,424 689.59472,424 C690.475351,424 691.943778,424 694,424 L694,648.627364 L685,649 L685,428.008358 Z" id="Circular-Column-1"></path>
        <path d="M1,726.578131 L56.3713904,726.578131 L56.3713904,720.517355 L128.59162,720.517355 L128.59162,717.753547 L134.592335,717.753547 L134.592335,700.932541 L136.599106,700.932541 L136.599106,695.880261 L149.720525,695.880261 L149.720525,700.932541 L172.083084,700.932541 L172.083084,713.037432 L186.644911,713.037432 L186.644911,706.244541 L208.809537,706.244541 L208.809537,713.037432 L232.724208,713.037432 L232.724208,716.016182 L238.84302,716.016182 L238.84302,720.517355 L246.790014,720.517355 L246.790014,728.134007 L256.948146,728.134007 L256.948146,695.880261 L263.297696,695.880261 L263.297696,679.248894 L273.321367,679.248894 L273.321367,671.868078 L305.927603,671.868078 L305.927603,679.248894 L314.915809,679.248894 L314.915809,695.880261 L320.435608,695.880261 L320.435608,663.628601 L322.415748,663.628601 L322.415748,629.853411 L325.293445,629.853411 L325.293445,626.304964 L327.73558,626.304964 L327.73558,618.555166 L346.881918,604.310801 L357.936457,604.310801 L378.251571,620.140299 L378.251571,627.830789 L383.619371,627.830789 L383.619371,647.05219 L417.785662,647.05219 L417.785662,622.564384 L433.608561,622.564384 L433.608561,602.055475 L463.444962,602.055475 L463.444962,622.564384 L469.580524,622.564384 L469.580524,612.721411 L489.219533,612.721411 L489.219533,622.564384 L505.680001,622.564384 L505.680001,609.367185 L508.833412,609.367185 L508.833412,602.055475 L510.609299,602.055475 L510.609299,592.550438 L515.244478,592.550438 L515.244478,584.913825 L520.475342,584.913825 L520.475342,581.502811 L523.652021,581.502811 L523.652021,569.623842 L525.06119,569.623842 L525.06119,560.574041 L526.377283,560.574041 L527.901866,560.574041 L527.901866,569.623842 L529.768968,569.623842 L529.768968,581.502811 L532.660835,581.502811 L532.660835,584.913825 L538.208157,584.913825 L538.208157,592.550438 L542.821928,592.550438 L542.821928,602.055475 L545.129279,602.055475 L545.129279,609.367185 L547.888048,609.367185 L547.888048,622.564384 L550.703593,622.564384 L550.703593,620.140299 L553.918434,620.140299 L553.918434,622.564384 L556.017201,622.564384 L556.017201,639.680899 L582.547426,636.031396 L582.547426,544.423093 L582.547426,506.225349 C584.164283,504.867339 587.267157,504.188335 591.856048,504.188335 C596.444939,504.188335 599.547813,504.867339 601.16467,506.225349 L601.16467,518.781044 C636.518876,515.801443 654.19598,515.801443 654.19598,518.781044 C654.19598,521.760645 654.19598,564.517693 654.19598,647.05219 L660.353654,647.05219 L660.353654,536.02996 L666.419099,531.867887 L685.719405,531.867887 L685.719405,424.025946 C686.452907,422.97165 687.585139,422.033226 689.1161,421.210676 C690.647061,420.388126 691.927367,419.97685 692.957019,419.97685 L692.957019,411.627123 C692.957019,409.833717 695.130795,408.937014 699.478346,408.937014 C703.825897,408.937014 705.799007,409.833717 705.397676,411.627123 L705.397676,415.901169 C709.614986,414.891625 716.697225,414.386852 726.644393,414.386852 C736.59156,414.386852 743.673799,416.658318 747.89111,421.20125 L747.89111,501.123143 C750.261016,500.07505 752.038445,499.551003 753.223398,499.551003 C754.408351,499.551003 756.18578,500.07505 758.555686,501.123143 L758.555686,506.225349 L782.223882,506.225349 L782.223882,526.374224 L792.799192,521.202275 L805.238044,521.202275 L805.238044,515.634176 L827.556552,515.634176 L827.556552,518.781044 L845.112108,518.781044 L853.314405,521.202275 L853.314405,668.656153 L856.262899,668.656153 L856.262899,644.789004 L860.905676,644.789004 L860.905676,639.680899 L866.162865,639.680899 L866.162865,636.031396 L876.223627,636.031396 L876.223627,622.564384 L906.067395,622.564384 L906.067395,618.555166 L921.591841,614.891583 L930.339152,614.891583 L930.339152,602.055475 L961.481138,602.055475 L961.481138,614.891583 L988.550749,614.891583 L988.550749,706.244541 L996.03708,706.244541 L996.03708,612.721411 L1020.66597,606.911037 L1020.66597,595.751139 L1054.55165,595.751139 L1054.55165,606.911037 L1079.36165,606.911037 L1079.36165,720.517355 L1104.56095,720.517355 L1104.56095,713.037432 L1107.61946,713.037432 L1107.61946,706.244541 L1118.5079,706.244541 L1118.5079,713.037432 L1127.41093,713.037432 L1130.48129,708.421755 L1138,708.421755 L1138,765 L1,765" id="Skyline" fill="url(#linearGradient-6)"></path>
        <path d="M193.17767,237.117714 C209.881924,272.970497 267.722195,301.155722 366.698485,321.673389 L358,256.21304 C277.333333,283.09925 237,272.717298 237,225.067182 C237,177.417067 262.888246,119.137043 314.664737,50.2271099 C216.969105,138.968062 176.473416,201.26493 193.17767,237.117714 Z" id="Moon" fill="#F7B500"></path>
        <g id="Sun" transform="translate(140.000000, 372.000000)">
            <polygon id="Triangle-Copy-6" fill="#ECC1A3" points="140 0 161 42 119 42"></polygon>
            <polygon id="Triangle-Copy-7" fill="#ECC1A3" transform="translate(219.000000, 53.000000) scale(1, -1) rotate(135.000000) translate(-219.000000, -53.000000) " points="219 32 240 74 198 74"></polygon>
            <polygon id="Triangle-Copy-8" fill="#ECC1A3" transform="translate(256.000000, 140.000000) scale(1, -1) rotate(90.000000) translate(-256.000000, -140.000000) " points="256 119 277 161 235 161"></polygon>
            <polygon id="Triangle-Copy-9" fill="#ECC1A3" transform="translate(222.000000, 222.000000) rotate(135.000000) translate(-222.000000, -222.000000) " points="222 201 243 243 201 243"></polygon>
            <polygon id="Triangle-Copy-10" fill="#ECC1A3" transform="translate(140.000000, 256.000000) scale(1, -1) translate(-140.000000, -256.000000) " points="140 235 161 277 119 277"></polygon>
            <polygon id="Triangle-Copy-11" fill="#ECC1A3" transform="translate(54.000000, 218.000000) scale(-1, 1) rotate(135.000000) translate(-54.000000, -218.000000) " points="54 197 75 239 33 239"></polygon>
            <polygon id="Triangle-Copy-12" fill="#ECC1A3" transform="translate(21.000000, 139.000000) scale(-1, 1) rotate(90.000000) translate(-21.000000, -139.000000) " points="21 118 42 160 0 160"></polygon>
            <polygon id="Triangle-Copy-13" fill="#ECC1A3" transform="translate(55.000000, 56.000000) scale(-1, -1) rotate(135.000000) translate(-55.000000, -56.000000) " points="55 35 76 77 34 77"></polygon>
            <polygon id="Triangle" fill="#FF8330" points="140.5 14 153 39 128 39"></polygon>
            <polygon id="Triangle-Copy" fill="#FF8330" transform="translate(140.500000, 251.500000) scale(1, -1) translate(-140.500000, -251.500000) " points="140.5 239 153 264 128 264"></polygon>
            <polygon id="Triangle-Copy-2" fill="#FF8330" transform="translate(251.500000, 139.500000) rotate(90.000000) translate(-251.500000, -139.500000) " points="251.5 127 264 152 239 152"></polygon>
            <polygon id="Triangle-Copy-4" fill="#FF8330" transform="translate(217.500000, 217.500000) rotate(135.000000) translate(-217.500000, -217.500000) " points="217.5 205 230 230 205 230"></polygon>
            <polygon id="Triangle-Copy-5" fill="#FF8330" transform="translate(59.743380, 59.243380) scale(-1, -1) rotate(135.000000) translate(-59.743380, -59.243380) " points="59.7433803 46.7433803 72.2433803 71.7433803 47.2433803 71.7433803"></polygon>
            <polygon id="Triangle-Copy-4" fill="#FF8330" transform="translate(57.500000, 215.500000) scale(-1, 1) rotate(135.000000) translate(-57.500000, -215.500000) " points="57.5 203 70 228 45 228"></polygon>
            <polygon id="Triangle-Copy-5" fill="#FF8330" transform="translate(214.342406, 59.450487) scale(1, -1) rotate(135.000000) translate(-214.342406, -59.450487) " points="214.342406 46.9504871 226.842406 71.9504871 201.842406 71.9504871"></polygon>
            <polygon id="Triangle-Copy-3" fill="#FF8330" transform="translate(25.500000, 139.500000) scale(-1, 1) rotate(90.000000) translate(-25.500000, -139.500000) " points="25.5 127 38 152 13 152"></polygon>
            <circle id="Oval" stroke="#FF8330" stroke-width="8" fill="url(#linearGradient-7)" cx="139" cy="139" r="101"></circle>
            <path d="" id="Path-15" stroke="#979797"></path>
        </g>
    </g>
</svg>