<?xml version="1.0" encoding="UTF-8"?>
<svg width="90px" height="60px" viewBox="0 0 90 60" version="1.1" xmlns="http://www.w3.org/2000/svg" xmlns:xlink="http://www.w3.org/1999/xlink">
    <!-- Generator: Sketch 56.3 (81716) - https://sketch.com -->
    <title>Shape Copy 2</title>
    <desc>Created with Sketch.</desc>
    <g id="Images" stroke="none" stroke-width="1" fill="none" fill-rule="evenodd">
        <g id="Artboard" transform="translate(-229.000000, -1535.000000)" fill="#005191" fill-rule="nonzero">
            <path d="M271.694201,1535 C270.39916,1535 269.399853,1536.07814 269.399853,1537.44297 C269.399853,1538.78791 270.423919,1539.89829 271.694201,1539.89829 C272.940411,1539.89829 273.937655,1538.78791 273.937655,1537.44297 C273.937655,1536.10009 272.940411,1535 271.694201,1535 L271.694201,1535 Z M311.193989,1535.08573 C310.733194,1535.08573 310.643786,1535.13031 310.643786,1535.67075 C310.643786,1537.46149 311.132092,1538.05954 312.617641,1538.08904 L312.720804,1538.08904 L312.720804,1542.00177 L312.411314,1541.79121 C311.840478,1541.39068 311.070194,1540.85504 309.412706,1540.85504 C305.54065,1540.85504 303.477387,1544.23761 303.477387,1550.64407 C303.477387,1556.05057 305.354956,1559.0381 308.75934,1559.0381 C311.455336,1559.0381 313.229742,1557.06767 313.229742,1557.06767 L313.442946,1557.80015 C313.601129,1558.3742 313.635517,1558.43936 314.096312,1558.43936 L318.470429,1558.43936 C318.917469,1558.43936 319,1558.39409 319,1557.8413 C319,1556.02313 318.518572,1555.42508 316.840452,1555.42508 C316.634125,1554.75775 316.503452,1554.06094 316.503452,1552.39091 L316.503452,1535.4458 C316.503452,1535.12962 316.475942,1535.08573 316.159575,1535.08573 L311.193989,1535.08573 L311.193989,1535.08573 Z M229.550685,1536.19337 C229.077166,1536.19337 229,1536.25029 229,1536.80788 C229,1538.71864 229.489887,1539.30092 231.157485,1539.30092 L231.253771,1539.30092 L231.253771,1550.45821 C231.253771,1556.4655 233.488284,1559.0381 238.715904,1559.0381 C243.944899,1559.0381 246.185603,1556.4655 246.185603,1550.45821 L246.185603,1539.30092 L246.286703,1539.30092 C247.924245,1539.30092 248.440061,1538.69738 248.440061,1536.80788 C248.440061,1536.25029 248.36991,1536.19337 247.894672,1536.19337 L240.471741,1536.19337 C240.050147,1536.19337 239.989625,1536.26332 239.944921,1536.51777 L239.927727,1536.80788 C239.927727,1538.69258 240.440104,1539.28926 242.048761,1539.30092 L242.1533,1539.30092 L242.1533,1550.45821 C242.1533,1552.59804 242.1533,1555.50532 238.715904,1555.50532 C235.535041,1555.50532 235.281259,1553.22009 235.281259,1550.45821 L235.281259,1539.30092 L235.389925,1539.30092 C236.986202,1539.28926 237.505457,1538.69258 237.505457,1536.80788 L237.481385,1536.45604 C237.436681,1536.25509 237.370657,1536.19337 236.961443,1536.19337 L229.550891,1536.19337 L229.550685,1536.19337 Z M282.908034,1536.19337 C282.742972,1536.19337 281.974751,1536.29487 281.584794,1536.34974 C280.50502,1536.53217 279.349593,1537.36547 279.349593,1539.28926 L279.349593,1541.44829 L277.192108,1541.44829 C276.735439,1541.44829 276.656348,1541.48601 276.656348,1542.04566 C276.656348,1543.89538 277.152906,1544.45983 278.743682,1544.45983 L279.349593,1544.45983 L279.349593,1552.42177 C279.349593,1555.67061 279.350281,1559.0381 283.298678,1559.0381 C285.496053,1559.0381 287.286965,1558.46748 287.286965,1557.99013 C287.286965,1557.90714 287.156291,1557.26039 287.079951,1556.94285 C286.771837,1555.66375 286.650104,1555.19395 284.317242,1555.48406 C284.022195,1555.51835 283.758098,1555.45251 283.573092,1555.26939 C283.123988,1554.81331 283.122613,1553.81129 283.122613,1553.00611 L283.122613,1544.45983 L285.216824,1544.45983 C286.825482,1544.45983 287.305534,1543.89538 287.305534,1542.04566 C287.305534,1541.48601 287.236071,1541.44829 286.771149,1541.44829 L283.122613,1541.44829 L283.122613,1536.67826 C283.122613,1536.22011 283.083411,1536.19885 282.908034,1536.19337 L282.908034,1536.19337 Z M259.415725,1540.85504 C256.959754,1540.85504 255.604878,1542.28159 254.551239,1543.36385 C254.45908,1542.96881 254.380676,1542.65812 254.380676,1542.65812 C254.216303,1541.91124 254.074625,1541.44829 253.592509,1541.44829 L249.429533,1541.44829 C248.964611,1541.44829 248.899275,1541.48601 248.899275,1542.04566 C248.899275,1543.79525 249.339437,1544.41799 250.81467,1544.45571 C251.023747,1545.19231 251.158547,1545.79036 251.158547,1547.54338 L251.158547,1555.42508 C249.588404,1555.43537 249.109727,1556.00942 249.109727,1557.8413 C249.109727,1558.39409 249.190882,1558.43936 249.649614,1558.43936 L254.607635,1558.43936 C254.911622,1558.43936 254.930191,1558.39478 254.930191,1558.07312 L254.930191,1545.76979 C255.385485,1545.2993 256.415741,1544.27328 257.736229,1544.27328 C259.615173,1544.27328 259.615861,1546.41174 259.615861,1547.32871 L259.615861,1558.07312 C259.615861,1558.39478 259.626865,1558.43936 259.947359,1558.43936 L264.884058,1558.43936 C265.337976,1558.43936 265.419819,1558.39409 265.419819,1557.8413 C265.419819,1556.03342 264.91432,1555.44291 263.38613,1555.42508 L263.38613,1546.24645 C263.38613,1542.52301 262.160552,1540.85504 259.415725,1540.85504 L259.415725,1540.85504 Z M295.438916,1540.85504 C291.384604,1540.85504 288.673477,1544.57025 288.673477,1550.11666 C288.673477,1557.47918 292.440307,1559.0381 295.603977,1559.0381 C298.155545,1559.0381 301.112888,1557.84199 301.112888,1557.09168 C301.112888,1556.97371 300.989092,1556.40103 300.817154,1555.88597 C300.700235,1555.51218 300.480154,1555.12811 299.40038,1555.18023 C298.575075,1555.22138 297.240832,1555.60614 296.009752,1555.60614 C293.650755,1555.60614 292.454062,1554.13569 292.440307,1551.00757 L301.002847,1551.00757 C301.511785,1551.00757 301.614949,1550.88 301.614949,1550.2504 C301.614949,1544.0202 299.531053,1540.85504 295.438916,1540.85504 Z M267.892983,1541.44829 C267.423247,1541.44829 267.367539,1541.48601 267.367539,1542.04566 C267.367539,1543.89538 267.860659,1544.45983 269.461751,1544.45983 L269.846205,1544.45983 L269.846205,1555.41411 L269.437679,1555.42508 C267.833149,1555.42508 267.347594,1555.9957 267.347594,1557.8413 C267.347594,1558.39409 267.420496,1558.43936 267.883355,1558.43936 L275.592392,1558.43936 C276.042871,1558.43936 276.129528,1558.39409 276.129528,1557.8413 C276.129528,1556.01285 275.60821,1555.42508 274.033941,1555.42508 L273.623351,1555.41411 L273.623351,1541.82208 C273.623351,1541.48601 273.599968,1541.44829 273.284976,1541.44829 L267.892983,1541.44829 L267.892983,1541.44829 Z M295.356385,1543.86109 C297.72226,1543.86109 297.729137,1546.60994 297.729137,1548.01043 L292.577858,1548.01043 L292.598491,1547.71621 C292.701654,1546.55713 292.942368,1543.86109 295.356385,1543.86109 L295.356385,1543.86109 Z M310.211876,1544.1073 C311.188487,1544.1073 311.903752,1544.31374 312.722179,1544.84939 L312.722179,1554.49165 C312.233874,1555.06227 311.539242,1555.78515 310.012428,1555.78515 C307.715329,1555.78515 307.261411,1553.68715 307.261411,1550.0467 C307.261411,1546.19158 307.735961,1544.1073 310.211876,1544.1073 L310.211876,1544.1073 Z M264.826287,1563.84928 C264.351049,1563.84928 264.272645,1563.89524 264.272645,1564.47889 C264.272645,1566.19349 264.694926,1566.81967 265.908812,1566.95684 L266.373734,1566.98907 L269.870277,1586.15426 C269.992009,1586.59937 270.035338,1586.68853 270.452804,1586.68853 L273.485113,1586.68853 C273.973418,1586.68853 273.989237,1586.6659 274.070392,1586.15426 L277.091696,1571.25158 L279.62607,1586.16729 C279.726482,1586.66521 279.725795,1586.68853 280.22029,1586.68853 L283.309682,1586.68853 C283.718208,1586.68853 283.77873,1586.59937 283.88602,1586.15426 L287.85505,1566.97193 L288.2959,1566.95684 C289.519415,1566.81967 289.926565,1566.19006 289.926565,1564.47889 C289.926565,1563.93639 289.850225,1563.87672 289.474023,1563.84928 L285.003621,1563.84928 C284.610225,1563.84928 284.604723,1563.89112 284.542825,1564.28479 L282.018767,1579.86234 L278.981645,1564.36504 C278.901865,1563.94736 278.839967,1563.84928 278.361978,1563.84928 L276.313846,1563.84928 C275.563506,1563.84928 275.530494,1563.96382 275.443149,1564.39179 L272.262286,1579.86234 L269.880593,1564.28479 C269.820071,1563.89112 269.811817,1563.84928 269.426675,1563.84928 L264.826287,1563.84928 L264.826287,1563.84928 Z M295.356385,1569.12204 C292.742919,1569.12204 289.969206,1570.24545 289.969206,1570.95461 C289.969206,1571.04103 290.086124,1571.59725 290.264941,1572.10066 C290.346783,1572.32287 290.513908,1572.84137 291.623255,1572.76112 C292.06892,1572.72614 293.994632,1572.36059 294.799304,1572.36059 C296.931342,1572.36059 297.144546,1573.59716 297.144546,1575.05321 L297.144546,1576.25618 C294.489815,1576.25618 288.764261,1576.28498 288.764261,1582.0296 C288.764261,1585.26952 290.564114,1587.27767 293.471938,1587.27767 C295.672752,1587.27767 296.773159,1586.07401 297.426525,1585.34496 L297.680994,1585.06514 L297.763525,1585.50271 C297.901076,1586.20501 298.031749,1586.68853 298.568197,1586.68853 L302.426499,1586.68853 C302.907927,1586.68853 302.962947,1586.65149 302.962947,1586.09939 C302.962947,1584.37724 302.557172,1583.77164 301.126643,1583.68934 C300.947827,1583.02201 300.775888,1582.18117 300.775888,1580.6394 L300.775888,1574.60741 C300.775888,1570.80784 299.118401,1569.12204 295.356385,1569.12204 L295.356385,1569.12204 Z M303.189906,1569.69541 C302.735988,1569.69541 302.653457,1569.74342 302.653457,1570.30718 C302.653457,1571.87707 303.0386,1572.48816 304.070231,1572.66099 L304.599802,1572.67128 C304.599802,1572.67128 307.591533,1583.13929 309.173368,1587.52594 L308.939531,1588.37639 C308.437471,1590.01829 307.557145,1590.77272 306.181637,1590.77272 C305.851515,1590.77272 304.008333,1590.49153 304.008333,1590.49153 C302.962947,1590.40922 302.680968,1590.84473 302.564049,1591.22126 C302.378356,1591.75828 302.25456,1592.36319 302.25456,1592.47018 C302.25456,1593.24381 305.033087,1594.08397 306.484249,1594.08397 C307.928532,1594.08397 309.964285,1593.54078 311.009671,1590.9723 C312.110078,1588.2694 316.676766,1572.67128 316.676766,1572.67128 L317.192582,1572.66099 C318.217336,1572.4813 318.588723,1571.87364 318.588723,1570.30718 C318.588723,1569.74342 318.506192,1569.69541 318.052275,1569.69541 L314.304014,1569.69541 C313.946382,1569.70569 313.911994,1569.76125 313.795076,1570.13023 L310.679549,1582.15717 L307.46086,1570.13023 C307.364574,1569.76125 307.316431,1569.70569 306.958799,1569.69541 L303.189906,1569.69541 L303.189906,1569.69541 Z M296.642485,1578.88158 C296.841934,1578.88775 297.013873,1578.89873 297.144546,1578.90833 L297.144546,1582.8869 C296.725016,1583.34367 295.844691,1584.27985 294.620488,1584.27985 C293.361898,1584.27985 292.392164,1583.20102 292.392164,1581.79093 C292.392164,1579.0359 295.246344,1578.837 296.642485,1578.88158 Z" id="Shape-Copy-2"></path>
        </g>
    </g>
</svg>