<?xml version="1.0" encoding="UTF-8"?>
<svg width="131px" height="87px" viewBox="0 0 131 87" version="1.1" xmlns="http://www.w3.org/2000/svg" xmlns:xlink="http://www.w3.org/1999/xlink">
    <!-- Generator: Sketch 56.3 (81716) - https://sketch.com -->
    <title>Shape Copy</title>
    <desc>Created with Sketch.</desc>
    <g id="Images" stroke="none" stroke-width="1" fill="none" fill-rule="evenodd">
        <g id="Artboard" transform="translate(-240.000000, -1388.000000)" fill="#005191" fill-rule="nonzero">
            <path d="M302.0777,1388.766 C300.1947,1388.766 298.7417,1390.338 298.7417,1392.328 C298.7417,1394.289 300.2307,1395.908 302.0777,1395.908 C303.8897,1395.908 305.3397,1394.289 305.3397,1392.328 C305.3397,1390.37 303.8897,1388.766 302.0777,1388.766 L302.0777,1388.766 Z M359.5107,1388.891 C358.8407,1388.891 358.7107,1388.956 358.7107,1389.744 C358.7107,1392.355 359.4207,1393.227 361.5807,1393.27 L361.7307,1393.27 L361.7307,1398.975 L361.2807,1398.668 C360.4507,1398.084 359.3307,1397.303 356.9207,1397.303 C351.2907,1397.303 348.2907,1402.235 348.2907,1411.576 C348.2907,1419.459 351.0207,1423.815 355.9707,1423.815 C359.8907,1423.815 362.4707,1420.942 362.4707,1420.942 L362.7807,1422.01 C363.0107,1422.847 363.0607,1422.942 363.7307,1422.942 L370.0907,1422.942 C370.7407,1422.942 370.8607,1422.876 370.8607,1422.07 C370.8607,1419.419 370.1607,1418.547 367.7207,1418.547 C367.4207,1417.574 367.2307,1416.558 367.2307,1414.123 L367.2307,1389.416 C367.2307,1388.955 367.1907,1388.891 366.7307,1388.891 L359.5107,1388.891 L359.5107,1388.891 Z M240.8007,1390.506 C240.1122,1390.506 240,1390.589 240,1391.402 C240,1394.188 240.7123,1395.037 243.137,1395.037 L243.277,1395.037 L243.277,1411.305 C243.277,1420.064 246.526,1423.815 254.127,1423.815 C261.73,1423.815 264.988,1420.064 264.988,1411.305 L264.988,1395.037 L265.135,1395.037 C267.516,1395.037 268.266,1394.157 268.266,1391.402 C268.266,1390.589 268.164,1390.506 267.473,1390.506 L256.68,1390.506 C256.067,1390.506 255.979,1390.608 255.914,1390.979 L255.889,1391.402 C255.889,1394.15 256.634,1395.02 258.973,1395.037 L259.125,1395.037 L259.125,1411.305 C259.125,1414.425 259.125,1418.664 254.127,1418.664 C249.502,1418.664 249.133,1415.332 249.133,1411.305 L249.133,1395.037 L249.291,1395.037 C251.612,1395.02 252.367,1394.15 252.367,1391.402 L252.332,1390.889 C252.267,1390.596 252.171,1390.506 251.576,1390.506 L240.801,1390.506 L240.8007,1390.506 Z M318.3827,1390.506 C318.1427,1390.506 317.0257,1390.654 316.4587,1390.734 C314.8887,1391 313.2087,1392.215 313.2087,1395.02 L313.2087,1398.168 L310.0717,1398.168 C309.4077,1398.168 309.2927,1398.223 309.2927,1399.039 C309.2927,1401.736 310.0147,1402.559 312.3277,1402.559 L313.2087,1402.559 L313.2087,1414.168 C313.2087,1418.905 313.2097,1423.815 318.9507,1423.815 C322.1457,1423.815 324.7497,1422.983 324.7497,1422.287 C324.7497,1422.166 324.5597,1421.223 324.4487,1420.76 C324.0007,1418.895 323.8237,1418.21 320.4317,1418.633 C320.0027,1418.683 319.6187,1418.587 319.3497,1418.32 C318.6967,1417.655 318.6947,1416.194 318.6947,1415.02 L318.6947,1402.559 L321.7397,1402.559 C324.0787,1402.559 324.7767,1401.736 324.7767,1399.039 C324.7767,1398.223 324.6757,1398.168 323.9997,1398.168 L318.6947,1398.168 L318.6947,1391.213 C318.6947,1390.545 318.6377,1390.514 318.3827,1390.506 L318.3827,1390.506 Z M284.2247,1397.303 C280.6537,1397.303 278.6837,1399.383 277.1517,1400.961 C277.0177,1400.385 276.9037,1399.932 276.9037,1399.932 C276.6647,1398.843 276.4587,1398.168 275.7577,1398.168 L269.7047,1398.168 C269.0287,1398.168 268.9337,1398.223 268.9337,1399.039 C268.9337,1401.59 269.5737,1402.498 271.7187,1402.553 C272.0227,1403.627 272.2187,1404.499 272.2187,1407.055 L272.2187,1418.547 C269.9357,1418.562 269.2397,1419.399 269.2397,1422.07 C269.2397,1422.876 269.3577,1422.942 270.0247,1422.942 L277.2337,1422.942 C277.6757,1422.942 277.7027,1422.877 277.7027,1422.408 L277.7027,1404.469 C278.3647,1403.783 279.8627,1402.287 281.7827,1402.287 C284.5147,1402.287 284.5157,1405.405 284.5157,1406.742 L284.5157,1422.408 C284.5157,1422.877 284.5317,1422.942 284.9977,1422.942 L292.1757,1422.942 C292.8357,1422.942 292.9547,1422.876 292.9547,1422.07 C292.9547,1419.434 292.2197,1418.573 289.9977,1418.547 L289.9977,1405.164 C289.9977,1399.735 288.2157,1397.303 284.2247,1397.303 L284.2247,1397.303 Z M336.6027,1397.303 C330.7077,1397.303 326.7657,1402.72 326.7657,1410.807 C326.7657,1421.542 332.2427,1423.815 336.8427,1423.815 C340.5527,1423.815 344.8527,1422.071 344.8527,1420.977 C344.8527,1420.805 344.6727,1419.97 344.4227,1419.219 C344.2527,1418.674 343.9327,1418.114 342.3627,1418.19 C341.1627,1418.25 339.2227,1418.811 337.4327,1418.811 C334.0027,1418.811 332.2627,1416.667 332.2427,1412.106 L344.6927,1412.106 C345.4327,1412.106 345.5827,1411.92 345.5827,1411.002 C345.5827,1401.918 342.5527,1397.303 336.6027,1397.303 Z M296.5507,1398.168 C295.8677,1398.168 295.7867,1398.223 295.7867,1399.039 C295.7867,1401.736 296.5037,1402.559 298.8317,1402.559 L299.3907,1402.559 L299.3907,1418.531 L298.7967,1418.547 C296.4637,1418.547 295.7577,1419.379 295.7577,1422.07 C295.7577,1422.876 295.8637,1422.942 296.5367,1422.942 L307.7457,1422.942 C308.4007,1422.942 308.5267,1422.876 308.5267,1422.07 C308.5267,1419.404 307.7687,1418.547 305.4797,1418.547 L304.8827,1418.531 L304.8827,1398.713 C304.8827,1398.223 304.8487,1398.168 304.3907,1398.168 L296.5507,1398.168 L296.5507,1398.168 Z M336.4827,1401.686 C339.9227,1401.686 339.9327,1405.694 339.9327,1407.736 L332.4427,1407.736 L332.4727,1407.307 C332.6227,1405.617 332.9727,1401.686 336.4827,1401.686 L336.4827,1401.686 Z M358.0827,1402.045 C359.5027,1402.045 360.5427,1402.346 361.7327,1403.127 L361.7327,1417.186 C361.0227,1418.018 360.0127,1419.072 357.7927,1419.072 C354.4527,1419.072 353.7927,1416.013 353.7927,1410.705 C353.7927,1405.084 354.4827,1402.045 358.0827,1402.045 L358.0827,1402.045 Z M292.0917,1430.83 C291.4007,1430.83 291.2867,1430.897 291.2867,1431.748 C291.2867,1434.248 291.9007,1435.161 293.6657,1435.361 L294.3417,1435.408 L299.4257,1463.352 C299.6027,1464.001 299.6657,1464.131 300.2727,1464.131 L304.6817,1464.131 C305.3917,1464.131 305.4147,1464.098 305.5327,1463.352 L309.9257,1441.623 L313.6107,1463.371 C313.7567,1464.097 313.7557,1464.131 314.4747,1464.131 L318.9667,1464.131 C319.5607,1464.131 319.6487,1464.001 319.8047,1463.352 L325.5757,1435.383 L326.2167,1435.361 C327.9957,1435.161 328.5877,1434.243 328.5877,1431.748 C328.5877,1430.957 328.4767,1430.87 327.9297,1430.83 L321.4297,1430.83 C320.8577,1430.83 320.8497,1430.891 320.7597,1431.465 L317.0897,1454.178 L312.6737,1431.582 C312.5577,1430.973 312.4677,1430.83 311.7727,1430.83 L308.7947,1430.83 C307.7037,1430.83 307.6557,1430.997 307.5287,1431.621 L302.9037,1454.178 L299.4407,1431.465 C299.3527,1430.891 299.3407,1430.83 298.7807,1430.83 L292.0917,1430.83 L292.0917,1430.83 Z M336.4827,1438.518 C332.6827,1438.518 328.6497,1440.156 328.6497,1441.19 C328.6497,1441.316 328.8197,1442.127 329.0797,1442.861 C329.1987,1443.185 329.4417,1443.941 331.0547,1443.824 C331.7027,1443.773 334.5027,1443.24 335.6727,1443.24 C338.7727,1443.24 339.0827,1445.043 339.0827,1447.166 L339.0827,1448.92 C335.2227,1448.92 326.8977,1448.962 326.8977,1457.338 C326.8977,1462.062 329.5147,1464.99 333.7427,1464.99 C336.9427,1464.99 338.5427,1463.235 339.4927,1462.172 L339.8627,1461.764 L339.9827,1462.402 C340.1827,1463.426 340.3727,1464.131 341.1527,1464.131 L346.7627,1464.131 C347.4627,1464.131 347.5427,1464.077 347.5427,1463.272 C347.5427,1460.761 346.9527,1459.878 344.8727,1459.758 C344.6127,1458.785 344.3627,1457.559 344.3627,1455.311 L344.3627,1446.516 C344.3627,1440.976 341.9527,1438.518 336.4827,1438.518 L336.4827,1438.518 Z M347.8727,1439.354 C347.2127,1439.354 347.0927,1439.424 347.0927,1440.246 C347.0927,1442.535 347.6527,1443.426 349.1527,1443.678 L349.9227,1443.693 C349.9227,1443.693 354.2727,1458.956 356.5727,1465.352 L356.2327,1466.592 C355.5027,1468.986 354.2227,1470.086 352.2227,1470.086 C351.7427,1470.086 349.0627,1469.676 349.0627,1469.676 C347.5427,1469.556 347.1327,1470.191 346.9627,1470.74 C346.6927,1471.523 346.5127,1472.405 346.5127,1472.561 C346.5127,1473.689 350.5527,1474.914 352.6627,1474.914 C354.7627,1474.914 357.7227,1474.122 359.2427,1470.377 C360.8427,1466.436 367.4827,1443.693 367.4827,1443.693 L368.2327,1443.678 C369.7227,1443.416 370.2627,1442.53 370.2627,1440.246 C370.2627,1439.424 370.1427,1439.354 369.4827,1439.354 L364.0327,1439.354 C363.5127,1439.369 363.4627,1439.45 363.2927,1439.988 L358.7627,1457.524 L354.0827,1439.988 C353.9427,1439.45 353.8727,1439.369 353.3527,1439.354 L347.8727,1439.354 L347.8727,1439.354 Z M338.3527,1452.748 C338.6427,1452.757 338.8927,1452.773 339.0827,1452.787 L339.0827,1458.588 C338.4727,1459.254 337.1927,1460.619 335.4127,1460.619 C333.5827,1460.619 332.1727,1459.046 332.1727,1456.99 C332.1727,1452.973 336.3227,1452.683 338.3527,1452.748 Z" id="Shape-Copy"></path>
        </g>
    </g>
</svg>