<?xml version="1.0" encoding="UTF-8"?>
<svg width="230px" height="86px" viewBox="0 0 230 86" version="1.1" xmlns="http://www.w3.org/2000/svg" xmlns:xlink="http://www.w3.org/1999/xlink">
    <!-- Generator: Sketch 56.3 (81716) - https://sketch.com -->
    <title>Group 4</title>
    <desc>Created with Sketch.</desc>
    <g id="Images" stroke="none" stroke-width="1" fill="none" fill-rule="evenodd">
        <g id="Artboard" transform="translate(-234.000000, -1082.000000)" fill-rule="nonzero">
            <g id="Group-4" transform="translate(234.000000, 1082.000000)">
                <path d="M62.1437811,2.27373675e-13 C60.2587767,2.27373675e-13 58.80423,1.56929935 58.80423,3.55588058 C58.80423,5.51351163 60.294815,7.12973023 62.1437811,7.12973023 C63.95771,7.12973023 65.4092535,5.51351163 65.4092535,3.55588058 C65.4092535,1.60124437 63.95771,2.27373675e-13 62.1437811,2.27373675e-13 L62.1437811,2.27373675e-13 Z M119.637918,0.124785253 C118.967205,0.124785253 118.837066,0.189673585 118.837066,0.976319822 C118.837066,3.58283419 119.547822,4.45333612 121.710122,4.49626225 L121.860281,4.49626225 L121.860281,10.1914612 L121.409802,9.88498862 C120.578919,9.30199192 119.457726,8.52233366 117.045161,8.52233366 C111.409168,8.52233366 108.405974,13.4458606 108.405974,22.770813 C108.405974,30.6402702 111.138881,34.9887867 116.09415,34.9887867 C120.018323,34.9887867 122.601069,32.1207225 122.601069,32.1207225 L122.911399,33.1868877 C123.141644,34.0224497 123.191697,34.1172865 123.86241,34.1172865 L130.22918,34.1172865 C130.879872,34.1172865 131,34.0513999 131,33.2467846 C131,30.600339 130.299255,29.729837 127.856657,29.729837 C127.556338,28.7585086 127.366136,27.7442541 127.366136,25.3134373 L127.366136,0.648883317 C127.366136,0.188675303 127.326093,0.124785253 126.865604,0.124785253 L119.637918,0.124785253 L119.637918,0.124785253 Z M0.801552338,1.73701073 C0.112319436,1.73701073 0,1.81986813 0,2.63147142 C0,5.41268515 0.713058237,6.26022659 3.14033931,6.26022659 L3.28048834,6.26022659 L3.28048834,22.5002786 C3.28048834,31.2442309 6.53294687,34.9887867 14.1420381,34.9887867 C21.7531314,34.9887867 25.0145995,31.2442309 25.0145995,22.5002786 L25.0145995,6.26022659 L25.161756,6.26022659 C27.5452905,6.26022659 28.2960889,5.3817384 28.2960889,2.63147142 C28.2960889,1.81986813 28.1939803,1.73701073 27.5022448,1.73701073 L16.6977557,1.73701073 C16.0841032,1.73701073 15.9960095,1.83883549 15.9309403,2.20919812 L15.9059137,2.63147142 C15.9059137,5.37475043 16.6517067,6.24325579 18.9931966,6.26022659 L19.1453584,6.26022659 L19.1453584,22.5002786 C19.1453584,25.6149185 19.1453584,29.846636 14.1420381,29.846636 C9.51211479,29.846636 9.14272199,26.5203603 9.14272199,22.5002786 L9.14272199,6.26022659 L9.30089018,6.26022659 C11.6243609,6.24325579 12.3801646,5.37475043 12.3801646,2.63147142 L12.3451273,2.11935274 C12.2800581,1.82685611 12.1839559,1.73701073 11.5883225,1.73701073 L0.801852657,1.73701073 L0.801552338,1.73701073 Z M78.4661377,1.73701073 C78.2258822,1.73701073 77.1076931,1.88475647 76.5400896,1.96461903 C74.9684183,2.23016205 73.28663,3.44307471 73.28663,6.24325579 L73.28663,9.38584761 L70.1462907,9.38584761 C69.4815839,9.38584761 69.3664614,9.44075312 69.3664614,10.2553513 C69.3664614,12.9477179 70.08923,13.769304 72.4046922,13.769304 L73.28663,13.769304 L73.28663,25.35836 C73.28663,30.087222 73.287631,34.9887867 79.0347423,34.9887867 C82.2331433,34.9887867 84.8399153,34.1582161 84.8399153,33.4634118 C84.8399153,33.3426197 84.649713,32.4012397 84.5385949,31.9390351 C84.090118,30.0772392 83.9129296,29.393416 80.5173188,29.8156893 C80.0878621,29.8656034 79.7034534,29.7697683 79.434167,29.503227 C78.7804719,28.8393695 78.7784698,27.3808794 78.7784698,26.2088963 L78.7784698,13.769304 L81.8267112,13.769304 C84.168201,13.769304 84.866944,12.9477179 84.866944,10.2553513 C84.866944,9.44075312 84.7658365,9.38584761 84.0891169,9.38584761 L78.7784698,9.38584761 L78.7784698,2.44279612 C78.7784698,1.77594372 78.7214091,1.74499698 78.4661377,1.73701073 L78.4661377,1.73701073 Z M44.2717768,8.52233366 C40.6969755,8.52233366 38.7248784,10.5987603 37.1912476,12.1740493 C37.057105,11.5990389 36.9429836,11.1468171 36.9429836,11.1468171 C36.7037292,10.059688 36.4975099,9.38584761 35.7957637,9.38584761 L29.7363204,9.38584761 C29.0596008,9.38584761 28.9644997,9.44075312 28.9644997,10.2553513 C28.9644997,12.8019687 29.6051809,13.7084088 31.7524643,13.7633143 C32.0567879,14.8354692 32.2529965,15.7059711 32.2529965,18.25758 L32.2529965,29.729837 C29.9675663,29.7448113 29.2708254,30.5803733 29.2708254,33.2467846 C29.2708254,34.0513999 29.388951,34.1172865 30.056661,34.1172865 L37.2733349,34.1172865 C37.7158054,34.1172865 37.7428342,34.0523982 37.7428342,33.5842039 L37.7428342,15.6760227 C38.4055389,14.9912012 39.9051335,13.4977713 41.8271773,13.4977713 C44.5620855,13.4977713 44.5630865,16.6104146 44.5630865,17.9451177 L44.5630865,33.5842039 C44.5630865,34.0523982 44.5791036,34.1172865 45.0455996,34.1172865 L52.2312405,34.1172865 C52.8919431,34.1172865 53.0110698,34.0513999 53.0110698,33.2467846 C53.0110698,30.6153132 52.2752874,29.7557924 50.0509221,29.729837 L50.0509221,16.3698287 C50.0509221,10.9501555 48.2670252,8.52233366 44.2717768,8.52233366 L44.2717768,8.52233366 Z M96.7055327,8.52233366 C90.8042575,8.52233366 86.8580613,13.9300274 86.8580613,22.0031341 C86.8580613,32.7196917 92.3408915,34.9887867 96.9457882,34.9887867 C100.659737,34.9887867 104.964315,33.2477829 104.964315,32.1556623 C104.964315,31.9839578 104.784123,31.1503923 104.533857,30.4006825 C104.363676,29.8566188 104.043335,29.2975809 102.471664,29.3734503 C101.270387,29.4333473 99.3283216,29.9933835 97.5364162,29.9933835 C94.102765,29.9933835 92.3609128,27.8530668 92.3408915,23.2999025 L104.804144,23.2999025 C105.544932,23.2999025 105.695092,23.114222 105.695092,22.1977991 C105.695092,13.1294052 102.661866,8.52233366 96.7055327,8.52233366 Z M56.6108977,9.38584761 C55.9271706,9.38584761 55.8460844,9.44075312 55.8460844,10.2553513 C55.8460844,12.9477179 56.5638477,13.769304 58.8943258,13.769304 L59.4539208,13.769304 L59.4539208,29.7138645 L58.8592885,29.729837 C56.5238051,29.729837 55.8170536,30.5604077 55.8170536,33.2467846 C55.8170536,34.0513999 55.9231664,34.1172865 56.5968828,34.1172865 L67.8178147,34.1172865 C68.4735119,34.1172865 68.599646,34.0513999 68.599646,33.2467846 C68.599646,30.5853647 67.8408392,29.729837 65.5494025,29.729837 L64.951767,29.7138645 L64.951767,9.92991132 C64.951767,9.44075312 64.9177308,9.38584761 64.4592433,9.38584761 L56.6108977,9.38584761 L56.6108977,9.38584761 Z M96.5854049,12.8978038 C100.029067,12.8978038 100.039077,16.8989181 100.039077,18.93741 L92.5411044,18.93741 L92.5711363,18.509147 C92.721296,16.8220504 93.0716686,12.8978038 96.5854049,12.8978038 L96.5854049,12.8978038 Z M118.208398,13.256187 C119.62991,13.256187 120.671017,13.5566699 121.862283,14.3363282 L121.862283,28.3711752 C121.151528,29.2017458 120.140452,30.2539351 117.918089,30.2539351 C114.574534,30.2539351 113.913831,27.2001904 113.913831,21.9013094 C113.913831,16.2899661 114.604566,13.256187 118.208398,13.256187 L118.208398,13.256187 Z M52.1471511,41.9917352 C51.4554156,41.9917352 51.3412942,42.05862 51.3412942,42.9081581 C51.3412942,45.4038631 51.9559478,46.3152946 53.7228266,46.514951 L54.3995462,46.5618703 L59.4889581,74.4578632 C59.6661465,75.1057482 59.7292136,75.2355249 60.3368597,75.2355249 L64.7505531,75.2355249 C65.4613089,75.2355249 65.4843333,75.2025816 65.602459,74.4578632 L70.0001353,52.7661931 L73.6890579,74.4768306 C73.8352133,75.2015833 73.8342123,75.2355249 74.5539776,75.2355249 L79.0507593,75.2355249 C79.6453916,75.2355249 79.7334853,75.1057482 79.8896514,74.4578632 L85.6667945,46.5369132 L86.3084769,46.514951 C88.0893706,46.3152946 88.6820008,45.3988717 88.6820008,42.9081581 C88.6820008,42.118517 88.5708826,42.0316664 88.0233003,41.9917352 L81.5163812,41.9917352 C80.9437723,41.9917352 80.9357638,42.0526304 80.845668,42.6256442 L77.1717613,65.2996239 L72.7510605,42.7424432 C72.634937,42.1344895 72.5448412,41.9917352 71.8491014,41.9917352 L68.8679313,41.9917352 C67.77577,41.9917352 67.7277189,42.1584483 67.6005837,42.7813762 L62.9706604,65.2996239 L59.5039741,42.6256442 C59.4158804,42.0526304 59.4038676,41.9917352 58.8432715,41.9917352 L52.1471511,41.9917352 L52.1471511,41.9917352 Z M96.5854049,49.6665274 C92.7813599,49.6665274 88.7440668,51.3017133 88.7440668,52.3339369 C88.7440668,52.4597205 88.9142477,53.2693272 89.1745245,54.0020662 C89.2936512,54.3255096 89.5369099,55.0802108 91.1516269,54.9634118 C91.8003167,54.9124994 94.6032972,54.3804151 95.7745427,54.3804151 C98.8778426,54.3804151 99.1881726,56.1803176 99.1881726,58.2996703 L99.1881726,60.050657 C95.3240637,60.050657 86.9902018,60.0925849 86.9902018,68.4541951 C86.9902018,73.1700794 89.6099876,76.0930492 93.8424882,76.0930492 C97.0458946,76.0930492 98.6475978,74.3410642 99.5986091,73.2798904 L99.9690029,72.8725914 L100.089131,73.5094953 C100.289344,74.5317361 100.479546,75.2355249 101.260376,75.2355249 L106.876348,75.2355249 C107.577093,75.2355249 107.657178,75.1816177 107.657178,74.3780007 C107.657178,71.8713145 107.06655,70.9898315 104.984336,70.8700376 C104.724059,69.8987092 104.473793,68.6748154 104.473793,66.4306774 L104.473793,57.650787 C104.473793,52.1203046 102.061228,49.6665274 96.5854049,49.6665274 L96.5854049,49.6665274 Z M107.987529,50.5010911 C107.326827,50.5010911 107.206699,50.5709709 107.206699,51.3915587 C107.206699,53.6766263 107.767295,54.5660956 109.268892,54.8176626 L110.039712,54.8326369 C110.039712,54.8326369 114.394342,70.0694154 116.696791,76.4544273 L116.356429,77.692297 C115.625652,80.0821841 114.344289,81.1802944 112.34216,81.1802944 C111.861649,81.1802944 109.178796,80.7709987 109.178796,80.7709987 C107.657178,80.6512049 107.246742,81.285114 107.076561,81.8331708 C106.806273,82.6148256 106.626082,83.4953104 106.626082,83.6510424 C106.626082,84.7771045 110.670382,86 112.782628,86 C114.884864,86 117.848015,85.2093606 119.369633,81.4707944 C120.971336,77.536565 127.618404,54.8326369 127.618404,54.8326369 L128.369203,54.8176626 C129.860789,54.5561127 130.401363,53.6716349 130.401363,51.3915587 C130.401363,50.5709709 130.281236,50.5010911 129.620533,50.5010911 L124.164732,50.5010911 C123.644178,50.5160654 123.594125,50.5969262 123.423944,51.134002 L118.889122,68.6398756 L114.20414,51.134002 C114.063991,50.5969262 113.993916,50.5160654 113.473363,50.5010911 L107.987529,50.5010911 L107.987529,50.5010911 Z M98.4573955,63.8720806 C98.7477042,63.8810651 98.9979704,63.8970377 99.1881726,63.9110136 L99.1881726,69.7020476 C98.5775233,70.3669035 97.2961607,71.7295584 95.5142659,71.7295584 C93.6823179,71.7295584 92.270817,70.1592608 92.270817,68.106793 C92.270817,64.0966941 96.4252346,63.8071923 98.4573955,63.8720806 Z" id="Shape-Copy-4" fill="#005191"></path>
                <g id="Group-3" transform="translate(146.000000, 0.000000)">
                    <g id="Group-2">
                        <path d="M41.66,-6.39488462e-14 C18.63,-6.39488462e-14 2.84217094e-14,18.654 2.84217094e-14,41.664 C2.84217094e-14,64.668 18.63,83.332 41.66,83.332 C64.66,83.332 83.33,64.668 83.33,41.664 C83.33,18.654 64.66,-6.39488462e-14 41.66,-6.39488462e-14 L41.66,-6.39488462e-14 Z" id="Path" fill="#FFFFFF"></path>
                        <path d="M41.67,2.442 C20,2.442 2.4,20.087 2.4,41.76 C2.4,46.746 3.33,51.501 5.03,55.877 C5.12,56.123 5.3,56.588 5.87,56.342 C6.46,56.05 10.01,54.405 10.63,54.133 C11.27,53.856 10.99,53.372 10.9,53.106 C9.58,49.561 8.87,45.742 8.87,41.76 C8.87,23.65 23.57,8.936 41.67,8.936 C59.72,8.936 74.44,23.65 74.44,41.76 C74.44,46.337 73.49,50.685 71.8,54.656 C71.68,54.898 71.57,55.379 72.17,55.641 C72.73,55.898 76.19,57.419 76.67,57.606 C77.13,57.833 77.49,57.782 77.81,57.092 C79.81,52.359 80.91,47.173 80.91,41.76 C80.91,20.087 63.3,2.442 41.67,2.442 Z" id="Path" fill="#FFB351"></path>
                        <path d="M41.67,11.502 C24.98,11.502 11.42,25.082 11.42,41.76 C11.42,45.43 12.09,48.952 13.3,52.219 C13.37,52.42 13.52,52.819 14.04,52.582 C14.52,52.329 16.21,51.567 16.66,51.34 C17.12,51.148 17.01,50.76 16.94,50.584 C15.95,47.822 15.41,44.87 15.41,41.76 C15.41,27.264 27.18,15.498 41.67,15.498 C56.11,15.498 67.89,27.264 67.89,41.76 C67.89,45.47 67.12,48.992 65.72,52.192 C65.65,52.358 65.52,52.758 65.97,52.924 C66.37,53.106 68.26,53.947 68.6,54.104 C68.97,54.255 69.21,54.188 69.39,53.754 C71,50.085 71.88,46.019 71.88,41.76 C71.88,25.082 58.33,11.502 41.67,11.502 L41.67,11.502 Z" id="Path" fill="#FFB351"></path>
                        <path d="M41.67,18.109 C28.61,18.109 18.04,28.706 18.04,41.76 C18.04,44.437 18.49,46.991 19.3,49.395 C19.42,49.758 19.61,49.996 20.04,49.799 C20.46,49.598 21.44,49.163 21.88,48.951 C22.38,48.695 22.31,48.487 22.16,48.078 C21.5,46.078 21.17,43.957 21.17,41.76 C21.17,30.455 30.37,21.254 41.67,21.254 C52.95,21.254 62.13,30.455 62.13,41.76 C62.13,44.649 61.52,47.425 60.44,49.91 C60.34,50.086 60.33,50.438 60.63,50.594 C60.96,50.735 62.2,51.294 62.57,51.436 C62.94,51.582 63.16,51.497 63.36,51.109 C64.6,48.225 65.28,45.076 65.28,41.76 C65.28,28.706 54.7,18.109 41.67,18.109 Z" id="Path" fill="#FFB351"></path>
                        <path d="M41.68,24.809 C39.33,24.809 37.48,26.679 37.48,29.027 C37.48,31.352 39.33,33.227 41.68,33.227 C43.99,33.227 45.89,31.352 45.89,29.027 C45.89,26.679 43.99,24.809 41.68,24.809 L41.68,24.809 Z" id="Path" fill="#FF443B"></path>
                        <path d="M30.9,28.178 C30.53,28.178 30.15,28.324 29.87,28.619 L28.27,30.201 C27.69,30.766 27.69,31.734 28.27,32.318 L36.97,41.002 C37.79,41.874 38.6,43.378 38.64,44.547 L38.64,53.775 C38.64,54.597 39.3,55.262 40.13,55.262 L43.22,55.262 C44.04,55.262 44.69,54.597 44.69,53.775 L44.69,44.547 C44.74,43.378 45.57,41.874 46.38,41.002 L55.07,32.318 C55.66,31.734 55.66,30.766 55.07,30.201 L53.48,28.619 C52.91,28.029 51.95,28.029 51.38,28.619 L43.54,36.477 C43,36.986 42.64,37.303 41.68,37.303 C40.7,37.303 40.32,36.986 39.81,36.477 L31.96,28.619 C31.67,28.324 31.28,28.178 30.9,28.178 L30.9,28.178 Z" id="Path" fill="#FF443B"></path>
                        <path d="M70.62,58.5280038 C69.1518,59.0722738 66.4044,61.7837038 65.1697,62.8876038 L64.82453,62.9387438 C65.26488,62.4538638 67.15823,60.0497438 67.65433,59.2283438 C69.15173,56.7434438 66.32573,54.4051438 63.22433,56.1848438 C62.03913,56.8599438 60.06833,58.9310438 59.11413,59.6869438 L58.81592,59.7621938 C59.24103,59.3349238 60.99852,57.0358938 61.45672,56.2898938 C62.82342,54.2787938 59.97712,52.3689938 57.52542,53.8559938 C55.78942,54.8984938 54.36942,56.3210938 52.91392,57.4498938 L52.66012,57.5142338 C53.0497,57.1365838 54.02552,55.9825338 54.39612,55.5800338 C55.84532,53.9516338 53.77052,52.0765338 51.58282,53.2206338 C49.48392,54.2887338 46.46752,57.3036338 43.16312,59.4202338 C44.69482,60.2471038 47.39142,60.3734938 51.66402,62.1976338 C55.95062,64.0267338 57.33642,68.2857338 54.53702,71.6480338 C51.95342,74.7635338 48.01822,73.7150338 44.63002,72.6553338 C40.69872,71.4259338 39.30412,70.1560338 34.57202,68.5127338 C31.48202,67.4346338 30.21432,67.4494338 30.27272,66.5671338 C30.32342,65.5545338 32.99722,66.1591538 35.49712,67.0663538 C42.43972,69.5859538 51.65412,75.2973538 53.91612,69.1373538 C55.70542,64.2844538 47.70822,62.1777538 44.64492,61.5978538 C40.38372,60.7760638 37.44472,57.6556538 33.75192,55.6653538 C28.17092,52.6564538 23.87922,52.5810538 20.69492,53.1546538 C17.26742,53.7644038 12.38312,56.5625538 9.42792,58.3411538 C7.37092,59.5565538 7.52442,61.4155538 9.52817,64.2632538 C16.65097,74.3792538 28.38017,80.9932538 41.66117,80.9932538 C55.74317,80.9932538 68.10517,73.5132538 75.02517,62.3792538 C76.56577,59.8943538 74.15211,57.2736538 70.61927,58.5287538" id="Path" fill="#005191"></path>
                    </g>
                </g>
            </g>
        </g>
    </g>
</svg>