<?xml version="1.0" encoding="UTF-8"?>
<svg width="152px" height="172px" viewBox="0 0 152 172" version="1.1" xmlns="http://www.w3.org/2000/svg" xmlns:xlink="http://www.w3.org/1999/xlink">
    <title>following-icon</title>
    <defs>
        <filter x="-14.0%" y="-14.1%" width="127.9%" height="128.2%" filterUnits="objectBoundingBox" id="filter-1">
            <feOffset dx="0" dy="2" in="SourceAlpha" result="shadowOffsetOuter1"></feOffset>
            <feGaussianBlur stdDeviation="2" in="shadowOffsetOuter1" result="shadowBlurOuter1"></feGaussianBlur>
            <feColorMatrix values="0 0 0 0 0   0 0 0 0 0   0 0 0 0 0  0 0 0 0.5 0" type="matrix" in="shadowBlurOuter1" result="shadowMatrixOuter1"></feColorMatrix>
            <feMerge>
                <feMergeNode in="shadowMatrixOuter1"></feMergeNode>
                <feMergeNode in="SourceGraphic"></feMergeNode>
            </feMerge>
        </filter>
    </defs>
    <g id="following-icon" stroke="none" stroke-width="1" fill="none" fill-rule="evenodd">
        <rect fill="#005191" x="0" y="0" width="152" height="172"></rect>
        <path d="M126,5 L126,154 L4,154 L4,12 C4,10.0670034 4.78350169,8.31700338 6.05025253,7.05025253 C7.31700338,5.78350169 9.06700338,5 11,5 L11,5 L126,5 Z" id="Rectangle" stroke="#FFFFFF" stroke-width="10"></path>
        <g id="Group" filter="url(#filter-1)" transform="translate(66.000000, 68.000000)">
            <ellipse id="Oval" fill="#005191" cx="43" cy="42.5" rx="43" ry="42.5"></ellipse>
            <path id="Line-3" d="M42.6880482,25.5 L76.6880482,42.5 L42.6880482,59.5 L42.688,45.499 L9.7066886,45.5 L9.7066886,39.5 L42.688,39.499 L42.6880482,25.5 Z" fill="#FFFFFF" fill-rule="nonzero"></path>
        </g>
        <rect id="Rectangle" fill="#FFFFFF" x="24" y="28" width="67" height="7"></rect>
        <rect id="Rectangle-Copy" fill="#FFFFFF" x="24" y="48" width="49" height="7"></rect>
        <rect id="Rectangle-Copy-2" fill="#FFFFFF" x="24" y="68" width="49" height="7"></rect>
    </g>
</svg>