<?xml version="1.0" encoding="UTF-8"?>
<svg width="152px" height="172px" viewBox="0 0 152 172" version="1.1" xmlns="http://www.w3.org/2000/svg" xmlns:xlink="http://www.w3.org/1999/xlink">
    <title>my-events-icon</title>
    <defs>
        <circle id="path-1" cx="108.5" cy="117.5" r="38.5"></circle>
        <filter x="-16.2%" y="-17.5%" width="132.5%" height="132.5%" filterUnits="objectBoundingBox" id="filter-2">
            <feMorphology radius="4.5" operator="dilate" in="SourceAlpha" result="shadowSpreadOuter1"></feMorphology>
            <feOffset dx="0" dy="-1" in="shadowSpreadOuter1" result="shadowOffsetOuter1"></feOffset>
            <feGaussianBlur stdDeviation="2.5" in="shadowOffsetOuter1" result="shadowBlurOuter1"></feGaussianBlur>
            <feComposite in="shadowBlurOuter1" in2="SourceAlpha" operator="out" result="shadowBlurOuter1"></feComposite>
            <feColorMatrix values="0 0 0 0 0   0 0 0 0 0   0 0 0 0 0  0 0 0 0.5 0" type="matrix" in="shadowBlurOuter1"></feColorMatrix>
        </filter>
    </defs>
    <g id="my-events-icon" stroke="none" stroke-width="1" fill="none" fill-rule="evenodd">
        <g id="Group" transform="translate(35.000000, 63.000000)" stroke="#0055A5" stroke-linecap="square" stroke-width="6">
            <line x1="0.5" y1="0.590909091" x2="63.5" y2="0.590909091" id="Line-5"></line>
            <line x1="0.5" y1="19.5" x2="63.5" y2="19.5" id="Line-5-Copy"></line>
            <line x1="0.5" y1="38.4090909" x2="63.5" y2="38.4090909" id="Line-5-Copy-2"></line>
        </g>
        <path d="M32,20.9411765 C33.0812155,17.6470588 35.2478822,16 38.5,16 C41.7521178,16 43.9187845,17.6470588 45,20.9411765 L45,30 L32,30 L32,20.9411765 Z" id="Rectangle-Copy" fill="#0055A5"></path>
        <path d="M92,20.9411765 C93.0812155,17.6470588 95.2478822,16 98.5,16 C101.752118,16 103.918784,17.6470588 105,20.9411765 L105,30 L92,30 L92,20.9411765 Z" id="Rectangle-Copy-2" fill="#0055A5"></path>
        <path d="M16.457945,30 L121.034231,30 C125.255896,30.8153 127.99721,32.484821 129.258174,35.0085632 C130.519137,37.5323054 131.095462,40.7559258 130.987148,44.6794245 L130.987148,129.57359 C130.669545,132.863719 129.824242,135.507981 128.451239,137.506376 C127.078236,139.504771 124.6059,141.002646 121.034231,142 L16.0904638,142 C12.9363482,141.320225 10.5053413,139.568011 8.79744287,136.743359 C7.08954448,133.918706 6.16466204,131.416776 6.02279556,129.237569 L6.02279556,45.0740014 C5.839248,41.7027514 6.76413044,38.3476053 8.79744287,35.0085632 M26.1981369,45.7401194 L111.079542,45.7401194 C114.39325,45.7401194 117.079542,48.4264109 117.079542,51.7401194 L117.079542,120.097571 C117.079542,123.41128 114.39325,126.097571 111.079542,126.097571 L26.1981369,126.097571 C22.8844284,126.097571 20.1981369,123.41128 20.1981369,120.097571 L20.1981369,51.7401194 C20.1981369,48.4264109 22.8844284,45.7401194 26.1981369,45.7401194 Z" id="Combined-Shape" fill="#0055A5"></path>
        <g id="Oval">
            <use fill="black" fill-opacity="1" filter="url(#filter-2)" xlink:href="#path-1"></use>
            <use stroke="#0055A5" stroke-width="9" fill="#C5E2ED" fill-rule="evenodd" xlink:href="#path-1"></use>
        </g>
        <line x1="103.5" y1="104" x2="103.5" y2="124" id="Line-2" stroke="#005191" stroke-width="6" stroke-linecap="square"></line>
        <line x1="113.5" y1="114" x2="113.5" y2="134" id="Line-2-Copy" stroke="#005191" stroke-width="6" stroke-linecap="square" transform="translate(113.500000, 124.000000) scale(1, -1) rotate(90.000000) translate(-113.500000, -124.000000) "></line>
    </g>
</svg>