<?xml version="1.0" encoding="UTF-8"?>
<svg width="152px" height="172px" viewBox="0 0 152 172" version="1.1" xmlns="http://www.w3.org/2000/svg" xmlns:xlink="http://www.w3.org/1999/xlink">
    <title>notifications-icon</title>
    <g id="notifications-icon" stroke="none" stroke-width="1" fill="none" fill-rule="evenodd">
        <path d="M76,5 C61.6813275,5.1055803 47.7918459,15.9373387 47.4522163,16.17839 C37.9152756,22.9472096 30.0829892,32.6096659 26.3482143,42.5813533 C20.5465476,58.0715521 21.5625,76.3895883 21.5625,92.8037007 C21.5625,103.746442 17.375,116.478542 9,131 L143,131 C134.22619,116.60836 129.839286,103.87626 129.839286,92.8037007 C129.839286,76.1948619 128.757899,57.6253156 123.857143,42.5975884 C120.589972,32.5791036 114.20902,23.6332907 104.714286,15.7601498 C95.1172103,8.51765934 85.5457817,4.93094274 76,5 Z" id="Path-3" stroke="#FFFFFF" stroke-width="10"></path>
        <path d="M48,134 C50.6577299,153.333333 59.2091235,163 73.6541807,163 C88.099238,163 97.8811777,153.333333 103,134 L48,134 Z" id="Path-4" stroke="#FFFFFF" stroke-width="10"></path>
    </g>
</svg>