<?xml version="1.0" encoding="UTF-8"?>
<svg width="172px" height="172px" viewBox="0 0 172 172" version="1.1" xmlns="http://www.w3.org/2000/svg" xmlns:xlink="http://www.w3.org/1999/xlink">
    <title>suitcase-blue</title>
    <g id="suitcase-blue" stroke="none" stroke-width="1" fill="none" fill-rule="evenodd">
        <g id="suitcase-inactive" transform="translate(19.000000, 25.000000)" fill="#0055A5" fill-rule="nonzero">
            <path d="M127.3,20.1666667 L98.2666669,20.1666667 L98.2666669,11.2037037 C98.2590329,5.01869039 93.2645668,0.00765879583 87.1,0 L46.9,0 C40.735433,0.00765879583 35.7409669,5.01869039 35.7333333,11.2037037 L35.7333333,20.1666667 L6.7,20.1666667 C2.99995124,20.1666667 0,23.176568 0,26.8888889 L0,76.7672528 C0.0141764183,79.6097545 1.79931627,82.1382472 4.46666667,83.0934064 L4.46666667,114.277778 C4.46666667,117.990099 7.46661789,121 11.1666667,121 L122.833333,121 C126.533382,121 129.533333,117.990099 129.533333,114.277778 L129.533333,83.0955944 C132.200684,82.1393409 133.986914,79.6097545 134,76.7672528 L134,26.8888889 C134,23.176568 131.000049,20.1666667 127.3,20.1666667 Z M40.2,11.2037037 C40.2,7.49138279 43.1999513,4.48148148 46.9,4.48148148 L87.1,4.48148148 C90.8000489,4.48148148 93.8,7.49138279 93.8,11.2037037 L93.8,20.1666667 L89.3333331,20.1666667 L89.3333331,11.2037037 C89.3333331,9.96626335 88.3333494,8.96296294 87.1,8.96296294 L46.9,8.96296294 C45.6666503,8.96296294 44.6666667,9.96626335 44.6666667,11.2037037 L44.6666667,20.1666667 L40.2,20.1666667 L40.2,11.2037037 Z M84.8666669,20.1666667 L49.1333333,20.1666667 L49.1333333,13.4444444 L84.8666669,13.4444444 L84.8666669,20.1666667 Z M125.066667,114.277778 C125.066667,115.515218 124.066683,116.518518 122.833333,116.518518 L11.1666667,116.518518 C9.93331702,116.518518 8.93333331,115.515218 8.93333331,114.277778 L8.93333331,83.8636608 L58.0666667,90.6624713 L58.0666667,96.3518516 C58.0666667,100.064173 61.0666179,103.074074 64.7666667,103.074074 L69.2333331,103.074074 C72.933382,103.074074 75.9333333,100.064173 75.9333333,96.3518516 L75.9333333,90.6624713 L125.066667,83.8636608 L125.066667,114.277778 Z M69.2333331,80.6666667 C70.4666832,80.6666667 71.4666669,81.6699671 71.4666669,82.9074072 L71.4666669,96.3518516 C71.4666669,97.5892924 70.4666832,98.5925928 69.2333331,98.5925928 L64.7666667,98.5925928 C63.533317,98.5925928 62.5333333,97.5892924 62.5333333,96.3518516 L62.5333333,82.9074072 C62.5333333,81.6699671 63.533317,80.6666667 64.7666667,80.6666667 L69.2333331,80.6666667 Z M127.3,24.6481482 C128.533349,24.6481482 129.533334,25.6514485 129.533334,26.8888889 L129.533334,76.7672528 C129.533334,77.8843402 128.715462,78.8318415 127.612972,78.9882992 L126.993571,79.0736398 L75.9333331,86.1383189 L75.9333331,82.9074072 C75.9333331,79.1950862 72.933382,76.185185 69.2333331,76.185185 L64.7666655,76.185185 C61.0666179,76.185185 58.0666656,79.1950862 58.0666656,82.9074072 L58.0666656,86.1383189 L6.38920906,78.9882992 C5.28671875,78.8329352 4.46666558,77.8854346 4.46666558,76.7672528 L4.46666558,26.8888889 C4.46666558,25.6514485 5.46665032,24.6481482 6.7,24.6481482 L127.3,24.6481482 Z" id="Shape"></path>
        </g>
    </g>
</svg>