<?xml version="1.0" encoding="UTF-8"?>
<svg width="61px" height="67px" viewBox="0 0 61 67" version="1.1" xmlns="http://www.w3.org/2000/svg" xmlns:xlink="http://www.w3.org/1999/xlink">
    <title>user-shape</title>
    <g id="Wireframe" stroke="none" stroke-width="1" fill="none" fill-rule="evenodd">
        <g id="Sign-Up---Carrier-Photo" transform="translate(-158.000000, -155.000000)" fill="#FFFFFF" fill-rule="nonzero">
            <g id="Group-2" transform="translate(38.000000, 131.000000)">
                <g id="user-shape" transform="translate(120.000000, 24.000000)">
                    <path d="M30.4998495,33 C35.0555333,33 38.9439149,31.3881295 42.166048,28.1657431 C45.388482,24.9433567 47,21.0548509 47,16.4996237 C47,11.9451491 45.388482,8.05649277 42.166048,4.83335386 C38.9428614,1.61111795 35.0543293,0 30.4998495,0 C25.9453697,0 22.0562356,1.61111795 18.8341025,4.83335386 C15.6113675,8.05649277 14,11.9449986 14,16.4996237 C14,21.0548509 15.6113675,24.9433567 18.8341025,28.1657431 C22.0571386,31.3881295 25.9452192,33 30.4998495,33 Z" id="Path"></path>
                    <path d="M60.847044,51.3150835 C60.7456803,49.8587883 60.5432564,48.2862501 60.240531,46.5985299 C59.9371987,44.9108097 59.55405,43.3466071 59.0918437,41.9036487 C58.6296375,40.4617512 58.0085573,39.0553177 57.2287549,37.6849543 C56.449256,36.3147425 55.5539779,35.1467056 54.5424654,34.1799341 C53.5309529,33.2134657 52.2965313,32.4423521 50.839049,31.8655325 C49.3797457,31.2888645 47.7694591,31 46.0075821,31 C45.7479515,31 45.1412868,31.3100822 44.1880432,31.9303982 C43.2357101,32.5507142 42.1597073,33.2431705 40.9610968,34.0079188 C39.7626381,34.771303 38.2021229,35.464214 36.2822825,36.0834691 C34.3615316,36.7037851 32.4339524,37.0140189 30.4981791,37.0140189 C28.5631645,37.0140189 26.6354335,36.7037851 24.7149861,36.0834691 C22.7946905,35.464214 21.2346305,34.771303 20.0360201,34.0079188 C18.8375614,33.2431705 17.761862,32.5508658 16.8089219,31.9303982 C15.8555266,31.3100822 15.2493172,31 14.989383,31 C13.2276578,31 11.6173712,31.2888645 10.1589784,31.8655325 C8.70028209,32.4423521 7.46570878,33.2140719 6.45465152,34.1799341 C5.44389773,35.1467056 4.5484679,36.3147425 3.768969,37.6849543 C2.9894701,39.0553177 2.36854163,40.4623574 1.90633535,41.9036487 C1.44428082,43.3466071 1.06143563,44.9108097 0.758255016,46.5985299 C0.454770919,48.2862501 0.252650511,49.8577274 0.151438564,51.3150835 C0.0503783601,52.7724397 0,54.2652597 0,55.79415 C0,59.2550676 1.05445549,61.9889743 3.16260777,63.9938999 C5.27121528,65.9980677 8.07298046,67 11.5675998,67 L49.4322484,67 C52.9265643,67 55.728026,65.9980677 57.836937,63.9938999 C59.9463032,61.9889743 61,59.2555223 61,55.79415 C61,54.2652597 60.9493182,52.7724397 60.847044,51.3150835 Z" id="Path"></path>
                </g>
            </g>
        </g>
    </g>
</svg>