<?xml version="1.0" encoding="UTF-8"?>
<svg width="1138px" height="759px" viewBox="0 0 1138 759" version="1.1" xmlns="http://www.w3.org/2000/svg" xmlns:xlink="http://www.w3.org/1999/xlink">
    <!-- Generator: Sketch 56.3 (81716) - https://sketch.com -->
    <title>Resources-Illustration</title>
    <desc>Created with Sketch.</desc>
    <defs>
        <linearGradient x1="50%" y1="0%" x2="50%" y2="100%" id="linearGradient-1">
            <stop stop-color="#005191" offset="0%"></stop>
            <stop stop-color="#282E47" offset="100%"></stop>
        </linearGradient>
        <linearGradient x1="50%" y1="0%" x2="50%" y2="100%" id="linearGradient-2">
            <stop stop-color="#C8C8C8" offset="0%"></stop>
            <stop stop-color="#979797" offset="100%"></stop>
        </linearGradient>
        <linearGradient x1="50%" y1="0%" x2="50%" y2="100%" id="linearGradient-3">
            <stop stop-color="#ADADAD" stop-opacity="0.113772946" offset="0%"></stop>
            <stop stop-color="#201F1F" stop-opacity="0.0498798077" offset="100%"></stop>
        </linearGradient>
        <path d="M582.547426,538.423093 L582.547426,660.05583" id="path-4"></path>
        <filter x="-1800.0%" y="-11.1%" width="3100.0%" height="125.5%" filterUnits="objectBoundingBox" id="filter-5">
            <feMorphology radius="0.5" operator="dilate" in="SourceAlpha" result="shadowSpreadOuter1"></feMorphology>
            <feOffset dx="-3" dy="2" in="shadowSpreadOuter1" result="shadowOffsetOuter1"></feOffset>
            <feMorphology radius="1" operator="erode" in="SourceAlpha" result="shadowInner"></feMorphology>
            <feOffset dx="-3" dy="2" in="shadowInner" result="shadowInner"></feOffset>
            <feComposite in="shadowOffsetOuter1" in2="shadowInner" operator="out" result="shadowOffsetOuter1"></feComposite>
            <feGaussianBlur stdDeviation="4.5" in="shadowOffsetOuter1" result="shadowBlurOuter1"></feGaussianBlur>
            <feColorMatrix values="0 0 0 0 0   0 0 0 0 0   0 0 0 0 0  0 0 0 1 0" type="matrix" in="shadowBlurOuter1"></feColorMatrix>
        </filter>
        <path d="M685,527 L685,648.632737" id="path-6"></path>
        <filter x="-1800.0%" y="-11.1%" width="3100.0%" height="125.5%" filterUnits="objectBoundingBox" id="filter-7">
            <feMorphology radius="0.5" operator="dilate" in="SourceAlpha" result="shadowSpreadOuter1"></feMorphology>
            <feOffset dx="-3" dy="2" in="shadowSpreadOuter1" result="shadowOffsetOuter1"></feOffset>
            <feMorphology radius="1" operator="erode" in="SourceAlpha" result="shadowInner"></feMorphology>
            <feOffset dx="-3" dy="2" in="shadowInner" result="shadowInner"></feOffset>
            <feComposite in="shadowOffsetOuter1" in2="shadowInner" operator="out" result="shadowOffsetOuter1"></feComposite>
            <feGaussianBlur stdDeviation="4.5" in="shadowOffsetOuter1" result="shadowBlurOuter1"></feGaussianBlur>
            <feColorMatrix values="0 0 0 0 0   0 0 0 0 0   0 0 0 0 0  0 0 0 1 0" type="matrix" in="shadowBlurOuter1"></feColorMatrix>
        </filter>
    </defs>
    <g id="Resources-Illustration" stroke="none" stroke-width="1" fill="none" fill-rule="evenodd">
        <rect id="Rectangle" fill="#FFB351" x="0" y="0" width="1138" height="759"></rect>
        <path d="M1,720.578131 L56.3713904,720.578131 L56.3713904,714.517355 L128.59162,714.517355 L128.59162,711.753547 L134.592335,711.753547 L134.592335,694.932541 L136.599106,694.932541 L136.599106,689.880261 L149.720525,689.880261 L149.720525,694.932541 L172.083084,694.932541 L172.083084,707.037432 L186.644911,707.037432 L186.644911,700.244541 L208.809537,700.244541 L208.809537,707.037432 L232.724208,707.037432 L232.724208,710.016182 L238.84302,710.016182 L238.84302,714.517355 L246.790014,714.517355 L246.790014,722.134007 L256.948146,722.134007 L256.948146,689.880261 L263.297696,689.880261 L263.297696,673.248894 L273.321367,673.248894 L273.321367,665.868078 L305.927603,665.868078 L305.927603,673.248894 L314.915809,673.248894 L314.915809,689.880261 L320.435608,689.880261 L320.435608,657.628601 L322.415748,657.628601 L322.415748,623.853411 L325.293445,623.853411 L325.293445,620.304964 L327.73558,620.304964 L327.73558,612.555166 L346.881918,598.310801 L357.936457,598.310801 L378.251571,614.140299 L378.251571,621.830789 L383.619371,621.830789 L383.619371,641.05219 L417.785662,641.05219 L417.785662,616.564384 L433.608561,616.564384 L433.608561,596.055475 L463.444962,596.055475 L463.444962,616.564384 L469.580524,616.564384 L469.580524,606.721411 L489.219533,606.721411 L489.219533,616.564384 L505.680001,616.564384 L505.680001,603.367185 L508.833412,603.367185 L508.833412,596.055475 L510.609299,596.055475 L510.609299,586.550438 L515.244478,586.550438 L515.244478,578.913825 L520.475342,578.913825 L520.475342,575.502811 L523.652021,575.502811 L523.652021,563.623842 L525.06119,563.623842 L525.06119,554.574041 L526.377283,554.574041 L527.901866,554.574041 L527.901866,563.623842 L529.768968,563.623842 L529.768968,575.502811 L532.660835,575.502811 L532.660835,578.913825 L538.208157,578.913825 L538.208157,586.550438 L542.821928,586.550438 L542.821928,596.055475 L545.129279,596.055475 L545.129279,603.367185 L547.888048,603.367185 L547.888048,616.564384 L550.703593,616.564384 L550.703593,614.140299 L553.918434,614.140299 L553.918434,616.564384 L556.017201,616.564384 L556.017201,633.680899 L565.611164,633.680899 L565.611164,582.339845 L582.547426,538.423093 L582.547426,500.225349 C584.164283,498.867339 587.267157,498.188335 591.856048,498.188335 C596.444939,498.188335 599.547813,498.867339 601.16467,500.225349 L601.16467,512.781044 C636.518876,509.801443 654.19598,509.801443 654.19598,512.781044 C654.19598,515.760645 654.19598,558.517693 654.19598,641.05219 L660.353654,641.05219 L660.353654,530.02996 L666.419099,525.867887 L685.719405,525.867887 L685.719405,418.025946 C686.452907,416.97165 687.585139,416.033226 689.1161,415.210676 C690.647061,414.388126 691.927367,413.97685 692.957019,413.97685 L692.957019,405.627123 C694.080809,405.209041 696.034783,405 698.818939,405 C701.603096,405 703.796008,405.209041 705.397676,405.627123 L705.397676,411.320552 C723.643306,411.108696 734.242192,411.108696 737.194334,411.320552 C741.622546,411.638336 737.194334,413.97685 742.412275,413.97685 C745.890903,413.97685 747.717181,414.384984 747.89111,415.20125 L747.89111,495.123143 L758.555686,495.123143 L758.555686,500.225349 L782.223882,500.225349 L782.223882,520.374224 L792.799192,515.202275 L805.238044,515.202275 L805.238044,509.634176 L827.556552,509.634176 L827.556552,512.781044 L845.112108,512.781044 L853.314405,515.202275 L853.314405,662.656153 L856.262899,662.656153 L856.262899,638.789004 L860.905676,638.789004 L860.905676,633.680899 L866.162865,633.680899 L866.162865,630.031396 L876.223627,630.031396 L876.223627,616.564384 L906.067395,616.564384 L906.067395,612.555166 L921.591841,608.891583 L930.339152,608.891583 L930.339152,596.055475 L961.481138,596.055475 L961.481138,608.891583 L988.550749,608.891583 L988.550749,700.244541 L996.03708,700.244541 L996.03708,606.721411 L1020.66597,600.911037 L1020.66597,589.751139 L1054.55165,589.751139 L1054.55165,600.911037 L1079.36165,600.911037 L1079.36165,714.517355 L1104.56095,714.517355 L1104.56095,707.037432 L1107.61946,707.037432 L1107.61946,700.244541 L1118.5079,700.244541 L1118.5079,707.037432 L1127.41093,707.037432 L1130.48129,702.421755 L1138,702.421755 L1138,759 L1,759" id="Path-10" fill="url(#linearGradient-1)"></path>
        <path d="" id="Path-12" stroke="#979797"></path>
        <path d="M732,421 L732,427.869053 C732,428.421338 732.447715,428.869053 733,428.869053 L740.565144,428.869053 C741.117429,428.869053 741.565144,428.421338 741.565144,427.869053 L741.565144,421 C741.565144,420.447715 741.117429,420 740.565144,420 L733,420 C732.447715,420 732,420.447715 732,421 Z" id="Path-14" stroke="url(#linearGradient-2)" fill="#D8D8D8"></path>
        <g id="Path-11">
            <use fill="black" fill-opacity="1" filter="url(#filter-5)" xlink:href="#path-4"></use>
            <use stroke="url(#linearGradient-3)" stroke-width="1" xlink:href="#path-4"></use>
        </g>
        <g id="Path-11-Copy">
            <use fill="black" fill-opacity="1" filter="url(#filter-7)" xlink:href="#path-6"></use>
            <use stroke="url(#linearGradient-3)" stroke-width="1" xlink:href="#path-6"></use>
        </g>
    </g>
</svg>