<?xml version="1.0" encoding="UTF-8"?>
<svg width="20px" height="20px" viewBox="0 0 20 20" version="1.1" xmlns="http://www.w3.org/2000/svg" xmlns:xlink="http://www.w3.org/1999/xlink">
    <!-- Generator: Sketch 56.3 (81716) - https://sketch.com -->
    <title>calendar</title>
    <desc>Created with Sketch.</desc>
    <g id="Symbols" stroke="none" stroke-width="1" fill-rule="evenodd">
        <g id="Navbar" transform="translate(-98.000000, -17.000000)" fill-rule="nonzero">
            <g id="Group-11">
                <g id="Group-7" transform="translate(85.000000, 17.000000)">
                    <g id="calendar" transform="translate(13.000000, 0.000000)">
                        <path d="M18.1286621,18.0270386 C18.507843,18.0270386 18.8162231,17.7186584 18.8162231,17.3394775 L18.8162231,6.68762207 C18.8162231,6.30844117 18.507843,6.00006102 18.1286621,6.00006102 L1.87133789,6.00006102 C1.49215699,6.00006102 1.18377687,6.30844117 1.18377687,6.68762207 L1.18377687,17.3394775 C1.18377687,17.7186584 1.49215699,18.0270386 1.87133789,18.0270386 L18.1286621,18.0270386 Z M12.6664734,12.3065186 L12.6664734,17.4411011 L7.3335266,17.4411011 L7.3335266,12.3065186 L12.6664734,12.3065186 Z M7.3335266,11.7205811 L7.3335266,6.58599852 L12.6664734,6.58599852 L12.6664734,11.7205811 L7.3335266,11.7205811 Z M18.1286621,17.4411011 L13.2524109,17.4411011 L13.2524109,12.3065186 L18.2302856,12.3065186 L18.2302856,17.3394775 C18.2302856,17.3954773 18.1846619,17.4411011 18.1286621,17.4411011 L18.1286621,17.4411011 Z M18.2302856,6.68762207 L18.2302856,11.7205811 L13.2524109,11.7205811 L13.2524109,6.58599852 L18.1286621,6.58599852 C18.1846619,6.58599852 18.2302856,6.6316223 18.2302856,6.68762207 Z M1.87133789,6.58599852 L6.7475891,6.58599852 L6.7475891,11.7205811 L1.76971437,11.7205811 L1.76971437,6.68762207 C1.76971437,6.6316223 1.81533813,6.58599852 1.87133789,6.58599852 Z M1.76971437,17.3394775 L1.76971437,12.3065186 L6.7475891,12.3065186 L6.7475891,17.4411011 L1.87133789,17.4411011 C1.81533813,17.4411011 1.76971437,17.3954773 1.76971437,17.3394775 Z" id="Shape"></path>
                        <path d="M18.9179993,1.57852172 L17.9875183,1.57852172 L17.9875183,0.687561016 C17.9875183,0.308532734 17.6791382,0 17.2999573,0 L16.7475891,0 C16.3684082,0 16.0600281,0.308380117 16.0600281,0.687561016 L16.0600281,1.57852172 L14.475708,1.57852172 L14.475708,0.687561016 C14.475708,0.308532734 14.1671753,0 13.788147,0 L13.2356262,0 C12.8565979,0 12.5480652,0.308380117 12.5480652,0.687561016 L12.5480652,1.57852172 L10.9637451,1.57852172 L10.9637451,0.687561016 C10.9637451,0.308532734 10.655365,0 10.2761841,0 L9.72366332,0 C9.344635,0 9.0361023,0.308380117 9.0361023,0.687561016 L9.0361023,1.57852172 L7.45178223,1.57852172 L7.45178223,0.687561016 C7.45178223,0.308532734 7.14340211,0 6.76422117,0 L6.21185305,0 C5.83267211,0 5.52429199,0.308380117 5.52429199,0.687561016 L5.52429199,1.57852172 L3.93981934,1.57852172 L3.93981934,0.687561016 C3.93981934,0.308532734 3.63143922,0 3.25225828,0 L2.70004273,0 C2.3208618,0 2.01248168,0.308380117 2.01248168,0.687561016 L2.01248168,1.57852172 L1.08200074,1.57852172 C0.48538207,1.57852172 0,2.06390383 0,2.66052246 L0,6.26388551 C0,6.42578125 0.131225586,6.55685426 0.29296875,6.55685426 C0.454711914,6.55685426 0.5859375,6.42578125 0.5859375,6.26388551 L0.5859375,5.32333375 L19.4140625,5.32333375 L19.4140625,13.6849976 C19.4140625,13.8468933 19.5452881,13.9779663 19.7070312,13.9779663 C19.8687744,13.9779663 20,13.8468933 20,13.6849976 L20,2.66052246 C20,2.06390383 19.5146179,1.57852172 18.9179993,1.57852172 Z M16.6459656,0.687561016 C16.6459656,0.631561289 16.6915894,0.5859375 16.7475891,0.5859375 L17.2999573,0.5859375 C17.3561096,0.5859375 17.4015808,0.631561289 17.4015808,0.687561016 L17.4015808,3.05511477 C17.4015808,3.11126711 17.3561096,3.15673828 17.2999573,3.15673828 L16.7475891,3.15673828 C16.6915894,3.15673828 16.6459656,3.11126711 16.6459656,3.05511477 L16.6459656,0.687561016 Z M13.1340027,0.687561016 C13.1340027,0.631561289 13.1796265,0.5859375 13.2357788,0.5859375 L13.788147,0.5859375 C13.8441467,0.5859375 13.8897705,0.631561289 13.8897705,0.687561016 L13.8897705,3.05511477 C13.8897705,3.11126711 13.8441467,3.15673828 13.788147,3.15673828 L13.2357788,3.15673828 C13.1796265,3.15673828 13.1340027,3.11126711 13.1340027,3.05511477 L13.1340027,0.687561016 Z M9.62219238,0.687561016 C9.62219238,0.631561289 9.66766359,0.5859375 9.72381594,0.5859375 L10.2761841,0.5859375 C10.3323364,0.5859375 10.3779602,0.631561289 10.3779602,0.687561016 L10.3779602,3.05511477 C10.3779602,3.11126711 10.3323364,3.15673828 10.2761841,3.15673828 L9.72381594,3.15673828 C9.66766359,3.15673828 9.62219238,3.11126711 9.62219238,3.05511477 L9.62219238,0.687561016 Z M6.11022949,0.687561016 C6.11022949,0.631561289 6.15585328,0.5859375 6.21185305,0.5859375 L6.76437379,0.5859375 C6.82037352,0.5859375 6.8659973,0.631561289 6.8659973,0.687561016 L6.8659973,3.05511477 C6.8659973,3.11126711 6.82037352,3.15673828 6.76437379,3.15673828 L6.21185305,3.15673828 C6.15585328,3.15673828 6.11022949,3.11126711 6.11022949,3.05511477 L6.11022949,0.687561016 Z M2.59841918,0.687561016 C2.59841918,0.631561289 2.64389039,0.5859375 2.70004273,0.5859375 L3.2524109,0.5859375 C3.30841062,0.5859375 3.35403441,0.631561289 3.35403441,0.687561016 L3.35403441,3.05511477 C3.35403441,3.11126711 3.30841062,3.15673828 3.2524109,3.15673828 L2.70004273,3.15673828 C2.64389039,3.15673828 2.59841918,3.11126711 2.59841918,3.05511477 L2.59841918,0.687561016 Z M0.5859375,4.73739625 L0.5859375,2.66052246 C0.5859375,2.38693238 0.808410625,2.16445922 1.08200074,2.16445922 L2.01248168,2.16445922 L2.01248168,3.05526734 C2.01248168,3.43429566 2.3208618,3.74282836 2.70004273,3.74282836 L3.2524109,3.74282836 C3.6315918,3.74282836 3.93997191,3.43429566 3.93997191,3.05526734 L3.93997191,2.16445922 L5.52429199,2.16445922 L5.52429199,3.05526734 C5.52429199,3.43429566 5.83282469,3.74282836 6.21185305,3.74282836 L6.76437379,3.74282836 C7.14340211,3.74282836 7.4519348,3.43429566 7.4519348,3.05526734 L7.4519348,2.16445922 L9.03625488,2.16445922 L9.03625488,3.05526734 C9.03625488,3.43429566 9.344635,3.74282836 9.72381594,3.74282836 L10.2763367,3.74282836 C10.655365,3.74282836 10.9638977,3.43429566 10.9638977,3.05526734 L10.9638977,2.16445922 L12.5482178,2.16445922 L12.5482178,3.05526734 C12.5482178,3.43429566 12.8565979,3.74282836 13.2357788,3.74282836 L13.788147,3.74282836 C14.1673279,3.74282836 14.475708,3.43429566 14.475708,3.05526734 L14.475708,2.16445922 L16.0601807,2.16445922 L16.0601807,3.05526734 C16.0601807,3.43429566 16.3685608,3.74282836 16.7477417,3.74282836 L17.3001098,3.74282836 C17.6792908,3.74282836 17.9876709,3.43429566 17.9876709,3.05526734 L17.9876709,2.16445922 L18.9179993,2.16445922 C19.1915894,2.16445922 19.4140625,2.38693238 19.4140625,2.66052246 L19.4140625,4.73739625 L0.5859375,4.73739625 Z" id="Shape"></path>
                        <path d="M19.7070312,14.7633362 C19.5452881,14.7633362 19.4140625,14.8944092 19.4140625,15.0563049 L19.4140625,18.1288147 C19.4140625,18.4024048 19.1915894,18.6250305 18.9179993,18.6250305 L1.08200074,18.6250305 C0.808410625,18.6250305 0.5859375,18.4024048 0.5859375,18.1288147 L0.5859375,7.63275148 C0.5859375,7.47100828 0.454711914,7.33978273 0.29296875,7.33978273 C0.131225586,7.33978273 0,7.47100828 0,7.63275148 L0,18.1288147 C0,18.7254334 0.48538207,19.210968 1.08200074,19.210968 L18.9179993,19.210968 C19.5146179,19.210968 20,18.7254334 20,18.1288147 L20,15.0563049 C20,14.8944092 19.8687744,14.7633362 19.7070312,14.7633362 Z" id="Path"></path>
                    </g>
                </g>
            </g>
        </g>
    </g>
</svg>