<?xml version="1.0" encoding="UTF-8"?>
<svg width="152px" height="152px" viewBox="0 0 152 152" version="1.1" xmlns="http://www.w3.org/2000/svg" xmlns:xlink="http://www.w3.org/1999/xlink">
    <title>mentor-icon</title>
    <g id="mentor-icon" stroke="none" stroke-width="1" fill="none" fill-rule="evenodd">
        <rect fill="#FAA71B" x="0" y="0" width="152" height="152"></rect>
        <g id="question-inactive" transform="translate(33.000000, 33.000000)" fill="#FFFFFF" fill-rule="nonzero">
            <path d="M85.989864,55.1652676 C85.8826996,53.2230956 84.9348507,51.4443844 83.3888646,50.2853955 C80.8876387,48.4097623 77.416728,48.6053035 75.1368853,50.7508243 L61.2695352,63.8016678 C61.3540239,60.9303361 59.4863767,58.3961095 56.6891896,57.6789554 L39.7532149,53.3351246 C36.7831877,52.573159 33.6734102,52.6760219 30.7588128,53.6323402 L19.050872,57.4735694 L19.050872,54.0690826 C19.050872,53.1317753 18.298707,52.3718468 17.3713503,52.3718468 L1.67952168,52.3718468 C0.751997054,52.3718468 0,53.1319452 0,54.0690826 L0,84.3027638 C0,85.2400715 0.752165025,86 1.67952168,86 L17.3715183,86 C18.2990429,86 19.05104,85.2399016 19.05104,84.3027638 L19.05104,61.0427044 L31.7961891,56.8611454 C34.1069382,56.1027443 36.5727226,56.0216087 38.9269756,56.6252059 L55.8631181,60.9690371 C57.1784834,61.3064812 58.0354611,62.5418532 57.900582,63.9069067 C57.7611676,65.3181297 56.5974786,66.3825731 55.1939298,66.3825731 L43.3887351,66.3825731 C42.4612106,66.3825731 41.7092135,67.1426711 41.7092135,68.0798089 C41.7092135,69.0171162 42.4613785,69.7770447 43.3887351,69.7770447 L47.0071226,69.7770447 C47.070279,69.7843436 47.1342751,69.7889267 47.1994473,69.7889267 L55.5288602,69.7889267 C58.3070667,69.7889267 60.9567774,68.7350077 62.9902095,66.821692 L77.4266382,53.2349776 C78.5209561,52.204992 80.1870401,52.1112952 81.3880183,53.0115992 C82.1301051,53.567839 82.5849648,54.4216342 82.6363636,55.3540191 C82.6879302,56.286404 82.3293161,57.1858593 81.6530732,57.8222167 L61.7655478,76.5310221 C60.3937454,77.8213898 58.6058835,78.5320936 56.7318538,78.5320936 L30.7040549,78.5320936 C29.7765303,78.5320936 29.0245332,79.292192 29.0245332,80.2293299 C29.0245332,81.1666372 29.7766983,81.9265657 30.7040549,81.9265657 L56.7321896,81.9265657 C59.4583261,81.9265657 62.0588215,80.8926758 64.0546286,79.0155148 L83.9416505,60.3067093 C85.3504058,58.981375 86.0970283,57.1074391 85.989864,55.1652676 Z M15.6919967,82.605528 L3.35904336,82.605528 L3.35904336,55.7664883 L15.6918287,55.7664883 L15.6918287,82.605528 L15.6919967,82.605528 Z" id="Shape"></path>
            <path d="M25.1053125,78.895469 C24.813125,78.6046874 24.4115625,78.4376562 24.0007812,78.4376562 C23.588125,78.4376562 23.1867188,78.6046874 22.8946875,78.895469 C22.6040625,79.1860938 22.436875,79.589219 22.436875,80 C22.436875,80.4107814 22.6039062,80.8140626 22.8946875,81.104375 C23.186875,81.3950002 23.5882812,81.5623438 24.0007812,81.5623438 C24.4117188,81.5623438 24.8132812,81.3951562 25.1053125,81.104375 C25.3957812,80.8139062 25.563125,80.4107814 25.563125,80 C25.563125,79.589219 25.3959375,79.1860938 25.1053125,78.895469 Z" id="Path"></path>
            <path d="M11.103125,77.8954686 C10.8139062,77.6048434 10.4107812,77.4376562 10,77.4376562 C9.5875,77.4376562 9.184375,77.603281 8.89390624,77.8954686 C8.60343748,78.1860938 8.43765624,78.5878122 8.43765624,79 C8.43765624,79.4109374 8.60343748,79.8140622 8.89390624,80.104531 C9.18609376,80.3949998 9.58765624,80.5623438 10,80.5623438 C10.4109375,80.5623438 10.8125,80.3951562 11.103125,80.104531 C11.3951562,79.8139062 11.5623438,79.410781 11.5623438,79 C11.5623438,78.5874998 11.3951562,78.1860938 11.103125,77.8954686 Z" id="Path"></path>
            <path d="M42.9999166,0 C34.7289859,0 28,6.698808 28,14.9326454 C28,17.6773132 30.2429953,19.9102492 33.0000277,19.9102492 C35.7570602,19.9102492 38.0000555,17.6773132 38.0000555,14.9326454 C38.0000555,12.1879776 40.2430508,9.95504163 43.0000833,9.95504163 C45.7571156,9.95504163 48.0001111,12.1879776 48.0001111,14.9326454 C48.0001111,17.6773132 45.7571156,19.9102492 43.0000833,19.9102492 C40.2430508,19.9102492 38.0000555,22.1431852 38.0000555,24.8878529 L38.0000555,32.0223962 C38.0000555,34.767064 40.2430508,37 43.0000833,37 C45.7571156,37 48.0001111,34.767064 48.0001111,32.0223962 L48.0001111,29.0130682 C53.9488739,26.9226671 58,21.3062282 58,14.9326454 C58,6.69864208 51.2708471,0 42.9999166,0 Z M45.9164607,26.1796272 C45.1805739,26.3687888 44.6667039,27.0296927 44.6667039,27.7860071 L44.6667039,32.0220644 C44.6667039,32.937009 43.9189831,33.6812103 43.0000833,33.6812103 C42.0810169,33.6812103 41.3334629,32.936843 41.3334629,32.0220644 L41.3334629,24.8875211 C41.3334629,23.9725765 42.0811836,23.2283751 43.0000833,23.2283751 C47.5950817,23.2283751 51.3333519,19.5068704 51.3333519,14.9324795 C51.3333519,10.3580885 47.5950817,6.63658379 43.0000833,6.63658379 C38.4050848,6.63658379 34.6668148,10.3580885 34.6668148,14.9324795 C34.6668148,15.847424 33.9190941,16.5916254 33.0001945,16.5916254 C32.0811281,16.5916254 31.3335741,15.8472581 31.3335741,14.9324795 C31.3335741,8.52836525 36.5671187,3.31812596 43.00025,3.31812596 C49.4333811,3.31812596 54.666926,8.52836525 54.666926,14.9324795 C54.6665923,20.2298326 51.0683327,24.8548326 45.9164607,26.1796272 Z" id="Shape"></path>
            <path d="M46.5368533,42.46648 C45.6074271,41.5343868 44.3182985,41 43,41 C41.6818681,41 40.3925725,41.5345535 39.4663133,42.463313 C38.5343867,43.3927394 38,44.6818684 38,46 C38,47.318132 38.5345534,48.6074275 39.4646464,49.535187 C40.3957395,50.4662801 41.6842017,51 43,51 C44.3159648,51 45.6045937,50.4659468 46.5351866,49.535187 C47.4662796,48.604094 48,47.3156315 48,46 C48.0001663,44.6843685 47.4662796,43.3957395 46.5368533,42.46648 Z M44.1777844,47.1782845 C43.8720869,47.4841484 43.4315432,47.6668334 42.9999999,47.6668334 C42.56829,47.6668334 42.1275793,47.4841484 41.8202152,47.1767846 C41.5153514,46.8727542 41.3333332,46.4327102 41.3333332,46.0001668 C41.3333332,45.5609562 41.5106843,45.13208 41.8232156,44.8205489 C42.1274126,44.5156847 42.5674566,44.3334999 42.9999999,44.3334999 C43.4327098,44.3334999 43.8724205,44.5155183 44.1779508,44.8222156 C44.4839816,45.1279128 44.6666666,45.5684569 44.6666666,46.0001668 C44.6666666,46.4318768 44.4839816,46.8722541 44.1777844,47.1782845 Z" id="Shape"></path>
            <path d="M10,60 C9.13718748,60 8.43765624,60.7508474 8.43765624,61.6765797 L8.43765624,72.3234203 C8.43765624,73.24932 9.13718748,74 10,74 C10.8628125,74 11.5623438,73.2491526 11.5623438,72.3234203 L11.5623438,61.6765797 C11.5623438,60.7508474 10.8626562,60 10,60 Z" id="Path"></path>
        </g>
    </g>
</svg>