<?xml version="1.0" encoding="UTF-8"?>
<svg width="172px" height="172px" viewBox="0 0 172 172" version="1.1" xmlns="http://www.w3.org/2000/svg" xmlns:xlink="http://www.w3.org/1999/xlink">
    <title>my-favorite-jobs-blue</title>
    <defs>
        <filter x="-18.2%" y="-18.5%" width="136.4%" height="136.9%" filterUnits="objectBoundingBox" id="filter-1">
            <feOffset dx="0" dy="2" in="SourceAlpha" result="shadowOffsetOuter1"></feOffset>
            <feGaussianBlur stdDeviation="2" in="shadowOffsetOuter1" result="shadowBlurOuter1"></feGaussianBlur>
            <feColorMatrix values="0 0 0 0 0   0 0 0 0 0   0 0 0 0 0  0 0 0 0.5 0" type="matrix" in="shadowBlurOuter1" result="shadowMatrixOuter1"></feColorMatrix>
            <feMerge>
                <feMergeNode in="shadowMatrixOuter1"></feMergeNode>
                <feMergeNode in="SourceGraphic"></feMergeNode>
            </feMerge>
        </filter>
    </defs>
    <g id="my-favorite-jobs-blue" stroke="none" stroke-width="1" fill="none" fill-rule="evenodd">
        <g id="Group-3" transform="translate(5.000000, 14.000000)">
            <g id="heart-inactive" fill="#005191" fill-rule="nonzero">
                <path d="M129.119888,8.68380594 C113.814713,-4.55456785 91.0524561,-2.17336141 77.0040936,12.5390925 L71.502051,18.2936746 L66,12.5390925 C51.9795751,-2.17336141 29.1893884,-4.55456785 13.8842142,8.68380594 C-3.65529207,23.8781708 -4.57695402,51.1486538 11.1192284,67.6186648 L65.1621338,124.25736 C68.6532779,127.914213 74.322895,127.914213 77.8140391,124.25736 L131.856944,67.6186648 C147.581056,51.1486538 146.659394,23.8781708 129.119888,8.68380594 Z" id="Path"></path>
            </g>
            <g id="Group" filter="url(#filter-1)" transform="translate(96.000000, 80.000000)">
                <g id="Group-2">
                    <ellipse id="Oval" fill="#FF1F1F" cx="33" cy="32.5" rx="33" ry="32.5"></ellipse>
                    <path id="Line-3" d="M24.9375,15 L58.9375,32 L24.9375,49 L24.937,35 L7.0625,35 L7.0625,29 L24.937,29 L24.9375,15 Z" fill="#FFFFFF" fill-rule="nonzero"></path>
                </g>
            </g>
        </g>
    </g>
</svg>