<?xml version="1.0" encoding="UTF-8"?>
<svg width="20px" height="22px" viewBox="0 0 20 22" version="1.1" xmlns="http://www.w3.org/2000/svg" xmlns:xlink="http://www.w3.org/1999/xlink">
    <!-- Generator: Sketch 56.3 (81716) - https://sketch.com -->
    <title>post</title>
    <desc>Created with Sketch.</desc>
    <g id="Symbols" stroke="none" stroke-width="1" fill-rule="evenodd">
        <g id="Navbar" transform="translate(-170.000000, -16.000000)" fill-rule="nonzero">
            <g id="Group-11">
                <g id="Group-8" transform="translate(157.000000, 16.000000)">
                    <g id="post" transform="translate(13.000000, 0.000000)">
                        <polygon id="Path" fill="#6D7278" points="19.9866706 3.58764071 19.9866706 19.526992 15.8880702 19.526992 15.8677059 19.521253 19.7569239 6.12614782 11.0146993 3.58764071"></polygon>
                        <polygon id="Path" points="10.1208901 3.32845825 11.0146993 3.58764071 19.7569239 6.12614782 15.8677059 19.521253 15.3128702 21.4330939 0.00573905213 16.9890403 4.44979265 1.68190905 8.35678318 2.81620261"></polygon>
                        <path d="M9.31983118,7.38003555 C8.66817242,7.38003555 8.13981043,6.85167355 8.13981043,6.20001479 L8.13981043,4.62455569 C8.13981043,4.41517327 8.30957493,4.24540877 8.51895735,4.24540877 C8.72833976,4.24540877 8.89810427,4.41517327 8.89810427,4.62455569 L8.89810427,6.20001479 C8.89810427,6.43290877 9.0869372,6.62174171 9.31983118,6.62174171 C9.55291024,6.62174171 9.74174318,6.43290877 9.74174318,6.20001479 L9.74174318,1.18002076 C9.74137294,0.947311896 9.55272512,0.758664076 9.31983118,0.758293839 L9.15969341,0.758293839 C8.92679948,0.758664076 8.73815166,0.947311896 8.73796654,1.18002076 L8.73796654,2.80898251 C8.73796654,3.01836493 8.56820199,3.18812943 8.35881962,3.18812943 C8.1494372,3.18812943 7.9796727,3.01836493 7.9796727,2.80898251 L7.9796727,1.18002076 C7.98041322,0.528732227 8.50821981,0.000740521327 9.15969341,0 L9.31983118,0 C9.97130479,0.000740521327 10.4992965,0.528732227 10.500037,1.18002076 L10.500037,6.20001479 C10.4992965,6.85148844 9.97130479,7.37929502 9.31983118,7.38003555 Z" id="Path" fill="#6D7278"></path>
                    </g>
                </g>
            </g>
        </g>
    </g>
</svg>