<?xml version="1.0" encoding="UTF-8"?>
<svg width="120px" height="95px" viewBox="0 0 120 95" version="1.1" xmlns="http://www.w3.org/2000/svg" xmlns:xlink="http://www.w3.org/1999/xlink">
    <!-- Generator: Sketch 56.3 (81716) - https://sketch.com -->
    <title>Artboard</title>
    <desc>Created with Sketch.</desc>
    <g id="Artboard" stroke="none" stroke-width="1" fill="none" fill-rule="evenodd">
        <g id="check-circle" transform="translate(13.000000, 0.000000)" fill-rule="nonzero">
            <path d="M95,47.5 C95,73.7335988 73.7335988,95 47.5,95 C21.2664012,95 0,73.7335988 0,47.5 C0,21.2664012 21.2664012,0 47.5,0 C73.7335988,0 95,21.2664012 95,47.5 Z" id="Path"></path>
            <path d="M77.2476411,37.4089315 C78.4443347,36.2122379 78.4443347,34.2718246 77.2476411,33.075131 L72.9138407,28.7413306 C71.7171472,27.5444456 69.7767339,27.5444456 68.5798488,28.7413306 L39.8387097,57.4822782 L26.4201512,44.0637198 C25.2234577,42.8670262 23.2830444,42.8670262 22.0861593,44.0637198 L17.7523589,48.3975202 C16.5556653,49.5942137 16.5556653,51.534627 17.7523589,52.7313206 L37.6717137,72.6506754 C38.8685988,73.8475605 40.8088206,73.8475605 42.0057056,72.6508669 L77.2476411,37.4089315 Z" id="Path" fill="#FFFFFF"></path>
        </g>
    </g>
</svg>