<?xml version="1.0" encoding="UTF-8"?>
<svg width="252px" height="285px" viewBox="0 0 252 285" version="1.1" xmlns="http://www.w3.org/2000/svg" xmlns:xlink="http://www.w3.org/1999/xlink">
    <!-- Generator: Sketch 56.3 (81716) - https://sketch.com -->
    <title>comments-icon</title>
    <desc>Created with Sketch.</desc>
    <g id="comments-icon" stroke="none" stroke-width="1" fill="none" fill-rule="evenodd">
        <g id="Group-3" transform="translate(4.000000, 20.000000)">
            <circle id="Oval" fill="#E6F6FC" cx="122.5" cy="122.5" r="122.5"></circle>
            <g id="Group-2" transform="translate(75.000000, 76.000000)" fill="#005191">
                <path d="M7.78071106,0 L85.5854681,0 C88.7263868,0.516841936 90.7659245,1.57519904 91.7040812,3.17507132 C92.6422379,4.77494359 93.0710236,6.81848869 92.9904382,9.30570662 L92.9904382,63.1225436 C92.7541416,65.2082504 92.1252362,66.8845237 91.1037221,68.1513634 C90.0822079,69.4182031 88.2427899,70.3677487 85.5854681,71 L7.50730506,71 C5.16064309,70.5690712 3.35197391,69.4582928 2.0812975,67.6676649 C0.810621091,65.877037 0.122508556,64.2909921 0.0169598945,62.9095302 L0.0169598945,9.55584014 C-0.119599488,7.41870847 0.568513047,5.29178553 2.0812975,3.17507132 C3.59408195,1.05835711 5.49388647,0 7.78071106,0 Z M16.8287671,10.1428571 C13.5150586,10.1428571 10.8287671,12.8291486 10.8287671,16.1428571 L10.8287671,54.8571429 C10.8287671,58.1708514 13.5150586,60.8571429 16.8287671,60.8571429 L76.8082192,60.8571429 C80.1219277,60.8571429 82.8082192,58.1708514 82.8082192,54.8571429 L82.8082192,16.1428571 C82.8082192,12.8291486 80.1219277,10.1428571 76.8082192,10.1428571 L16.8287671,10.1428571 Z" id="Combined-Shape"></path>
                <polyline id="Path-6" points="63.584043 64.4184412 36 93 85 71.1802459 84.736979 61 63.584043 61"></polyline>
                <g id="Group" transform="translate(20.000000, 21.000000)">
                    <rect id="Rectangle" x="0" y="0" width="54" height="6.30434783" rx="3"></rect>
                    <rect id="Rectangle-Copy" x="0" y="11.3478261" width="43.2" height="6.30434783" rx="3"></rect>
                    <rect id="Rectangle-Copy-2" x="0" y="22.6956522" width="34.3058824" height="6.30434783" rx="3"></rect>
                </g>
            </g>
        </g>
    </g>
</svg>