<?xml version="1.0" encoding="UTF-8"?>
<svg width="152px" height="172px" viewBox="0 0 152 172" version="1.1" xmlns="http://www.w3.org/2000/svg" xmlns:xlink="http://www.w3.org/1999/xlink">
    <!-- Generator: Sketch 56.3 (81716) - https://sketch.com -->
    <title>my-favorite-jobs</title>
    <desc>Created with Sketch.</desc>
    <defs>
        <filter x="-14.0%" y="-14.1%" width="127.9%" height="128.2%" filterUnits="objectBoundingBox" id="filter-1">
            <feOffset dx="0" dy="2" in="SourceAlpha" result="shadowOffsetOuter1"></feOffset>
            <feGaussianBlur stdDeviation="2" in="shadowOffsetOuter1" result="shadowBlurOuter1"></feGaussianBlur>
            <feColorMatrix values="0 0 0 0 0   0 0 0 0 0   0 0 0 0 0  0 0 0 0.5 0" type="matrix" in="shadowBlurOuter1" result="shadowMatrixOuter1"></feColorMatrix>
            <feMerge>
                <feMergeNode in="shadowMatrixOuter1"></feMergeNode>
                <feMergeNode in="SourceGraphic"></feMergeNode>
            </feMerge>
        </filter>
    </defs>
    <g id="my-favorite-jobs" stroke="none" stroke-width="1" fill="none" fill-rule="evenodd">
        <g id="heart-inactive" transform="translate(4.000000, 23.000000)" fill-rule="nonzero" stroke="#005191" stroke-width="10">
            <path d="M129.119888,8.68380594 C113.814713,-4.55456785 91.0524561,-2.17336141 77.0040936,12.5390925 L71.502051,18.2936746 L66,12.5390925 C51.9795751,-2.17336141 29.1893884,-4.55456785 13.8842142,8.68380594 C-3.65529207,23.8781708 -4.57695402,51.1486538 11.1192284,67.6186648 L65.1621338,124.25736 C68.6532779,127.914213 74.322895,127.914213 77.8140391,124.25736 L131.856944,67.6186648 C147.581056,51.1486538 146.659394,23.8781708 129.119888,8.68380594 Z" id="Path"></path>
        </g>
        <g id="Group" filter="url(#filter-1)" transform="translate(66.000000, 51.000000)">
            <ellipse id="Oval" fill="#005191" cx="43" cy="42.5" rx="43" ry="42.5"></ellipse>
            <path id="Line-3" d="M42.6880482,45.5 L9.7066886,45.5 L9.7066886,39.5 L42.6880482,39.5 L42.6880482,25.5 L76.6880482,42.5 L42.6880482,59.5 L42.6880482,45.5 Z" fill="#FFFFFF" fill-rule="nonzero"></path>
        </g>
    </g>
</svg>