<?xml version="1.0" encoding="UTF-8"?>
<svg width="84px" height="84px" viewBox="0 0 84 84" version="1.1" xmlns="http://www.w3.org/2000/svg" xmlns:xlink="http://www.w3.org/1999/xlink">
    <!-- Generator: Sketch 56.3 (81716) - https://sketch.com -->
    <title>Group 3</title>
    <desc>Created with Sketch.</desc>
    <g id="Images" stroke="none" stroke-width="1" fill="none" fill-rule="evenodd">
        <g id="Artboard" transform="translate(-420.000000, -1071.000000)" fill-rule="nonzero">
            <g id="Group-3" transform="translate(420.000000, 1071.000000)">
                <g id="Group-2">
                    <path d="M41.66,-6.39488462e-14 C18.63,-6.39488462e-14 2.84217094e-14,18.654 2.84217094e-14,41.664 C2.84217094e-14,64.668 18.63,83.332 41.66,83.332 C64.66,83.332 83.33,64.668 83.33,41.664 C83.33,18.654 64.66,-6.39488462e-14 41.66,-6.39488462e-14 L41.66,-6.39488462e-14 Z" id="Path" fill="#FFFFFF"></path>
                    <path d="M41.67,2.442 C20,2.442 2.4,20.087 2.4,41.76 C2.4,46.746 3.33,51.501 5.03,55.877 C5.12,56.123 5.3,56.588 5.87,56.342 C6.46,56.05 10.01,54.405 10.63,54.133 C11.27,53.856 10.99,53.372 10.9,53.106 C9.58,49.561 8.87,45.742 8.87,41.76 C8.87,23.65 23.57,8.936 41.67,8.936 C59.72,8.936 74.44,23.65 74.44,41.76 C74.44,46.337 73.49,50.685 71.8,54.656 C71.68,54.898 71.57,55.379 72.17,55.641 C72.73,55.898 76.19,57.419 76.67,57.606 C77.13,57.833 77.49,57.782 77.81,57.092 C79.81,52.359 80.91,47.173 80.91,41.76 C80.91,20.087 63.3,2.442 41.67,2.442 Z" id="Path" fill="#FFB351"></path>
                    <path d="M41.67,11.502 C24.98,11.502 11.42,25.082 11.42,41.76 C11.42,45.43 12.09,48.952 13.3,52.219 C13.37,52.42 13.52,52.819 14.04,52.582 C14.52,52.329 16.21,51.567 16.66,51.34 C17.12,51.148 17.01,50.76 16.94,50.584 C15.95,47.822 15.41,44.87 15.41,41.76 C15.41,27.264 27.18,15.498 41.67,15.498 C56.11,15.498 67.89,27.264 67.89,41.76 C67.89,45.47 67.12,48.992 65.72,52.192 C65.65,52.358 65.52,52.758 65.97,52.924 C66.37,53.106 68.26,53.947 68.6,54.104 C68.97,54.255 69.21,54.188 69.39,53.754 C71,50.085 71.88,46.019 71.88,41.76 C71.88,25.082 58.33,11.502 41.67,11.502 L41.67,11.502 Z" id="Path" fill="#FFB351"></path>
                    <path d="M41.67,18.109 C28.61,18.109 18.04,28.706 18.04,41.76 C18.04,44.437 18.49,46.991 19.3,49.395 C19.42,49.758 19.61,49.996 20.04,49.799 C20.46,49.598 21.44,49.163 21.88,48.951 C22.38,48.695 22.31,48.487 22.16,48.078 C21.5,46.078 21.17,43.957 21.17,41.76 C21.17,30.455 30.37,21.254 41.67,21.254 C52.95,21.254 62.13,30.455 62.13,41.76 C62.13,44.649 61.52,47.425 60.44,49.91 C60.34,50.086 60.33,50.438 60.63,50.594 C60.96,50.735 62.2,51.294 62.57,51.436 C62.94,51.582 63.16,51.497 63.36,51.109 C64.6,48.225 65.28,45.076 65.28,41.76 C65.28,28.706 54.7,18.109 41.67,18.109 Z" id="Path" fill="#FFB351"></path>
                    <path d="M41.68,24.809 C39.33,24.809 37.48,26.679 37.48,29.027 C37.48,31.352 39.33,33.227 41.68,33.227 C43.99,33.227 45.89,31.352 45.89,29.027 C45.89,26.679 43.99,24.809 41.68,24.809 L41.68,24.809 Z" id="Path" fill="#FF443B"></path>
                    <path d="M30.9,28.178 C30.53,28.178 30.15,28.324 29.87,28.619 L28.27,30.201 C27.69,30.766 27.69,31.734 28.27,32.318 L36.97,41.002 C37.79,41.874 38.6,43.378 38.64,44.547 L38.64,53.775 C38.64,54.597 39.3,55.262 40.13,55.262 L43.22,55.262 C44.04,55.262 44.69,54.597 44.69,53.775 L44.69,44.547 C44.74,43.378 45.57,41.874 46.38,41.002 L55.07,32.318 C55.66,31.734 55.66,30.766 55.07,30.201 L53.48,28.619 C52.91,28.029 51.95,28.029 51.38,28.619 L43.54,36.477 C43,36.986 42.64,37.303 41.68,37.303 C40.7,37.303 40.32,36.986 39.81,36.477 L31.96,28.619 C31.67,28.324 31.28,28.178 30.9,28.178 L30.9,28.178 Z" id="Path" fill="#FF443B"></path>
                    <path d="M70.62,58.5280038 C69.1518,59.0722738 66.4044,61.7837038 65.1697,62.8876038 L64.82453,62.9387438 C65.26488,62.4538638 67.15823,60.0497438 67.65433,59.2283438 C69.15173,56.7434438 66.32573,54.4051438 63.22433,56.1848438 C62.03913,56.8599438 60.06833,58.9310438 59.11413,59.6869438 L58.81592,59.7621938 C59.24103,59.3349238 60.99852,57.0358938 61.45672,56.2898938 C62.82342,54.2787938 59.97712,52.3689938 57.52542,53.8559938 C55.78942,54.8984938 54.36942,56.3210938 52.91392,57.4498938 L52.66012,57.5142338 C53.0497,57.1365838 54.02552,55.9825338 54.39612,55.5800338 C55.84532,53.9516338 53.77052,52.0765338 51.58282,53.2206338 C49.48392,54.2887338 46.46752,57.3036338 43.16312,59.4202338 C44.69482,60.2471038 47.39142,60.3734938 51.66402,62.1976338 C55.95062,64.0267338 57.33642,68.2857338 54.53702,71.6480338 C51.95342,74.7635338 48.01822,73.7150338 44.63002,72.6553338 C40.69872,71.4259338 39.30412,70.1560338 34.57202,68.5127338 C31.48202,67.4346338 30.21432,67.4494338 30.27272,66.5671338 C30.32342,65.5545338 32.99722,66.1591538 35.49712,67.0663538 C42.43972,69.5859538 51.65412,75.2973538 53.91612,69.1373538 C55.70542,64.2844538 47.70822,62.1777538 44.64492,61.5978538 C40.38372,60.7760638 37.44472,57.6556538 33.75192,55.6653538 C28.17092,52.6564538 23.87922,52.5810538 20.69492,53.1546538 C17.26742,53.7644038 12.38312,56.5625538 9.42792,58.3411538 C7.37092,59.5565538 7.52442,61.4155538 9.52817,64.2632538 C16.65097,74.3792538 28.38017,80.9932538 41.66117,80.9932538 C55.74317,80.9932538 68.10517,73.5132538 75.02517,62.3792538 C76.56577,59.8943538 74.15211,57.2736538 70.61927,58.5287538" id="Path" fill="#005191"></path>
                </g>
            </g>
        </g>
    </g>
</svg>