<?xml version="1.0" encoding="UTF-8"?>
<svg width="249px" height="105px" viewBox="0 0 249 105" version="1.1" xmlns="http://www.w3.org/2000/svg" xmlns:xlink="http://www.w3.org/1999/xlink">
    <!-- Generator: Sketch 56.3 (81716) - https://sketch.com -->
    <title>United_Way_Worldwide_logo</title>
    <desc>Created with Sketch.</desc>
    <g id="Images" stroke="none" stroke-width="1" fill="none" fill-rule="evenodd">
        <g id="Artboard" transform="translate(-232.000000, -1193.000000)" fill-rule="nonzero">
            <g id="United_Way_Worldwide_logo" transform="translate(232.000000, 1193.000000)">
                <polyline id="Path" fill="#539ED0" points="248.17 104.57 147.28 104.57 147.28 0.12 248.17 0.12 248.17 104.57"></polyline>
                <polyline id="Path" fill="#005191" points="147.28 104.57 0.17 104.57 0.17 0.12 147.28 0.12 147.28 104.57"></polyline>
                <path d="M197.73,9.99599619 C174.7,9.99599619 156.07,28.6499962 156.07,51.6599962 C156.07,74.6639962 174.7,93.3279962 197.73,93.3279962 C220.73,93.3279962 239.4,74.6639962 239.4,51.6599962 C239.4,28.6499962 220.73,9.99599619 197.73,9.99599619 L197.73,9.99599619 Z M69.71,11.7619962 C67.827,11.7619962 66.374,13.3339962 66.374,15.3239962 C66.374,17.2849962 67.863,18.9039962 69.71,18.9039962 C71.522,18.9039962 72.972,17.2849962 72.972,15.3239962 C72.972,13.3659962 71.522,11.7619962 69.71,11.7619962 L69.71,11.7619962 Z M127.143,11.8869962 C126.473,11.8869962 126.343,11.9519962 126.343,12.7399962 C126.343,15.3509962 127.053,16.2229962 129.213,16.2659962 L129.363,16.2659962 L129.363,21.9709962 L128.913,21.6639962 C128.083,21.0799962 126.963,20.2989962 124.553,20.2989962 C118.923,20.2989962 115.923,25.2309962 115.923,34.5719962 C115.923,42.4549962 118.653,46.8109962 123.603,46.8109962 C127.523,46.8109962 130.103,43.9379962 130.103,43.9379962 L130.413,45.0059962 C130.643,45.8429962 130.693,45.9379962 131.363,45.9379962 L137.723,45.9379962 C138.373,45.9379962 138.493,45.8719962 138.493,45.0659962 C138.493,42.4149962 137.793,41.5429962 135.353,41.5429962 C135.053,40.5699962 134.863,39.5539962 134.863,37.1189962 L134.863,12.4119962 C134.863,11.9509962 134.823,11.8869962 134.363,11.8869962 L127.143,11.8869962 L127.143,11.8869962 Z M8.433,13.5019962 C7.7445,13.5019962 7.6323,13.5849962 7.6323,14.3979962 C7.6323,17.1839962 8.3446,18.0329962 10.7693,18.0329962 L10.9093,18.0329962 L10.9093,34.3009962 C10.9093,43.0599962 14.1583,46.8109962 21.7593,46.8109962 C29.3623,46.8109962 32.6203,43.0599962 32.6203,34.3009962 L32.6203,18.0329962 L32.7673,18.0329962 C35.1483,18.0329962 35.8983,17.1529962 35.8983,14.3979962 C35.8983,13.5849962 35.7963,13.5019962 35.1053,13.5019962 L24.3123,13.5019962 C23.6993,13.5019962 23.6113,13.6039962 23.5463,13.9749962 L23.5213,14.3979962 C23.5213,17.1459962 24.2663,18.0159962 26.6053,18.0329962 L26.7573,18.0329962 L26.7573,34.3009962 C26.7573,37.4209962 26.7573,41.6599962 21.7593,41.6599962 C17.1343,41.6599962 16.7653,38.3279962 16.7653,34.3009962 L16.7653,18.0329962 L16.9233,18.0329962 C19.2443,18.0159962 19.9993,17.1459962 19.9993,14.3979962 L19.9643,13.8849962 C19.8993,13.5919962 19.8033,13.5019962 19.2083,13.5019962 L8.4333,13.5019962 L8.433,13.5019962 Z M86.015,13.5019962 C85.775,13.5019962 84.658,13.6499962 84.091,13.7299962 C82.521,13.9959962 80.841,15.2109962 80.841,18.0159962 L80.841,21.1639962 L77.704,21.1639962 C77.04,21.1639962 76.925,21.2189962 76.925,22.0349962 C76.925,24.7319962 77.647,25.5549962 79.96,25.5549962 L80.841,25.5549962 L80.841,37.1639962 C80.841,41.9009962 80.842,46.8109962 86.583,46.8109962 C89.778,46.8109962 92.382,45.9789962 92.382,45.2829962 C92.382,45.1619962 92.192,44.2189962 92.081,43.7559962 C91.633,41.8909962 91.456,41.2059962 88.064,41.6289962 C87.635,41.6789962 87.251,41.5829962 86.982,41.3159962 C86.329,40.6509962 86.327,39.1899962 86.327,38.0159962 L86.327,25.5549962 L89.372,25.5549962 C91.711,25.5549962 92.409,24.7319962 92.409,22.0349962 C92.409,21.2189962 92.308,21.1639962 91.632,21.1639962 L86.327,21.1639962 L86.327,14.2089962 C86.327,13.5409962 86.27,13.5099962 86.015,13.5019962 L86.015,13.5019962 Z M51.857,20.2989962 C48.286,20.2989962 46.316,22.3789962 44.784,23.9569962 C44.65,23.3809962 44.536,22.9279962 44.536,22.9279962 C44.297,21.8389962 44.091,21.1639962 43.39,21.1639962 L37.337,21.1639962 C36.661,21.1639962 36.566,21.2189962 36.566,22.0349962 C36.566,24.5859962 37.206,25.4939962 39.351,25.5489962 C39.655,26.6229962 39.851,27.4949962 39.851,30.0509962 L39.851,41.5429962 C37.568,41.5579962 36.872,42.3949962 36.872,45.0659962 C36.872,45.8719962 36.99,45.9379962 37.657,45.9379962 L44.866,45.9379962 C45.308,45.9379962 45.335,45.8729962 45.335,45.4039962 L45.335,27.4649962 C45.997,26.7789962 47.495,25.2829962 49.415,25.2829962 C52.147,25.2829962 52.148,28.4009962 52.148,29.7379962 L52.148,45.4039962 C52.148,45.8729962 52.164,45.9379962 52.63,45.9379962 L59.808,45.9379962 C60.468,45.9379962 60.587,45.8719962 60.587,45.0659962 C60.587,42.4299962 59.852,41.5689962 57.63,41.5429962 L57.63,28.1599962 C57.63,22.7309962 55.848,20.2989962 51.857,20.2989962 L51.857,20.2989962 Z M104.235,20.2989962 C98.34,20.2989962 94.398,25.7159962 94.398,33.8029962 C94.398,44.5379962 99.875,46.8109962 104.475,46.8109962 C108.185,46.8109962 112.485,45.0669962 112.485,43.9729962 C112.485,43.8009962 112.305,42.9659962 112.055,42.2149962 C111.885,41.6699962 111.565,41.1099962 109.995,41.1859962 C108.795,41.2459962 106.855,41.8069962 105.065,41.8069962 C101.635,41.8069962 99.895,39.6629962 99.875,35.1019962 L112.325,35.1019962 C113.065,35.1019962 113.215,34.9159962 113.215,33.9979962 C113.215,24.9139962 110.185,20.2989962 104.235,20.2989962 Z M64.183,21.1639962 C63.5,21.1639962 63.419,21.2189962 63.419,22.0349962 C63.419,24.7319962 64.136,25.5549962 66.464,25.5549962 L67.023,25.5549962 L67.023,41.5269962 L66.429,41.5429962 C64.096,41.5429962 63.39,42.3749962 63.39,45.0659962 C63.39,45.8719962 63.496,45.9379962 64.169,45.9379962 L75.378,45.9379962 C76.033,45.9379962 76.159,45.8719962 76.159,45.0659962 C76.159,42.3999962 75.401,41.5429962 73.112,41.5429962 L72.515,41.5269962 L72.515,21.7089962 C72.515,21.2189962 72.481,21.1639962 72.023,21.1639962 L64.183,21.1639962 L64.183,21.1639962 Z M104.115,24.6819962 C107.555,24.6819962 107.565,28.6899962 107.565,30.7319962 L100.075,30.7319962 L100.105,30.3029962 C100.255,28.6129962 100.605,24.6819962 104.115,24.6819962 L104.115,24.6819962 Z M125.715,25.0409962 C127.135,25.0409962 128.175,25.3419962 129.365,26.1229962 L129.365,40.1819962 C128.655,41.0139962 127.645,42.0679962 125.425,42.0679962 C122.085,42.0679962 121.425,39.0089962 121.425,33.7009962 C121.425,28.0799962 122.115,25.0409962 125.715,25.0409962 L125.715,25.0409962 Z M59.724,53.8259962 C59.033,53.8259962 58.919,53.8929962 58.919,54.7439962 C58.919,57.2439962 59.533,58.1569962 61.298,58.3569962 L61.974,58.4039962 L67.058,86.3479962 C67.235,86.9969962 67.298,87.1269962 67.905,87.1269962 L72.314,87.1269962 C73.024,87.1269962 73.047,87.0939962 73.165,86.3479962 L77.558,64.6189962 L81.243,86.3669962 C81.389,87.0929962 81.388,87.1269962 82.107,87.1269962 L86.599,87.1269962 C87.193,87.1269962 87.281,86.9969962 87.437,86.3479962 L93.208,58.3789962 L93.849,58.3569962 C95.628,58.1569962 96.22,57.2389962 96.22,54.7439962 C96.22,53.9529962 96.109,53.8659962 95.562,53.8259962 L89.062,53.8259962 C88.49,53.8259962 88.482,53.8869962 88.392,54.4609962 L84.722,77.1739962 L80.306,54.5779962 C80.19,53.9689962 80.1,53.8259962 79.405,53.8259962 L76.427,53.8259962 C75.336,53.8259962 75.288,53.9929962 75.161,54.6169962 L70.536,77.1739962 L67.073,54.4609962 C66.985,53.8869962 66.973,53.8259962 66.413,53.8259962 L59.724,53.8259962 L59.724,53.8259962 Z M104.115,61.5139962 C100.315,61.5139962 96.282,63.1519962 96.282,64.1859962 C96.282,64.3119962 96.452,65.1229962 96.712,65.8569962 C96.831,66.1809962 97.074,66.9369962 98.687,66.8199962 C99.335,66.7689962 102.135,66.2359962 103.305,66.2359962 C106.405,66.2359962 106.715,68.0389962 106.715,70.1619962 L106.715,71.9159962 C102.855,71.9159962 94.53,71.9579962 94.53,80.3339962 C94.53,85.0579962 97.147,87.9859962 101.375,87.9859962 C104.575,87.9859962 106.175,86.2309962 107.125,85.1679962 L107.495,84.7599962 L107.615,85.3979962 C107.815,86.4219962 108.005,87.1269962 108.785,87.1269962 L114.395,87.1269962 C115.095,87.1269962 115.175,87.0729962 115.175,86.2679962 C115.175,83.7569962 114.585,82.8739962 112.505,82.7539962 C112.245,81.7809962 111.995,80.5549962 111.995,78.3069962 L111.995,69.5119962 C111.995,63.9719962 109.585,61.5139962 104.115,61.5139962 L104.115,61.5139962 Z M115.505,62.3499962 C114.845,62.3499962 114.725,62.4199962 114.725,63.2419962 C114.725,65.5309962 115.285,66.4219962 116.785,66.6739962 L117.555,66.6889962 C117.555,66.6889962 121.905,81.9519962 124.205,88.3479962 L123.865,89.5879962 C123.135,91.9819962 121.855,93.0819962 119.855,93.0819962 C119.375,93.0819962 116.695,92.6719962 116.695,92.6719962 C115.175,92.5519962 114.765,93.1869962 114.595,93.7359962 C114.325,94.5189962 114.145,95.4009962 114.145,95.5569962 C114.145,96.6849962 118.185,97.9099962 120.295,97.9099962 C122.395,97.9099962 125.355,97.1179962 126.875,93.3729962 C128.475,89.4319962 135.115,66.6889962 135.115,66.6889962 L135.865,66.6739962 C137.355,66.4119962 137.895,65.5259962 137.895,63.2419962 C137.895,62.4199962 137.775,62.3499962 137.115,62.3499962 L131.665,62.3499962 C131.145,62.3649962 131.095,62.4459962 130.925,62.9839962 L126.395,80.5199962 L121.715,62.9839962 C121.575,62.4459962 121.505,62.3649962 120.985,62.3499962 L115.505,62.3499962 L115.505,62.3499962 Z M105.985,75.7439962 C106.275,75.7529962 106.525,75.7689962 106.715,75.7829962 L106.715,81.5839962 C106.105,82.2499962 104.825,83.6149962 103.045,83.6149962 C101.215,83.6149962 99.805,82.0419962 99.805,79.9859962 C99.805,75.9689962 103.955,75.6789962 105.985,75.7439962 Z" id="Shape" fill="#FFFFFF"></path>
                <path d="M197.74,12.4379962 C176.07,12.4379962 158.47,30.0829962 158.47,51.7559962 C158.47,56.7419962 159.4,61.4969962 161.1,65.8729962 C161.19,66.1189962 161.37,66.5839962 161.94,66.3379962 C162.53,66.0459962 166.08,64.4009962 166.7,64.1289962 C167.34,63.8519962 167.06,63.3679962 166.97,63.1019962 C165.65,59.5569962 164.94,55.7379962 164.94,51.7559962 C164.94,33.6459962 179.64,18.9319962 197.74,18.9319962 C215.79,18.9319962 230.51,33.6459962 230.51,51.7559962 C230.51,56.3329962 229.56,60.6809962 227.87,64.6519962 C227.75,64.8939962 227.64,65.3749962 228.24,65.6369962 C228.8,65.8939962 232.26,67.4149962 232.74,67.6019962 C233.2,67.8289962 233.56,67.7779962 233.88,67.0879962 C235.88,62.3549962 236.98,57.1689962 236.98,51.7559962 C236.98,30.0829962 219.37,12.4379962 197.74,12.4379962 Z M197.74,21.4979962 C181.05,21.4979962 167.49,35.0779962 167.49,51.7559962 C167.49,55.4259962 168.16,58.9479962 169.37,62.2149962 C169.44,62.4159962 169.59,62.8149962 170.11,62.5779962 C170.59,62.3249962 172.28,61.5629962 172.73,61.3359962 C173.19,61.1439962 173.08,60.7559962 173.01,60.5799962 C172.02,57.8179962 171.48,54.8659962 171.48,51.7559962 C171.48,37.2599962 183.25,25.4939962 197.74,25.4939962 C212.18,25.4939962 223.96,37.2599962 223.96,51.7559962 C223.96,55.4659962 223.19,58.9879962 221.79,62.1879962 C221.72,62.3539962 221.59,62.7539962 222.04,62.9199962 C222.44,63.1019962 224.33,63.9429962 224.67,64.0999962 C225.04,64.2509962 225.28,64.1839962 225.46,63.7499962 C227.07,60.0809962 227.95,56.0149962 227.95,51.7559962 C227.95,35.0779962 214.4,21.4979962 197.74,21.4979962 L197.74,21.4979962 Z M197.74,28.1049962 C184.68,28.1049962 174.11,38.7019962 174.11,51.7559962 C174.11,54.4329962 174.56,56.9869962 175.37,59.3909962 C175.49,59.7539962 175.68,59.9919962 176.11,59.7949962 C176.53,59.5939962 177.51,59.1589962 177.95,58.9469962 C178.45,58.6909962 178.38,58.4829962 178.23,58.0739962 C177.57,56.0739962 177.24,53.9529962 177.24,51.7559962 C177.24,40.4509962 186.44,31.2499962 197.74,31.2499962 C209.02,31.2499962 218.2,40.4509962 218.2,51.7559962 C218.2,54.6449962 217.59,57.4209962 216.51,59.9059962 C216.41,60.0819962 216.4,60.4339962 216.7,60.5899962 C217.03,60.7309962 218.27,61.2899962 218.64,61.4319962 C219.01,61.5779962 219.23,61.4929962 219.43,61.1049962 C220.67,58.2209962 221.35,55.0719962 221.35,51.7559962 C221.35,38.7019962 210.77,28.1049962 197.74,28.1049962 Z" id="Shape" fill="#FFB351"></path>
                <path d="M197.75,34.8049962 C195.4,34.8049962 193.55,36.6749962 193.55,39.0229962 C193.55,41.3479962 195.4,43.2229962 197.75,43.2229962 C200.06,43.2229962 201.96,41.3479962 201.96,39.0229962 C201.96,36.6749962 200.06,34.8049962 197.75,34.8049962 L197.75,34.8049962 Z M186.97,38.1739962 C186.6,38.1739962 186.22,38.3199962 185.94,38.6149962 L184.34,40.1969962 C183.76,40.7619962 183.76,41.7299962 184.34,42.3139962 L193.04,50.9979962 C193.86,51.8699962 194.67,53.3739962 194.71,54.5429962 L194.71,63.7709962 C194.71,64.5929962 195.37,65.2579962 196.2,65.2579962 L199.29,65.2579962 C200.11,65.2579962 200.76,64.5929962 200.76,63.7709962 L200.76,54.5429962 C200.81,53.3739962 201.64,51.8699962 202.45,50.9979962 L211.14,42.3139962 C211.73,41.7299962 211.73,40.7619962 211.14,40.1969962 L209.55,38.6149962 C208.98,38.0249962 208.02,38.0249962 207.45,38.6149962 L199.61,46.4729962 C199.07,46.9819962 198.71,47.2989962 197.75,47.2989962 C196.77,47.2989962 196.39,46.9819962 195.88,46.4729962 L188.03,38.6149962 C187.74,38.3199962 187.35,38.1739962 186.97,38.1739962 L186.97,38.1739962 Z" id="Shape" fill="#FF443B"></path>
                <path d="M226.69,68.524 C225.2218,69.06827 222.4744,71.7797 221.2397,72.8836 L220.89453,72.93474 C221.33488,72.44986 223.22823,70.04574 223.72433,69.22434 C225.22173,66.73944 222.39573,64.40114 219.29433,66.18084 C218.10913,66.85594 216.13833,68.92704 215.18413,69.68294 L214.88592,69.75819 C215.31103,69.33092 217.06852,67.03189 217.52672,66.28589 C218.89342,64.27479 216.04712,62.36499 213.59542,63.85199 C211.85942,64.89449 210.43942,66.31709 208.98392,67.44589 L208.73012,67.51023 C209.1197,67.13258 210.09552,65.97853 210.46612,65.57603 C211.91532,63.94763 209.84052,62.07253 207.65282,63.21663 C205.55392,64.28473 202.53752,67.29963 199.23312,69.41623 C200.76482,70.2431 203.46142,70.36949 207.73402,72.19363 C212.02062,74.02273 213.40642,78.28173 210.60702,81.64403 C208.02342,84.75953 204.08822,83.71103 200.70002,82.65133 C196.76872,81.42193 195.37412,80.15203 190.64202,78.50873 C187.55202,77.43063 186.28432,77.44543 186.34272,76.56313 C186.39342,75.55053 189.06722,76.15515 191.56712,77.06235 C198.50972,79.58195 207.72412,85.29335 209.98612,79.13335 C211.77542,74.28045 203.77822,72.17375 200.71492,71.59385 C196.45372,70.77206 193.51472,67.65165 189.82192,65.66135 C184.24092,62.65245 179.94922,62.57705 176.76492,63.15065 C173.33742,63.7604 168.45312,66.55855 165.49792,68.33715 C163.44092,69.55255 163.59442,71.41155 165.59817,74.25925 C172.72097,84.37525 184.45017,90.98925 197.73117,90.98925 C211.81317,90.98925 224.17517,83.50925 231.09517,72.37525 C232.63577,69.89035 230.22211,67.26965 226.68927,68.52475" id="Path" fill="#005191"></path>
            </g>
        </g>
    </g>
</svg>