<?xml version="1.0" encoding="UTF-8"?>
<svg width="90px" height="60px" viewBox="0 0 90 60" version="1.1" xmlns="http://www.w3.org/2000/svg" xmlns:xlink="http://www.w3.org/1999/xlink">
    <!-- Generator: Sketch 56.3 (81716) - https://sketch.com -->
    <title>Shape Copy 3</title>
    <desc>Created with Sketch.</desc>
    <g id="Images" stroke="none" stroke-width="1" fill="none" fill-rule="evenodd">
        <g id="Artboard" transform="translate(-391.000000, -1534.000000)" fill="#FFFFFF" fill-rule="nonzero">
            <path d="M433.694201,1534 C432.39916,1534 431.399853,1535.07814 431.399853,1536.44297 C431.399853,1537.78791 432.423919,1538.89829 433.694201,1538.89829 C434.940411,1538.89829 435.937655,1537.78791 435.937655,1536.44297 C435.937655,1535.10009 434.940411,1534 433.694201,1534 L433.694201,1534 Z M473.193989,1534.08573 C472.733194,1534.08573 472.643786,1534.13031 472.643786,1534.67075 C472.643786,1536.46149 473.132092,1537.05954 474.617641,1537.08904 L474.720804,1537.08904 L474.720804,1541.00177 L474.411314,1540.79121 C473.840478,1540.39068 473.070194,1539.85504 471.412706,1539.85504 C467.54065,1539.85504 465.477387,1543.23761 465.477387,1549.64407 C465.477387,1555.05057 467.354956,1558.0381 470.75934,1558.0381 C473.455336,1558.0381 475.229742,1556.06767 475.229742,1556.06767 L475.442946,1556.80015 C475.601129,1557.3742 475.635517,1557.43936 476.096312,1557.43936 L480.470429,1557.43936 C480.917469,1557.43936 481,1557.39409 481,1556.8413 C481,1555.02313 480.518572,1554.42508 478.840452,1554.42508 C478.634125,1553.75775 478.503452,1553.06094 478.503452,1551.39091 L478.503452,1534.4458 C478.503452,1534.12962 478.475942,1534.08573 478.159575,1534.08573 L473.193989,1534.08573 L473.193989,1534.08573 Z M391.550685,1535.19337 C391.077166,1535.19337 391,1535.25029 391,1535.80788 C391,1537.71864 391.489887,1538.30092 393.157485,1538.30092 L393.253771,1538.30092 L393.253771,1549.45821 C393.253771,1555.4655 395.488284,1558.0381 400.715904,1558.0381 C405.944899,1558.0381 408.185603,1555.4655 408.185603,1549.45821 L408.185603,1538.30092 L408.286703,1538.30092 C409.924245,1538.30092 410.440061,1537.69738 410.440061,1535.80788 C410.440061,1535.25029 410.36991,1535.19337 409.894672,1535.19337 L402.471741,1535.19337 C402.050147,1535.19337 401.989625,1535.26332 401.944921,1535.51777 L401.927727,1535.80788 C401.927727,1537.69258 402.440104,1538.28926 404.048761,1538.30092 L404.1533,1538.30092 L404.1533,1549.45821 C404.1533,1551.59804 404.1533,1554.50532 400.715904,1554.50532 C397.535041,1554.50532 397.281259,1552.22009 397.281259,1549.45821 L397.281259,1538.30092 L397.389925,1538.30092 C398.986202,1538.28926 399.505457,1537.69258 399.505457,1535.80788 L399.481385,1535.45604 C399.436681,1535.25509 399.370657,1535.19337 398.961443,1535.19337 L391.550891,1535.19337 L391.550685,1535.19337 Z M444.908034,1535.19337 C444.742972,1535.19337 443.974751,1535.29487 443.584794,1535.34974 C442.50502,1535.53217 441.349593,1536.36547 441.349593,1538.28926 L441.349593,1540.44829 L439.192108,1540.44829 C438.735439,1540.44829 438.656348,1540.48601 438.656348,1541.04566 C438.656348,1542.89538 439.152906,1543.45983 440.743682,1543.45983 L441.349593,1543.45983 L441.349593,1551.42177 C441.349593,1554.67061 441.350281,1558.0381 445.298678,1558.0381 C447.496053,1558.0381 449.286965,1557.46748 449.286965,1556.99013 C449.286965,1556.90714 449.156291,1556.26039 449.079951,1555.94285 C448.771837,1554.66375 448.650104,1554.19395 446.317242,1554.48406 C446.022195,1554.51835 445.758098,1554.45251 445.573092,1554.26939 C445.123988,1553.81331 445.122613,1552.81129 445.122613,1552.00611 L445.122613,1543.45983 L447.216824,1543.45983 C448.825482,1543.45983 449.305534,1542.89538 449.305534,1541.04566 C449.305534,1540.48601 449.236071,1540.44829 448.771149,1540.44829 L445.122613,1540.44829 L445.122613,1535.67826 C445.122613,1535.22011 445.083411,1535.19885 444.908034,1535.19337 L444.908034,1535.19337 Z M421.415725,1539.85504 C418.959754,1539.85504 417.604878,1541.28159 416.551239,1542.36385 C416.45908,1541.96881 416.380676,1541.65812 416.380676,1541.65812 C416.216303,1540.91124 416.074625,1540.44829 415.592509,1540.44829 L411.429533,1540.44829 C410.964611,1540.44829 410.899275,1540.48601 410.899275,1541.04566 C410.899275,1542.79525 411.339437,1543.41799 412.81467,1543.45571 C413.023747,1544.19231 413.158547,1544.79036 413.158547,1546.54338 L413.158547,1554.42508 C411.588404,1554.43537 411.109727,1555.00942 411.109727,1556.8413 C411.109727,1557.39409 411.190882,1557.43936 411.649614,1557.43936 L416.607635,1557.43936 C416.911622,1557.43936 416.930191,1557.39478 416.930191,1557.07312 L416.930191,1544.76979 C417.385485,1544.2993 418.415741,1543.27328 419.736229,1543.27328 C421.615173,1543.27328 421.615861,1545.41174 421.615861,1546.32871 L421.615861,1557.07312 C421.615861,1557.39478 421.626865,1557.43936 421.947359,1557.43936 L426.884058,1557.43936 C427.337976,1557.43936 427.419819,1557.39409 427.419819,1556.8413 C427.419819,1555.03342 426.91432,1554.44291 425.38613,1554.42508 L425.38613,1545.24645 C425.38613,1541.52301 424.160552,1539.85504 421.415725,1539.85504 L421.415725,1539.85504 Z M457.438916,1539.85504 C453.384604,1539.85504 450.673477,1543.57025 450.673477,1549.11666 C450.673477,1556.47918 454.440307,1558.0381 457.603977,1558.0381 C460.155545,1558.0381 463.112888,1556.84199 463.112888,1556.09168 C463.112888,1555.97371 462.989092,1555.40103 462.817154,1554.88597 C462.700235,1554.51218 462.480154,1554.12811 461.40038,1554.18023 C460.575075,1554.22138 459.240832,1554.60614 458.009752,1554.60614 C455.650755,1554.60614 454.454062,1553.13569 454.440307,1550.00757 L463.002847,1550.00757 C463.511785,1550.00757 463.614949,1549.88 463.614949,1549.2504 C463.614949,1543.0202 461.531053,1539.85504 457.438916,1539.85504 Z M429.892983,1540.44829 C429.423247,1540.44829 429.367539,1540.48601 429.367539,1541.04566 C429.367539,1542.89538 429.860659,1543.45983 431.461751,1543.45983 L431.846205,1543.45983 L431.846205,1554.41411 L431.437679,1554.42508 C429.833149,1554.42508 429.347594,1554.9957 429.347594,1556.8413 C429.347594,1557.39409 429.420496,1557.43936 429.883355,1557.43936 L437.592392,1557.43936 C438.042871,1557.43936 438.129528,1557.39409 438.129528,1556.8413 C438.129528,1555.01285 437.60821,1554.42508 436.033941,1554.42508 L435.623351,1554.41411 L435.623351,1540.82208 C435.623351,1540.48601 435.599968,1540.44829 435.284976,1540.44829 L429.892983,1540.44829 L429.892983,1540.44829 Z M457.356385,1542.86109 C459.72226,1542.86109 459.729137,1545.60994 459.729137,1547.01043 L454.577858,1547.01043 L454.598491,1546.71621 C454.701654,1545.55713 454.942368,1542.86109 457.356385,1542.86109 L457.356385,1542.86109 Z M472.211876,1543.1073 C473.188487,1543.1073 473.903752,1543.31374 474.722179,1543.84939 L474.722179,1553.49165 C474.233874,1554.06227 473.539242,1554.78515 472.012428,1554.78515 C469.715329,1554.78515 469.261411,1552.68715 469.261411,1549.0467 C469.261411,1545.19158 469.735961,1543.1073 472.211876,1543.1073 L472.211876,1543.1073 Z M426.826287,1562.84928 C426.351049,1562.84928 426.272645,1562.89524 426.272645,1563.47889 C426.272645,1565.19349 426.694926,1565.81967 427.908812,1565.95684 L428.373734,1565.98907 L431.870277,1585.15426 C431.992009,1585.59937 432.035338,1585.68853 432.452804,1585.68853 L435.485113,1585.68853 C435.973418,1585.68853 435.989237,1585.6659 436.070392,1585.15426 L439.091696,1570.25158 L441.62607,1585.16729 C441.726482,1585.66521 441.725795,1585.68853 442.22029,1585.68853 L445.309682,1585.68853 C445.718208,1585.68853 445.77873,1585.59937 445.88602,1585.15426 L449.85505,1565.97193 L450.2959,1565.95684 C451.519415,1565.81967 451.926565,1565.19006 451.926565,1563.47889 C451.926565,1562.93639 451.850225,1562.87672 451.474023,1562.84928 L447.003621,1562.84928 C446.610225,1562.84928 446.604723,1562.89112 446.542825,1563.28479 L444.018767,1578.86234 L440.981645,1563.36504 C440.901865,1562.94736 440.839967,1562.84928 440.361978,1562.84928 L438.313846,1562.84928 C437.563506,1562.84928 437.530494,1562.96382 437.443149,1563.39179 L434.262286,1578.86234 L431.880593,1563.28479 C431.820071,1562.89112 431.811817,1562.84928 431.426675,1562.84928 L426.826287,1562.84928 L426.826287,1562.84928 Z M457.356385,1568.12204 C454.742919,1568.12204 451.969206,1569.24545 451.969206,1569.95461 C451.969206,1570.04103 452.086124,1570.59725 452.264941,1571.10066 C452.346783,1571.32287 452.513908,1571.84137 453.623255,1571.76112 C454.06892,1571.72614 455.994632,1571.36059 456.799304,1571.36059 C458.931342,1571.36059 459.144546,1572.59716 459.144546,1574.05321 L459.144546,1575.25618 C456.489815,1575.25618 450.764261,1575.28498 450.764261,1581.0296 C450.764261,1584.26952 452.564114,1586.27767 455.471938,1586.27767 C457.672752,1586.27767 458.773159,1585.07401 459.426525,1584.34496 L459.680994,1584.06514 L459.763525,1584.50271 C459.901076,1585.20501 460.031749,1585.68853 460.568197,1585.68853 L464.426499,1585.68853 C464.907927,1585.68853 464.962947,1585.65149 464.962947,1585.09939 C464.962947,1583.37724 464.557172,1582.77164 463.126643,1582.68934 C462.947827,1582.02201 462.775888,1581.18117 462.775888,1579.6394 L462.775888,1573.60741 C462.775888,1569.80784 461.118401,1568.12204 457.356385,1568.12204 L457.356385,1568.12204 Z M465.189906,1568.69541 C464.735988,1568.69541 464.653457,1568.74342 464.653457,1569.30718 C464.653457,1570.87707 465.0386,1571.48816 466.070231,1571.66099 L466.599802,1571.67128 C466.599802,1571.67128 469.591533,1582.13929 471.173368,1586.52594 L470.939531,1587.37639 C470.437471,1589.01829 469.557145,1589.77272 468.181637,1589.77272 C467.851515,1589.77272 466.008333,1589.49153 466.008333,1589.49153 C464.962947,1589.40922 464.680968,1589.84473 464.564049,1590.22126 C464.378356,1590.75828 464.25456,1591.36319 464.25456,1591.47018 C464.25456,1592.24381 467.033087,1593.08397 468.484249,1593.08397 C469.928532,1593.08397 471.964285,1592.54078 473.009671,1589.9723 C474.110078,1587.2694 478.676766,1571.67128 478.676766,1571.67128 L479.192582,1571.66099 C480.217336,1571.4813 480.588723,1570.87364 480.588723,1569.30718 C480.588723,1568.74342 480.506192,1568.69541 480.052275,1568.69541 L476.304014,1568.69541 C475.946382,1568.70569 475.911994,1568.76125 475.795076,1569.13023 L472.679549,1581.15717 L469.46086,1569.13023 C469.364574,1568.76125 469.316431,1568.70569 468.958799,1568.69541 L465.189906,1568.69541 L465.189906,1568.69541 Z M458.642485,1577.88158 C458.841934,1577.88775 459.013873,1577.89873 459.144546,1577.90833 L459.144546,1581.8869 C458.725016,1582.34367 457.844691,1583.27985 456.620488,1583.27985 C455.361898,1583.27985 454.392164,1582.20102 454.392164,1580.79093 C454.392164,1578.0359 457.246344,1577.837 458.642485,1577.88158 Z" id="Shape-Copy-3"></path>
        </g>
    </g>
</svg>