<svg xmlns="http://www.w3.org/2000/svg" height="106.45" width="250" viewBox="0 0 250 106.44831"><g><path d="m249.17 105.57h-100.89v-104.45h100.89v104.45" fill="#539ed0"/><path d="m148.28 105.57h-147.11v-104.45h147.11v104.45" fill="#005191"/><path d="m198.73 10.996c-23.03 0-41.66 18.654-41.66 41.664 0 23.004 18.63 41.668 41.66 41.668 23 0 41.67-18.664 41.67-41.668 0-23.01-18.67-41.664-41.67-41.664zm-128.02 1.766c-1.883 0-3.336 1.572-3.336 3.562 0 1.961 1.489 3.58 3.336 3.58 1.812 0 3.262-1.619 3.262-3.58 0-1.958-1.45-3.562-3.262-3.562zm57.433 0.125c-0.67 0-0.8 0.065-0.8 0.853 0 2.611 0.71 3.483 2.87 3.526h0.15v5.705l-0.45-0.307c-0.83-0.584-1.95-1.365-4.36-1.365-5.63 0-8.63 4.932-8.63 14.273 0 7.883 2.73 12.239 7.68 12.239 3.92 0 6.5-2.873 6.5-2.873l0.31 1.068c0.23 0.837 0.28 0.932 0.95 0.932h6.36c0.65 0 0.77-0.066 0.77-0.872 0-2.651-0.7-3.523-3.14-3.523-0.3-0.973-0.49-1.989-0.49-4.424v-24.707c0-0.461-0.04-0.525-0.5-0.525h-7.22zm-118.71 1.615c-0.6885 0-0.8007 0.083-0.8007 0.896 0 2.786 0.7123 3.635 3.137 3.635h0.14v16.268c0 8.759 3.249 12.51 10.85 12.51 7.603 0 10.861-3.751 10.861-12.51v-16.268h0.147c2.381 0 3.131-0.88 3.131-3.635 0-0.813-0.102-0.896-0.793-0.896h-10.793c-0.613 0-0.701 0.102-0.766 0.473l-0.025 0.423c0 2.748 0.745 3.618 3.084 3.635h0.152v16.268c0 3.12 0 7.359-4.998 7.359-4.625 0-4.994-3.332-4.994-7.359v-16.268h0.158c2.321-0.017 3.076-0.887 3.076-3.635l-0.035-0.513c-0.065-0.293-0.161-0.383-0.756-0.383h-10.775zm77.582 0c-0.24 0-1.357 0.148-1.924 0.228-1.57 0.266-3.25 1.481-3.25 4.286v3.148h-3.137c-0.664 0-0.779 0.055-0.779 0.871 0 2.697 0.722 3.52 3.035 3.52h0.881v11.609c0 4.737 0.001 9.647 5.742 9.647 3.195 0 5.799-0.832 5.799-1.528 0-0.121-0.19-1.064-0.301-1.527-0.448-1.865-0.625-2.55-4.017-2.127-0.429 0.05-0.813-0.046-1.082-0.313-0.653-0.665-0.655-2.126-0.655-3.3v-12.461h3.045c2.339 0 3.037-0.823 3.037-3.52 0-0.816-0.101-0.871-0.777-0.871h-5.305v-6.955c0-0.668-0.057-0.699-0.312-0.707zm-34.158 6.797c-3.571 0-5.541 2.08-7.073 3.658-0.134-0.576-0.248-1.029-0.248-1.029-0.239-1.089-0.445-1.764-1.146-1.764h-6.053c-0.676 0-0.771 0.055-0.771 0.871 0 2.551 0.64 3.459 2.785 3.514 0.304 1.074 0.5 1.946 0.5 4.502v11.492c-2.283 0.015-2.979 0.852-2.979 3.523 0 0.806 0.118 0.872 0.785 0.872h7.209c0.442 0 0.469-0.065 0.469-0.534v-17.939c0.662-0.686 2.16-2.182 4.08-2.182 2.732 0 2.733 3.118 2.733 4.455v15.666c0 0.469 0.016 0.534 0.482 0.534h7.178c0.66 0 0.779-0.066 0.779-0.872 0-2.636-0.735-3.497-2.957-3.523v-13.383c0-5.429-1.782-7.861-5.773-7.861zm52.378 0c-5.895 0-9.837 5.417-9.837 13.504 0 10.735 5.477 13.008 10.077 13.008 3.71 0 8.01-1.744 8.01-2.838 0-0.172-0.18-1.007-0.43-1.758-0.17-0.545-0.49-1.105-2.06-1.029-1.2 0.06-3.14 0.621-4.93 0.621-3.43 0-5.17-2.144-5.19-6.705h12.45c0.74 0 0.89-0.186 0.89-1.104 0-9.084-3.03-13.699-8.98-13.699zm-40.052 0.865c-0.683 0-0.764 0.055-0.764 0.871 0 2.697 0.717 3.52 3.045 3.52h0.559v15.972l-0.594 0.016c-2.333 0-3.039 0.832-3.039 3.523 0 0.806 0.106 0.872 0.779 0.872h11.209c0.655 0 0.781-0.066 0.781-0.872 0-2.666-0.758-3.523-3.047-3.523l-0.597-0.016v-19.818c0-0.49-0.034-0.545-0.492-0.545h-7.84zm39.932 3.518c3.44 0 3.45 4.008 3.45 6.05h-7.49l0.03-0.429c0.15-1.69 0.5-5.621 4.01-5.621zm21.6 0.359c1.42 0 2.46 0.301 3.65 1.082v14.059c-0.71 0.832-1.72 1.886-3.94 1.886-3.34 0-4-3.059-4-8.367 0-5.621 0.69-8.66 4.29-8.66zm-65.991 28.785c-0.691 0-0.805 0.067-0.805 0.918 0 2.5 0.614 3.413 2.379 3.613l0.676 0.047 5.084 27.944c0.177 0.649 0.24 0.779 0.847 0.779h4.409c0.71 0 0.733-0.033 0.851-0.779l4.393-21.729 3.685 21.748c0.146 0.726 0.145 0.76 0.864 0.76h4.492c0.594 0 0.682-0.13 0.838-0.779l5.771-27.969 0.641-0.022c1.779-0.2 2.371-1.118 2.371-3.613 0-0.791-0.111-0.878-0.658-0.918h-6.5c-0.572 0-0.58 0.061-0.67 0.635l-3.67 22.713-4.416-22.596c-0.116-0.609-0.206-0.752-0.901-0.752h-2.978c-1.091 0-1.139 0.167-1.266 0.791l-4.625 22.557-3.463-22.713c-0.088-0.574-0.1-0.635-0.66-0.635h-6.689zm44.391 7.688c-3.8 0-7.833 1.638-7.833 2.672 0 0.126 0.17 0.937 0.43 1.671 0.119 0.324 0.362 1.08 1.975 0.963 0.648-0.051 3.448-0.584 4.618-0.584 3.1 0 3.41 1.803 3.41 3.926v1.754c-3.86 0-12.185 0.042-12.185 8.418 0 4.724 2.617 7.652 6.845 7.652 3.2 0 4.8-1.755 5.75-2.818l0.37-0.408 0.12 0.638c0.2 1.024 0.39 1.729 1.17 1.729h5.61c0.7 0 0.78-0.054 0.78-0.859 0-2.511-0.59-3.394-2.67-3.514-0.26-0.973-0.51-2.199-0.51-4.447v-8.795c0-5.54-2.41-7.998-7.88-7.998zm11.39 0.836c-0.66 0-0.78 0.07-0.78 0.892 0 2.289 0.56 3.18 2.06 3.432l0.77 0.015s4.35 15.263 6.65 21.659l-0.34 1.24c-0.73 2.394-2.01 3.494-4.01 3.494-0.48 0-3.16-0.41-3.16-0.41-1.52-0.12-1.93 0.515-2.1 1.064-0.27 0.783-0.45 1.665-0.45 1.821 0 1.128 4.04 2.353 6.15 2.353 2.1 0 5.06-0.792 6.58-4.537 1.6-3.941 8.24-26.684 8.24-26.684l0.75-0.015c1.49-0.262 2.03-1.148 2.03-3.432 0-0.822-0.12-0.892-0.78-0.892h-5.45c-0.52 0.015-0.57 0.096-0.74 0.634l-4.53 17.536-4.68-17.536c-0.14-0.538-0.21-0.619-0.73-0.634h-5.48zm-9.52 13.394c0.29 0.009 0.54 0.025 0.73 0.039v5.801c-0.61 0.666-1.89 2.031-3.67 2.031-1.83 0-3.24-1.573-3.24-3.629 0-4.017 4.15-4.307 6.18-4.242z" transform="translate(0 -.0000038147)" fill="#fff"/><path d="m198.74 13.438c-21.67 0-39.27 17.645-39.27 39.318 0 4.986 0.93 9.741 2.63 14.117 0.09 0.246 0.27 0.711 0.84 0.465 0.59-0.292 4.14-1.937 4.76-2.209 0.64-0.277 0.36-0.761 0.27-1.027-1.32-3.545-2.03-7.364-2.03-11.346 0-18.11 14.7-32.824 32.8-32.824 18.05 0 32.77 14.714 32.77 32.824 0 4.577-0.95 8.925-2.64 12.896-0.12 0.242-0.23 0.723 0.37 0.985 0.56 0.257 4.02 1.778 4.5 1.965 0.46 0.227 0.82 0.176 1.14-0.514 2-4.733 3.1-9.919 3.1-15.332 0-21.673-17.61-39.318-39.24-39.318zm0 9.06c-16.69 0-30.25 13.58-30.25 30.258 0 3.67 0.67 7.192 1.88 10.459 0.07 0.201 0.22 0.6 0.74 0.363 0.48-0.253 2.17-1.015 2.62-1.242 0.46-0.192 0.35-0.58 0.28-0.756-0.99-2.762-1.53-5.714-1.53-8.824 0-14.496 11.77-26.262 26.26-26.262 14.44 0 26.22 11.766 26.22 26.262 0 3.71-0.77 7.232-2.17 10.432-0.07 0.166-0.2 0.566 0.25 0.732 0.4 0.182 2.29 1.023 2.63 1.18 0.37 0.151 0.61 0.084 0.79-0.35 1.61-3.669 2.49-7.735 2.49-11.994 0-16.678-13.55-30.258-30.21-30.258zm0 6.607c-13.06 0-23.63 10.597-23.63 23.651 0 2.677 0.45 5.231 1.26 7.635 0.12 0.363 0.31 0.601 0.74 0.404 0.42-0.201 1.4-0.636 1.84-0.848 0.5-0.256 0.43-0.464 0.28-0.873-0.66-2-0.99-4.121-0.99-6.318 0-11.305 9.2-20.506 20.5-20.506 11.28 0 20.46 9.201 20.46 20.506 0 2.889-0.61 5.665-1.69 8.15-0.1 0.176-0.11 0.528 0.19 0.684 0.33 0.141 1.57 0.7 1.94 0.842 0.37 0.146 0.59 0.061 0.79-0.327 1.24-2.884 1.92-6.033 1.92-9.349 0-13.054-10.58-23.651-23.61-23.651z" transform="translate(0 -.0000038147)" fill="#ffb351"/><path d="m198.75 35.805c-2.35 0-4.2 1.87-4.2 4.218 0 2.325 1.85 4.2 4.2 4.2 2.31 0 4.21-1.875 4.21-4.2 0-2.348-1.9-4.218-4.21-4.218zm-10.78 3.369c-0.37 0-0.75 0.146-1.03 0.441l-1.6 1.582c-0.58 0.565-0.58 1.533 0 2.117l8.7 8.684c0.82 0.872 1.63 2.376 1.67 3.545v9.228c0 0.822 0.66 1.487 1.49 1.487h3.09c0.82 0 1.47-0.665 1.47-1.487v-9.228c0.05-1.169 0.88-2.673 1.69-3.545l8.69-8.684c0.59-0.584 0.59-1.552 0-2.117l-1.59-1.582c-0.57-0.59-1.53-0.59-2.1 0l-7.84 7.858c-0.54 0.509-0.9 0.826-1.86 0.826-0.98 0-1.36-0.317-1.87-0.826l-7.85-7.858c-0.29-0.295-0.68-0.441-1.06-0.441z" transform="translate(0 -.0000038147)" fill="#ff443b"/><path d="m227.69 69.524c-1.4682 0.54427-4.2156 3.2557-5.4503 4.3596l-0.34517 0.05114c0.44035-0.48488 2.3337-2.889 2.8298-3.7104 1.4974-2.4849-1.3286-4.8232-4.43-3.0435-1.1852 0.6751-3.156 2.7462-4.1102 3.5021l-0.29821 0.07525c0.42511-0.42727 2.1826-2.7263 2.6408-3.4723 1.3667-2.0111-1.4796-3.9209-3.9313-2.4339-1.736 1.0425-3.156 2.4651-4.6115 3.5939l-0.2538 0.06434c0.38958-0.37765 1.3654-1.5317 1.736-1.9342 1.4492-1.6284-0.6256-3.5035-2.8133-2.3594-2.0989 1.0681-5.1153 4.083-8.4197 6.1996 1.5317 0.82687 4.2283 0.95326 8.5009 2.7774 4.2866 1.8291 5.6724 6.0881 2.873 9.4504-2.5836 3.1155-6.5188 2.067-9.907 1.0073-3.9313-1.2294-5.3259-2.4993-10.058-4.1426-3.09-1.0781-4.3577-1.0633-4.2993-1.9456 0.0507-1.0126 2.7245-0.40798 5.2244 0.49922 6.9426 2.5196 16.157 8.231 18.419 2.071 1.7893-4.8529-6.2079-6.9596-9.2712-7.5395-4.2612-0.82179-7.2002-3.9422-10.893-5.9325-5.581-3.0089-9.8727-3.0843-13.057-2.5107-3.4275 0.60975-8.3118 3.4079-11.267 5.1865-2.057 1.2154-1.9035 3.0744 0.10025 5.9221 7.1228 10.116 18.852 16.73 32.133 16.73 14.082 0 26.444-7.48 33.364-18.614 1.5406-2.4849-0.87306-5.1056-4.4059-3.8505" fill="#005191"/></g></svg>
