<?xml version="1.0" encoding="UTF-8"?>
<svg width="233px" height="88px" viewBox="0 0 233 88" version="1.1" xmlns="http://www.w3.org/2000/svg" xmlns:xlink="http://www.w3.org/1999/xlink">
    <!-- Generator: Sketch 56.3 (81716) - https://sketch.com -->
    <title>United_Way_Worldwide_logo</title>
    <desc>Created with Sketch.</desc>
    <g id="Images" stroke="none" stroke-width="1" fill="none" fill-rule="evenodd">
        <g id="Artboard" transform="translate(-239.000000, -1203.000000)" fill-rule="nonzero">
            <g id="United_Way_Worldwide_logo" transform="translate(239.000000, 1202.000000)">
                <path d="M190.73,0.995996185 C167.7,0.995996185 149.07,19.6499962 149.07,42.6599962 C149.07,65.6639962 167.7,84.3279962 190.73,84.3279962 C213.73,84.3279962 232.4,65.6639962 232.4,42.6599962 C232.4,19.6499962 213.73,0.995996185 190.73,0.995996185 L190.73,0.995996185 Z M62.71,2.76199619 C60.827,2.76199619 59.374,4.33399619 59.374,6.32399619 C59.374,8.28499619 60.863,9.90399619 62.71,9.90399619 C64.522,9.90399619 65.972,8.28499619 65.972,6.32399619 C65.972,4.36599619 64.522,2.76199619 62.71,2.76199619 L62.71,2.76199619 Z M120.143,2.88699619 C119.473,2.88699619 119.343,2.95199619 119.343,3.73999619 C119.343,6.35099619 120.053,7.22299619 122.213,7.26599619 L122.363,7.26599619 L122.363,12.9709962 L121.913,12.6639962 C121.083,12.0799962 119.963,11.2989962 117.553,11.2989962 C111.923,11.2989962 108.923,16.2309962 108.923,25.5719962 C108.923,33.4549962 111.653,37.8109962 116.603,37.8109962 C120.523,37.8109962 123.103,34.9379962 123.103,34.9379962 L123.413,36.0059962 C123.643,36.8429962 123.693,36.9379962 124.363,36.9379962 L130.723,36.9379962 C131.373,36.9379962 131.493,36.8719962 131.493,36.0659962 C131.493,33.4149962 130.793,32.5429962 128.353,32.5429962 C128.053,31.5699962 127.863,30.5539962 127.863,28.1189962 L127.863,3.41199619 C127.863,2.95099619 127.823,2.88699619 127.363,2.88699619 L120.143,2.88699619 L120.143,2.88699619 Z M1.433,4.50199619 C0.7445,4.50199619 0.6323,4.58499619 0.6323,5.39799619 C0.6323,8.18399619 1.3446,9.03299619 3.7693,9.03299619 L3.9093,9.03299619 L3.9093,25.3009962 C3.9093,34.0599962 7.1583,37.8109962 14.7593,37.8109962 C22.3623,37.8109962 25.6203,34.0599962 25.6203,25.3009962 L25.6203,9.03299619 L25.7673,9.03299619 C28.1483,9.03299619 28.8983,8.15299619 28.8983,5.39799619 C28.8983,4.58499619 28.7963,4.50199619 28.1053,4.50199619 L17.3123,4.50199619 C16.6993,4.50199619 16.6113,4.60399619 16.5463,4.97499619 L16.5213,5.39799619 C16.5213,8.14599619 17.2663,9.01599619 19.6053,9.03299619 L19.7573,9.03299619 L19.7573,25.3009962 C19.7573,28.4209962 19.7573,32.6599962 14.7593,32.6599962 C10.1343,32.6599962 9.7653,29.3279962 9.7653,25.3009962 L9.7653,9.03299619 L9.9233,9.03299619 C12.2443,9.01599619 12.9993,8.14599619 12.9993,5.39799619 L12.9643,4.88499619 C12.8993,4.59199619 12.8033,4.50199619 12.2083,4.50199619 L1.4333,4.50199619 L1.433,4.50199619 Z M79.015,4.50199619 C78.775,4.50199619 77.658,4.64999619 77.091,4.72999619 C75.521,4.99599619 73.841,6.21099619 73.841,9.01599619 L73.841,12.1639962 L70.704,12.1639962 C70.04,12.1639962 69.925,12.2189962 69.925,13.0349962 C69.925,15.7319962 70.647,16.5549962 72.96,16.5549962 L73.841,16.5549962 L73.841,28.1639962 C73.841,32.9009962 73.842,37.8109962 79.583,37.8109962 C82.778,37.8109962 85.382,36.9789962 85.382,36.2829962 C85.382,36.1619962 85.192,35.2189962 85.081,34.7559962 C84.633,32.8909962 84.456,32.2059962 81.064,32.6289962 C80.635,32.6789962 80.251,32.5829962 79.982,32.3159962 C79.329,31.6509962 79.327,30.1899962 79.327,29.0159962 L79.327,16.5549962 L82.372,16.5549962 C84.711,16.5549962 85.409,15.7319962 85.409,13.0349962 C85.409,12.2189962 85.308,12.1639962 84.632,12.1639962 L79.327,12.1639962 L79.327,5.20899619 C79.327,4.54099619 79.27,4.50999619 79.015,4.50199619 L79.015,4.50199619 Z M44.857,11.2989962 C41.286,11.2989962 39.316,13.3789962 37.784,14.9569962 C37.65,14.3809962 37.536,13.9279962 37.536,13.9279962 C37.297,12.8389962 37.091,12.1639962 36.39,12.1639962 L30.337,12.1639962 C29.661,12.1639962 29.566,12.2189962 29.566,13.0349962 C29.566,15.5859962 30.206,16.4939962 32.351,16.5489962 C32.655,17.6229962 32.851,18.4949962 32.851,21.0509962 L32.851,32.5429962 C30.568,32.5579962 29.872,33.3949962 29.872,36.0659962 C29.872,36.8719962 29.99,36.9379962 30.657,36.9379962 L37.866,36.9379962 C38.308,36.9379962 38.335,36.8729962 38.335,36.4039962 L38.335,18.4649962 C38.997,17.7789962 40.495,16.2829962 42.415,16.2829962 C45.147,16.2829962 45.148,19.4009962 45.148,20.7379962 L45.148,36.4039962 C45.148,36.8729962 45.164,36.9379962 45.63,36.9379962 L52.808,36.9379962 C53.468,36.9379962 53.587,36.8719962 53.587,36.0659962 C53.587,33.4299962 52.852,32.5689962 50.63,32.5429962 L50.63,19.1599962 C50.63,13.7309962 48.848,11.2989962 44.857,11.2989962 L44.857,11.2989962 Z M97.235,11.2989962 C91.34,11.2989962 87.398,16.7159962 87.398,24.8029962 C87.398,35.5379962 92.875,37.8109962 97.475,37.8109962 C101.185,37.8109962 105.485,36.0669962 105.485,34.9729962 C105.485,34.8009962 105.305,33.9659962 105.055,33.2149962 C104.885,32.6699962 104.565,32.1099962 102.995,32.1859962 C101.795,32.2459962 99.855,32.8069962 98.065,32.8069962 C94.635,32.8069962 92.895,30.6629962 92.875,26.1019962 L105.325,26.1019962 C106.065,26.1019962 106.215,25.9159962 106.215,24.9979962 C106.215,15.9139962 103.185,11.2989962 97.235,11.2989962 Z M57.183,12.1639962 C56.5,12.1639962 56.419,12.2189962 56.419,13.0349962 C56.419,15.7319962 57.136,16.5549962 59.464,16.5549962 L60.023,16.5549962 L60.023,32.5269962 L59.429,32.5429962 C57.096,32.5429962 56.39,33.3749962 56.39,36.0659962 C56.39,36.8719962 56.496,36.9379962 57.169,36.9379962 L68.378,36.9379962 C69.033,36.9379962 69.159,36.8719962 69.159,36.0659962 C69.159,33.3999962 68.401,32.5429962 66.112,32.5429962 L65.515,32.5269962 L65.515,12.7089962 C65.515,12.2189962 65.481,12.1639962 65.023,12.1639962 L57.183,12.1639962 L57.183,12.1639962 Z M97.115,15.6819962 C100.555,15.6819962 100.565,19.6899962 100.565,21.7319962 L93.075,21.7319962 L93.105,21.3029962 C93.255,19.6129962 93.605,15.6819962 97.115,15.6819962 L97.115,15.6819962 Z M118.715,16.0409962 C120.135,16.0409962 121.175,16.3419962 122.365,17.1229962 L122.365,31.1819962 C121.655,32.0139962 120.645,33.0679962 118.425,33.0679962 C115.085,33.0679962 114.425,30.0089962 114.425,24.7009962 C114.425,19.0799962 115.115,16.0409962 118.715,16.0409962 L118.715,16.0409962 Z M52.724,44.8259962 C52.033,44.8259962 51.919,44.8929962 51.919,45.7439962 C51.919,48.2439962 52.533,49.1569962 54.298,49.3569962 L54.974,49.4039962 L60.058,77.3479962 C60.235,77.9969962 60.298,78.1269962 60.905,78.1269962 L65.314,78.1269962 C66.024,78.1269962 66.047,78.0939962 66.165,77.3479962 L70.558,55.6189962 L74.243,77.3669962 C74.389,78.0929962 74.388,78.1269962 75.107,78.1269962 L79.599,78.1269962 C80.193,78.1269962 80.281,77.9969962 80.437,77.3479962 L86.208,49.3789962 L86.849,49.3569962 C88.628,49.1569962 89.22,48.2389962 89.22,45.7439962 C89.22,44.9529962 89.109,44.8659962 88.562,44.8259962 L82.062,44.8259962 C81.49,44.8259962 81.482,44.8869962 81.392,45.4609962 L77.722,68.1739962 L73.306,45.5779962 C73.19,44.9689962 73.1,44.8259962 72.405,44.8259962 L69.427,44.8259962 C68.336,44.8259962 68.288,44.9929962 68.161,45.6169962 L63.536,68.1739962 L60.073,45.4609962 C59.985,44.8869962 59.973,44.8259962 59.413,44.8259962 L52.724,44.8259962 L52.724,44.8259962 Z M97.115,52.5139962 C93.315,52.5139962 89.282,54.1519962 89.282,55.1859962 C89.282,55.3119962 89.452,56.1229962 89.712,56.8569962 C89.831,57.1809962 90.074,57.9369962 91.687,57.8199962 C92.335,57.7689962 95.135,57.2359962 96.305,57.2359962 C99.405,57.2359962 99.715,59.0389962 99.715,61.1619962 L99.715,62.9159962 C95.855,62.9159962 87.53,62.9579962 87.53,71.3339962 C87.53,76.0579962 90.147,78.9859962 94.375,78.9859962 C97.575,78.9859962 99.175,77.2309962 100.125,76.1679962 L100.495,75.7599962 L100.615,76.3979962 C100.815,77.4219962 101.005,78.1269962 101.785,78.1269962 L107.395,78.1269962 C108.095,78.1269962 108.175,78.0729962 108.175,77.2679962 C108.175,74.7569962 107.585,73.8739962 105.505,73.7539962 C105.245,72.7809962 104.995,71.5549962 104.995,69.3069962 L104.995,60.5119962 C104.995,54.9719962 102.585,52.5139962 97.115,52.5139962 L97.115,52.5139962 Z M108.505,53.3499962 C107.845,53.3499962 107.725,53.4199962 107.725,54.2419962 C107.725,56.5309962 108.285,57.4219962 109.785,57.6739962 L110.555,57.6889962 C110.555,57.6889962 114.905,72.9519962 117.205,79.3479962 L116.865,80.5879962 C116.135,82.9819962 114.855,84.0819962 112.855,84.0819962 C112.375,84.0819962 109.695,83.6719962 109.695,83.6719962 C108.175,83.5519962 107.765,84.1869962 107.595,84.7359962 C107.325,85.5189962 107.145,86.4009962 107.145,86.5569962 C107.145,87.6849962 111.185,88.9099962 113.295,88.9099962 C115.395,88.9099962 118.355,88.1179962 119.875,84.3729962 C121.475,80.4319962 128.115,57.6889962 128.115,57.6889962 L128.865,57.6739962 C130.355,57.4119962 130.895,56.5259962 130.895,54.2419962 C130.895,53.4199962 130.775,53.3499962 130.115,53.3499962 L124.665,53.3499962 C124.145,53.3649962 124.095,53.4459962 123.925,53.9839962 L119.395,71.5199962 L114.715,53.9839962 C114.575,53.4459962 114.505,53.3649962 113.985,53.3499962 L108.505,53.3499962 L108.505,53.3499962 Z M98.985,66.7439962 C99.275,66.7529962 99.525,66.7689962 99.715,66.7829962 L99.715,72.5839962 C99.105,73.2499962 97.825,74.6149962 96.045,74.6149962 C94.215,74.6149962 92.805,73.0419962 92.805,70.9859962 C92.805,66.9689962 96.955,66.6789962 98.985,66.7439962 Z" id="Shape" fill="#FFFFFF"></path>
                <path d="M190.74,3.43799619 C169.07,3.43799619 151.47,21.0829962 151.47,42.7559962 C151.47,47.7419962 152.4,52.4969962 154.1,56.8729962 C154.19,57.1189962 154.37,57.5839962 154.94,57.3379962 C155.53,57.0459962 159.08,55.4009962 159.7,55.1289962 C160.34,54.8519962 160.06,54.3679962 159.97,54.1019962 C158.65,50.5569962 157.94,46.7379962 157.94,42.7559962 C157.94,24.6459962 172.64,9.93199619 190.74,9.93199619 C208.79,9.93199619 223.51,24.6459962 223.51,42.7559962 C223.51,47.3329962 222.56,51.6809962 220.87,55.6519962 C220.75,55.8939962 220.64,56.3749962 221.24,56.6369962 C221.8,56.8939962 225.26,58.4149962 225.74,58.6019962 C226.2,58.8289962 226.56,58.7779962 226.88,58.0879962 C228.88,53.3549962 229.98,48.1689962 229.98,42.7559962 C229.98,21.0829962 212.37,3.43799619 190.74,3.43799619 Z M190.74,12.4979962 C174.05,12.4979962 160.49,26.0779962 160.49,42.7559962 C160.49,46.4259962 161.16,49.9479962 162.37,53.2149962 C162.44,53.4159962 162.59,53.8149962 163.11,53.5779962 C163.59,53.3249962 165.28,52.5629962 165.73,52.3359962 C166.19,52.1439962 166.08,51.7559962 166.01,51.5799962 C165.02,48.8179962 164.48,45.8659962 164.48,42.7559962 C164.48,28.2599962 176.25,16.4939962 190.74,16.4939962 C205.18,16.4939962 216.96,28.2599962 216.96,42.7559962 C216.96,46.4659962 216.19,49.9879962 214.79,53.1879962 C214.72,53.3539962 214.59,53.7539962 215.04,53.9199962 C215.44,54.1019962 217.33,54.9429962 217.67,55.0999962 C218.04,55.2509962 218.28,55.1839962 218.46,54.7499962 C220.07,51.0809962 220.95,47.0149962 220.95,42.7559962 C220.95,26.0779962 207.4,12.4979962 190.74,12.4979962 L190.74,12.4979962 Z M190.74,19.1049962 C177.68,19.1049962 167.11,29.7019962 167.11,42.7559962 C167.11,45.4329962 167.56,47.9869962 168.37,50.3909962 C168.49,50.7539962 168.68,50.9919962 169.11,50.7949962 C169.53,50.5939962 170.51,50.1589962 170.95,49.9469962 C171.45,49.6909962 171.38,49.4829962 171.23,49.0739962 C170.57,47.0739962 170.24,44.9529962 170.24,42.7559962 C170.24,31.4509962 179.44,22.2499962 190.74,22.2499962 C202.02,22.2499962 211.2,31.4509962 211.2,42.7559962 C211.2,45.6449962 210.59,48.4209962 209.51,50.9059962 C209.41,51.0819962 209.4,51.4339962 209.7,51.5899962 C210.03,51.7309962 211.27,52.2899962 211.64,52.4319962 C212.01,52.5779962 212.23,52.4929962 212.43,52.1049962 C213.67,49.2209962 214.35,46.0719962 214.35,42.7559962 C214.35,29.7019962 203.77,19.1049962 190.74,19.1049962 Z" id="Shape" fill="#FFB351"></path>
                <path d="M190.75,25.8049962 C188.4,25.8049962 186.55,27.6749962 186.55,30.0229962 C186.55,32.3479962 188.4,34.2229962 190.75,34.2229962 C193.06,34.2229962 194.96,32.3479962 194.96,30.0229962 C194.96,27.6749962 193.06,25.8049962 190.75,25.8049962 L190.75,25.8049962 Z M179.97,29.1739962 C179.6,29.1739962 179.22,29.3199962 178.94,29.6149962 L177.34,31.1969962 C176.76,31.7619962 176.76,32.7299962 177.34,33.3139962 L186.04,41.9979962 C186.86,42.8699962 187.67,44.3739962 187.71,45.5429962 L187.71,54.7709962 C187.71,55.5929962 188.37,56.2579962 189.2,56.2579962 L192.29,56.2579962 C193.11,56.2579962 193.76,55.5929962 193.76,54.7709962 L193.76,45.5429962 C193.81,44.3739962 194.64,42.8699962 195.45,41.9979962 L204.14,33.3139962 C204.73,32.7299962 204.73,31.7619962 204.14,31.1969962 L202.55,29.6149962 C201.98,29.0249962 201.02,29.0249962 200.45,29.6149962 L192.61,37.4729962 C192.07,37.9819962 191.71,38.2989962 190.75,38.2989962 C189.77,38.2989962 189.39,37.9819962 188.88,37.4729962 L181.03,29.6149962 C180.74,29.3199962 180.35,29.1739962 179.97,29.1739962 L179.97,29.1739962 Z" id="Shape" fill="#FF443B"></path>
                <path d="M219.69,59.524 C218.2218,60.06827 215.4744,62.7797 214.2397,63.8836 L213.89453,63.93474 C214.33488,63.44986 216.22823,61.04574 216.72433,60.22434 C218.22173,57.73944 215.39573,55.40114 212.29433,57.18084 C211.10913,57.85594 209.13833,59.92704 208.18413,60.68294 L207.88592,60.75819 C208.31103,60.33092 210.06852,58.03189 210.52672,57.28589 C211.89342,55.27479 209.04712,53.36499 206.59542,54.85199 C204.85942,55.89449 203.43942,57.31709 201.98392,58.44589 L201.73012,58.51023 C202.1197,58.13258 203.09552,56.97853 203.46612,56.57603 C204.91532,54.94763 202.84052,53.07253 200.65282,54.21663 C198.55392,55.28473 195.53752,58.29963 192.23312,60.41623 C193.76482,61.2431 196.46142,61.36949 200.73402,63.19363 C205.02062,65.02273 206.40642,69.28173 203.60702,72.64403 C201.02342,75.75953 197.08822,74.71103 193.70002,73.65133 C189.76872,72.42193 188.37412,71.15203 183.64202,69.50873 C180.55202,68.43063 179.28432,68.44543 179.34272,67.56313 C179.39342,66.55053 182.06722,67.15515 184.56712,68.06235 C191.50972,70.58195 200.72412,76.29335 202.98612,70.13335 C204.77542,65.28045 196.77822,63.17375 193.71492,62.59385 C189.45372,61.77206 186.51472,58.65165 182.82192,56.66135 C177.24092,53.65245 172.94922,53.57705 169.76492,54.15065 C166.33742,54.7604 161.45312,57.55855 158.49792,59.33715 C156.44092,60.55255 156.59442,62.41155 158.59817,65.25925 C165.72097,75.37525 177.45017,81.98925 190.73117,81.98925 C204.81317,81.98925 217.17517,74.50925 224.09517,63.37525 C225.63577,60.89035 223.22211,58.26965 219.68927,59.52475" id="Path" fill="#005191"></path>
            </g>
        </g>
    </g>
</svg>