<svg width="1600" height="769" viewBox="0 0 1600 769" fill="none" xmlns="http://www.w3.org/2000/svg">
<style type="text/css">
  #first {
    transition: 0.5s;
    animation: art-color-1 3.5s cubic-bezier(0.075, 0.82, 0.165, 1) infinite;
  }

  #second {
    transition: 0.5s;
    animation: art-color-2 2.5s cubic-bezier(0.075, 0.82, 0.165, 1) infinite;
  }

  <!-- Orange Art -->
  @keyframes art-color-1 {
  0% {
    fill: #FFB351;
    transform: translateY(5px)
  }
  50% {
    fill: #FA6400;
    transform: translateY(0px)
  }
  100% {
    fill: #FFB351;
    transform: translateY(5px)
  }
}

<!-- Blue Art -->
 @keyframes art-color-2 {
  0% {
    fill: #1A88EE;
    transform: translateY(5px)
  }
  50% {
    fill: #005191;
    transform: translateY(-2px)
  }
  100% {
    fill: #1A88EE;
    transform: translateY(5px)
  }
}

 
</style>
<g clip-path="url(#clip0)">
<rect width="1600" height="769" fill="url(#paint0_linear)"/>
<path id="second" d="M78.8105 728.245L-4 769H1596L1573.42 697.553L1561.37 730.258L1540.79 689L1501.65 754.912L1468.52 713.654L1445.94 697.553L1435.9 728.245L1391 697.553L1369.65 728.245L1343.5 708L1309 734L1267.27 699.566L1244.18 730.258L1234.14 713.654L1217.58 742.836L1207 711.642L1195 728.245L1178.5 699.566L1146.5 730.258L1106.67 699.566L1063 730.258L1025 704.5L999.764 742.836L953 713.654L914.5 734L890 708L863 728L809.5 711.642L775.5 742.836L728.246 711.642L703.654 742.836L664.507 711.642L617.33 754.912L596.753 711.642L547.067 742.836L536.5 720.5L497.882 742.836L443 720.5L423.5 742.836L374 720.5L345.812 754.912L330 720.5L284.08 754.912L262.5 720.5L234.896 754.912L203.779 711.642L171.157 754.912L144.055 728.245L100.893 754.912L78.8105 728.245Z" fill="#E5E5E5"/>
<path id="first" d="M68.5 738.5L-4 769H1600.5L1570.5 753.5L1556 732L1527 753.5L1507 732L1483.5 753.5L1445.5 732L1417 755.233L1391 716.5L1364 747L1345.06 757.245V754.912L1311 732L1277.5 757.245L1244 762L1217.58 742.837V742.654L1180 754.912L1156 732L1127 753.5L1103.5 716.5L1054.5 740.642L1016.5 753.5L996.5 732L959 757.245L915.448 742.837L883 757.245L856.5 732L816 753.5L769.5 747L740 757.245L703.654 742.837L663.5 762L619 747L584.5 753.5L547.067 742.837L528.999 757.245L497.882 742.837L456.5 762L424.5 754.912L381.5 742.837L345.812 754.912L319 738.5L284.08 754.912L251.5 762L233.5 747L202.5 757.245L163 754.912L136 730L87.5 757.245L68.5 738.5Z" fill="#777777"/>
</g>
<defs>
<linearGradient id="paint0_linear" x1="800" y1="0" x2="800" y2="769" gradientUnits="userSpaceOnUse">
<stop stop-color="white"/>
<stop offset="1" stop-color="white" stop-opacity="0"/>
</linearGradient>
<clipPath id="clip0">
<rect width="1600" height="769" fill="white"/>
</clipPath>
</defs>
</svg>
