<?xml version="1.0" encoding="UTF-8"?>
<svg width="20px" height="20px" viewBox="0 0 20 20" version="1.1" xmlns="http://www.w3.org/2000/svg" xmlns:xlink="http://www.w3.org/1999/xlink">
    <!-- Generator: Sketch 56.3 (81716) - https://sketch.com -->
    <title>question</title>
    <desc>Created with Sketch.</desc>
    <g id="Symbols" stroke="none" stroke-width="1" fill-rule="evenodd">
        <g id="Navbar" transform="translate(-242.000000, -17.000000)" fill-rule="nonzero">
            <g id="Group-11">
                <g id="Group-9" transform="translate(229.000000, 17.000000)">
                    <g id="question" transform="translate(13.000000, 0.000000)">
                        <path d="M19.9976172,12.9031641 C19.9726953,12.4562109 19.7522656,12.046875 19.3927344,11.7801562 C18.8110547,11.3485156 18.0038672,11.3935156 17.4736719,11.8872656 L14.2487109,14.8906641 C14.2683594,14.2298828 13.8340234,13.6466797 13.1835156,13.4816406 L9.24492187,12.4819922 C8.55421875,12.3066406 7.83101562,12.3303125 7.15320312,12.5503906 L4.43042969,13.434375 L4.43042969,12.6508984 C4.43042969,12.4351953 4.25550781,12.2603125 4.03984375,12.2603125 L0.390585937,12.2603125 C0.174882812,12.2603125 0,12.4352344 0,12.6508984 L0,19.6085937 C0,19.8242969 0.174921875,19.9991797 0.390585937,19.9991797 L4.03988281,19.9991797 C4.25558594,19.9991797 4.43046875,19.8242578 4.43046875,19.6085937 L4.43046875,14.2557422 L7.39445312,13.2934375 C7.93183594,13.1189062 8.50527344,13.1002344 9.05277344,13.2391406 L12.9914062,14.2387891 C13.2973047,14.3164453 13.4966016,14.6007422 13.4652344,14.9148828 C13.4328125,15.2396484 13.1621875,15.4846094 12.8357812,15.4846094 L10.0903906,15.4846094 C9.8746875,15.4846094 9.69980469,15.6595312 9.69980469,15.8751953 C9.69980469,16.0908984 9.87472656,16.2657812 10.0903906,16.2657812 L10.931875,16.2657812 C10.9465625,16.2674609 10.9614453,16.2685156 10.9766016,16.2685156 L12.9136719,16.2685156 C13.5597656,16.2685156 14.1759766,16.0259766 14.6488672,15.5856641 L18.0061719,12.4589453 C18.2606641,12.2219141 18.648125,12.2003516 18.9274219,12.4075391 C19.1,12.5355469 19.2057812,12.7320313 19.2177344,12.9466016 C19.2297266,13.1611719 19.1463281,13.3681641 18.9890625,13.5146094 L14.3640625,17.8200781 C14.0450391,18.1170312 13.6292578,18.2805859 13.1934375,18.2805859 L7.14046875,18.2805859 C6.92476562,18.2805859 6.74988281,18.4555078 6.74988281,18.6711719 C6.74988281,18.886875 6.92480469,19.0617578 7.14046875,19.0617578 L13.1935156,19.0617578 C13.8275,19.0617578 14.4322656,18.8238281 14.8964062,18.3918359 L19.5212891,14.0863672 C19.8489062,13.7813672 20.0225391,13.3501172 19.9976172,12.9031641 Z M3.64929688,19.2180078 L0.781171875,19.2180078 L0.781171875,13.0415234 L3.64925781,13.0415234 L3.64925781,19.2180078 L3.64929688,19.2180078 Z" id="Shape"></path>
                        <path d="M5.84054688,18.3950391 C5.7675,18.3223437 5.66710937,18.2805859 5.56441406,18.2805859 C5.46125,18.2805859 5.36089844,18.3223437 5.28789063,18.3950391 C5.21523437,18.4676953 5.1734375,18.5684766 5.1734375,18.6711719 C5.1734375,18.7738672 5.21519531,18.8746875 5.28789063,18.9472656 C5.3609375,19.0199219 5.46128906,19.0617578 5.56441406,19.0617578 C5.66714844,19.0617578 5.76753906,19.0199609 5.84054688,18.9472656 C5.91316406,18.8746484 5.955,18.7738672 5.955,18.6711719 C5.955,18.5684766 5.91320312,18.4676953 5.84054688,18.3950391 Z" id="Path"></path>
                        <path d="M2.49125,17.9915625 C2.41894531,17.9189062 2.31816406,17.8771094 2.21546875,17.8771094 C2.11234375,17.8771094 2.0115625,17.9185156 1.93894531,17.9915625 C1.86632812,18.0642188 1.82488281,18.1646484 1.82488281,18.2676953 C1.82488281,18.3704297 1.86632812,18.4712109 1.93894531,18.5438281 C2.01199219,18.6164453 2.11238281,18.6582813 2.21546875,18.6582813 C2.31820313,18.6582813 2.41859375,18.6164844 2.49125,18.5438281 C2.56425781,18.4711719 2.60605469,18.3703906 2.60605469,18.2676953 C2.60605469,18.1645703 2.56425781,18.0642188 2.49125,17.9915625 Z" id="Path"></path>
                        <path d="M9.99921875,0.00078125 C8.06085937,0.00078125 6.48386719,1.57777344 6.48386719,3.51613281 C6.48386719,4.16226563 7.00953125,4.68792969 7.65566406,4.68792969 C8.30179687,4.68792969 8.82746094,4.16226563 8.82746094,3.51613281 C8.82746094,2.87 9.353125,2.34433594 9.99925781,2.34433594 C10.6453906,2.34433594 11.1710547,2.87 11.1710547,3.51613281 C11.1710547,4.16226563 10.6453906,4.68792969 9.99925781,4.68792969 C9.353125,4.68792969 8.82746094,5.21359375 8.82746094,5.85972656 L8.82746094,7.53929688 C8.82746094,8.18542969 9.353125,8.71109375 9.99925781,8.71109375 C10.6453906,8.71109375 11.1710547,8.18542969 11.1710547,7.53929688 L11.1710547,6.83085938 C12.5651953,6.33875 13.5146094,5.0165625 13.5146094,3.51613281 C13.5146094,1.57773438 11.9375781,0.00078125 9.99921875,0.00078125 Z M10.6827344,6.16382812 C10.5102734,6.20835937 10.3898438,6.36394531 10.3898438,6.54199219 L10.3898438,7.53921875 C10.3898438,7.75460938 10.2146094,7.92980469 9.99925781,7.92980469 C9.78386719,7.92980469 9.60867188,7.75457031 9.60867188,7.53921875 L9.60867188,5.85964844 C9.60867188,5.64425781 9.78390625,5.4690625 9.99925781,5.4690625 C11.0761328,5.4690625 11.9522266,4.59296875 11.9522266,3.51609375 C11.9522266,2.43921875 11.0761328,1.563125 9.99925781,1.563125 C8.92238281,1.563125 8.04628906,2.43921875 8.04628906,3.51609375 C8.04628906,3.73148437 7.87105469,3.90667969 7.65570313,3.90667969 C7.4403125,3.90667969 7.26511719,3.73144531 7.26511719,3.51609375 C7.26511719,2.00847656 8.49164063,0.781914062 9.99929688,0.781914062 C11.5069531,0.781914062 12.7334766,2.00847656 12.7334766,3.51609375 C12.7333984,4.76316406 11.8901172,5.85195312 10.6827344,6.16382812 Z" id="Shape"></path>
                        <path d="M10.8280859,9.95804687 C10.6102734,9.73960937 10.3081641,9.614375 9.99921875,9.614375 C9.6903125,9.614375 9.38816406,9.73964844 9.17109375,9.95730469 C8.95269531,10.1751172 8.82746094,10.4772266 8.82746094,10.7861328 C8.82746094,11.0950391 8.95273437,11.3971875 9.17070312,11.6146094 C9.38890625,11.8328125 9.69085938,11.9578906 9.99921875,11.9578906 C10.3076172,11.9578906 10.6096094,11.8327344 10.8276953,11.6146094 C11.0458984,11.3964063 11.1709766,11.0944531 11.1709766,10.7861328 C11.1710156,10.4778125 11.0458984,10.1758203 10.8280859,9.95804687 Z M10.2752344,11.0622656 C10.2035937,11.1339453 10.1003516,11.1767578 9.99921875,11.1767578 C9.89804687,11.1767578 9.79476562,11.1339453 9.72273437,11.0619141 C9.65128906,10.9906641 9.60863281,10.8875391 9.60863281,10.7861719 C9.60863281,10.6832422 9.65019531,10.5827344 9.7234375,10.5097266 C9.79472656,10.4382812 9.89785156,10.3955859 9.99921875,10.3955859 C10.100625,10.3955859 10.2036719,10.4382422 10.2752734,10.5101172 C10.3469922,10.5817578 10.3898047,10.685 10.3898047,10.7861719 C10.3898047,10.8873438 10.3469922,10.9905469 10.2752344,11.0622656 Z" id="Shape"></path>
                        <path d="M2.21527344,13.8472656 C1.99957031,13.8472656 1.8246875,14.0221875 1.8246875,14.2378516 L1.8246875,16.7182031 C1.8246875,16.9339062 1.99957031,17.1087891 2.21527344,17.1087891 C2.43097656,17.1087891 2.60585938,16.9338672 2.60585938,16.7182031 L2.60585938,14.2378516 C2.60585938,14.0221875 2.4309375,13.8472656 2.21527344,13.8472656 Z" id="Path"></path>
                    </g>
                </g>
            </g>
        </g>
    </g>
</svg>