<?xml version="1.0" encoding="UTF-8"?>
<svg width="20px" height="18px" viewBox="0 0 20 18" version="1.1" xmlns="http://www.w3.org/2000/svg" xmlns:xlink="http://www.w3.org/1999/xlink">
    <!-- Generator: Sketch 56.3 (81716) - https://sketch.com -->
    <title>suitcase</title>
    <desc>Created with Sketch.</desc>
    <g id="Symbols" stroke="none" stroke-width="1" fill-rule="evenodd">
        <g id="Navbar" transform="translate(-26.000000, -17.000000)" fill-rule="nonzero">
            <g id="Group-11">
                <g id="Group-6" transform="translate(13.000000, 17.000000)">
                    <g id="suitcase" transform="translate(13.000000, 0.000000)">
                        <path d="M19,3 L14.6666667,3 L14.6666667,1.66666667 C14.6655273,0.746582042 13.9200846,0.001139325 13,0 L7,0 C6.07991538,0.001139325 5.33447267,0.746582042 5.33333333,1.66666667 L5.33333333,3 L1,3 C0.447753917,3 0,3.44775392 0,4 L0,11.4199219 C0.00211588333,11.8427734 0.268554667,12.2189128 0.666666667,12.3610026 L0.666666667,17 C0.666666667,17.5522461 1.11442058,18 1.66666667,18 L18.3333333,18 C18.8855794,18 19.3333333,17.5522461 19.3333333,17 L19.3333333,12.3613281 C19.7314453,12.2190755 19.9980469,11.8427734 20,11.4199219 L20,4 C20,3.44775392 19.5522461,3 19,3 Z M6,1.66666667 C6,1.11442058 6.44775392,0.666666667 7,0.666666667 L13,0.666666667 C13.5522461,0.666666667 14,1.11442058 14,1.66666667 L14,3 L13.3333333,3 L13.3333333,1.66666667 C13.3333333,1.48258463 13.184082,1.33333333 13,1.33333333 L7,1.33333333 C6.81591796,1.33333333 6.66666667,1.48258463 6.66666667,1.66666667 L6.66666667,3 L6,3 L6,1.66666667 Z M12.6666667,3 L7.33333333,3 L7.33333333,2 L12.6666667,2 L12.6666667,3 Z M18.6666667,17 C18.6666667,17.184082 18.5174154,17.3333333 18.3333333,17.3333333 L1.66666667,17.3333333 C1.48258463,17.3333333 1.33333333,17.184082 1.33333333,17 L1.33333333,12.4755859 L8.66666667,13.4869792 L8.66666667,14.3333333 C8.66666667,14.8855794 9.11442058,15.3333333 9.66666667,15.3333333 L10.3333333,15.3333333 C10.8855794,15.3333333 11.3333333,14.8855794 11.3333333,14.3333333 L11.3333333,13.4869792 L18.6666667,12.4755859 L18.6666667,17 Z M10.6666667,14.3333333 C10.6666667,14.5174154 10.5174154,14.6666667 10.3333333,14.6666667 L9.66666667,14.6666667 C9.48258462,14.6666667 9.33333333,14.5174154 9.33333333,14.3333333 L9.33333333,12.3333333 C9.33333333,12.1492513 9.48258462,12 9.66666667,12 L10.3333333,12 C10.5174154,12 10.6666667,12.1492513 10.6666667,12.3333333 L10.6666667,14.3333333 Z M19.3333335,11.4199219 C19.3333335,11.5861002 19.211263,11.7270508 19.0467122,11.7503255 L18.9542643,11.7630208 L11.3333333,12.8139648 L11.3333333,12.3333333 C11.3333333,11.7810872 10.8855794,11.3333333 10.3333333,11.3333333 L9.6666665,11.3333333 C9.11442058,11.3333333 8.6666665,11.7810872 8.6666665,12.3333333 L8.6666665,12.8139648 L0.953613292,11.7503255 C0.7890625,11.7272135 0.666666505,11.586263 0.666666505,11.4199219 L0.666666505,4 C0.666666505,3.81591796 0.815917958,3.66666667 1,3.66666667 L19,3.66666667 C19.184082,3.66666667 19.3333335,3.81591796 19.3333335,4 L19.3333335,11.4199219 Z" id="Shape"></path>
                    </g>
                </g>
            </g>
        </g>
    </g>
</svg>